{"glyphs":{"0":{"ha":833,"x_min":74,"x_max":760,"o":"m 417 -17 q 237 36 314 -17 q 117 192 160 89 q 74 444 74 294 q 168 785 74 671 q 417 899 263 899 q 665 785 571 899 q 760 444 760 671 q 717 192 760 294 q 597 36 674 89 q 417 -17 519 -17 m 417 154 q 490 180 457 154 q 544 269 524 206 q 564 444 564 332 q 544 618 564 557 q 490 703 524 679 q 417 728 457 728 q 343 703 376 728 q 290 618 310 679 q 269 444 269 557 q 290 269 269 332 q 343 180 310 206 q 417 154 376 154 m 417 338 q 340 367 371 338 q 308 446 308 397 q 340 524 308 494 q 417 554 371 554 q 494 524 464 554 q 525 446 525 494 q 494 367 525 397 q 417 338 464 338 z "},"1":{"ha":833,"x_min":106,"x_max":756,"o":"m 106 0 l 106 178 l 339 178 l 339 661 l 144 661 l 144 799 q 249 818 206 807 q 328 844 293 829 q 399 882 363 860 l 560 882 l 560 178 l 756 178 l 756 0 l 106 0 z "},"2":{"ha":833,"x_min":65,"x_max":746,"o":"m 76 0 l 76 126 q 292 313 199 228 q 439 468 386 397 q 492 600 492 539 q 455 694 492 663 q 354 725 418 725 q 263 699 304 725 q 183 639 221 672 l 65 757 q 209 864 136 829 q 385 899 282 899 q 550 863 479 899 q 661 763 621 828 q 701 613 701 699 q 657 465 701 540 q 542 317 613 390 q 393 175 472 243 q 475 183 431 179 q 553 186 519 186 l 746 186 l 746 0 l 76 0 z "},"3":{"ha":833,"x_min":54,"x_max":742,"o":"m 386 -17 q 248 -1 310 -17 q 138 43 186 15 q 54 108 89 71 l 156 247 q 254 185 200 210 q 363 161 308 161 q 444 172 408 161 q 499 204 479 183 q 519 256 519 225 q 497 317 519 292 q 420 357 475 343 q 264 371 365 371 l 264 526 q 397 540 347 526 q 469 578 446 554 q 492 636 492 603 q 459 702 492 679 q 369 725 426 725 q 278 706 321 725 q 189 650 235 686 l 78 785 q 220 868 144 838 q 381 899 296 899 q 554 869 479 899 q 671 786 629 840 q 713 653 713 732 q 669 538 713 586 q 547 460 626 490 l 547 454 q 647 410 603 439 q 716 340 690 382 q 742 240 742 297 q 692 101 742 158 q 561 13 642 43 q 386 -17 481 -17 z "},"4":{"ha":833,"x_min":47,"x_max":779,"o":"m 465 0 l 465 496 q 469 597 465 540 q 474 697 472 654 l 468 697 q 420 621 446 660 q 371 543 394 582 l 258 372 l 779 372 l 779 204 l 47 204 l 47 358 l 401 882 l 672 882 l 672 0 l 465 0 z "},"5":{"ha":833,"x_min":61,"x_max":742,"o":"m 393 -17 q 256 -1 317 -17 q 147 44 194 15 q 61 108 99 72 l 160 247 q 220 204 189 224 q 287 173 251 185 q 360 161 322 161 q 444 176 408 161 q 500 218 481 190 q 519 288 519 246 q 477 381 519 350 q 369 413 435 413 q 301 403 329 413 q 228 369 272 394 l 131 432 l 154 882 l 703 882 l 703 696 l 344 696 l 332 549 q 385 562 361 558 q 439 565 410 565 q 588 536 519 565 q 699 447 657 507 q 742 293 742 386 q 693 126 742 194 q 565 20 644 57 q 393 -17 485 -17 z "},"6":{"ha":833,"x_min":79,"x_max":761,"o":"m 440 -17 q 308 8 372 -17 q 192 85 244 32 q 110 222 140 139 q 79 422 79 306 q 111 634 79 544 q 197 782 143 724 q 319 869 250 840 q 461 899 388 899 q 630 866 557 899 q 749 789 703 833 l 632 657 q 565 701 606 682 q 481 719 524 719 q 383 692 428 719 q 309 599 338 664 q 281 422 281 535 q 304 254 281 314 q 364 172 328 194 q 435 149 400 149 q 496 162 468 149 q 542 204 524 175 q 560 281 560 233 q 526 372 560 344 q 440 399 492 399 q 363 378 403 399 q 283 308 322 358 l 272 450 q 380 527 319 500 q 488 554 440 554 q 626 525 564 554 q 724 435 688 496 q 761 281 761 375 q 717 121 761 188 q 599 19 672 54 q 440 -17 526 -17 z "},"7":{"ha":833,"x_min":83,"x_max":751,"o":"m 258 0 q 281 197 265 107 q 324 369 296 288 q 399 530 353 450 q 514 696 446 610 l 83 696 l 83 882 l 751 882 l 751 744 q 617 574 668 654 q 540 410 567 493 q 500 228 513 328 q 481 0 488 129 l 258 0 z "},"8":{"ha":833,"x_min":82,"x_max":753,"o":"m 415 -17 q 238 14 313 -17 q 122 99 163 44 q 82 225 82 153 q 104 317 82 278 q 163 385 126 356 q 244 438 199 415 l 244 443 q 153 533 189 482 q 117 651 117 583 q 156 783 117 728 q 263 869 194 839 q 422 899 332 899 q 634 833 554 899 q 714 654 714 767 q 677 547 714 594 q 589 467 640 499 l 589 461 q 672 407 635 439 q 731 331 710 375 q 753 229 753 288 q 714 103 753 158 q 599 16 675 49 q 415 -17 524 -17 m 475 519 q 533 639 533 578 q 519 696 533 672 q 480 732 506 719 q 417 744 454 744 q 342 722 374 744 q 310 651 310 700 q 331 596 310 618 q 389 555 351 574 q 475 519 426 536 m 419 136 q 511 160 475 136 q 547 236 547 185 q 533 283 547 264 q 492 319 518 303 q 428 349 465 335 q 346 381 392 364 q 309 343 325 364 q 283 299 293 322 q 274 250 274 276 q 293 188 274 214 q 346 149 313 163 q 419 136 379 136 z "},"9":{"ha":833,"x_min":71,"x_max":751,"o":"m 369 -17 q 201 17 274 -17 q 82 92 128 50 l 199 224 q 266 181 225 200 q 350 161 307 161 q 449 190 404 161 q 522 283 494 218 q 550 458 550 347 q 526 628 550 568 q 468 710 503 688 q 396 732 433 732 q 336 719 365 732 q 290 678 307 707 q 272 600 272 649 q 306 510 272 538 q 392 483 339 483 q 469 503 429 483 q 549 572 510 524 l 558 431 q 451 355 511 382 q 343 328 390 328 q 205 356 267 328 q 107 445 143 385 q 71 600 71 506 q 115 760 71 693 q 233 863 160 828 q 392 899 306 899 q 523 874 458 899 q 639 796 588 849 q 721 660 690 743 q 751 458 751 576 q 719 248 751 338 q 634 100 688 158 q 512 13 581 42 q 369 -17 443 -17 z "}," ":{"ha":833,"x_min":0,"x_max":0,"o":""},"A":{"ha":833,"x_min":6,"x_max":828,"o":"m 6 0 l 283 904 l 550 904 l 828 0 l 593 0 l 483 449 q 449 592 468 515 q 414 738 431 668 l 408 738 q 377 592 394 668 q 343 449 360 515 l 233 0 l 6 0 m 197 204 l 197 375 l 633 375 l 633 204 l 197 204 z "},"B":{"ha":833,"x_min":96,"x_max":785,"o":"m 96 0 l 96 904 l 408 904 q 579 884 503 904 q 700 815 656 864 q 744 679 744 767 q 707 563 744 619 q 590 485 669 506 l 590 479 q 736 409 688 461 q 785 267 785 357 q 738 115 785 174 q 613 28 692 56 q 436 0 533 0 l 96 0 m 317 544 l 401 544 q 498 572 468 544 q 528 647 528 600 q 497 713 528 693 q 403 732 467 732 l 317 732 l 317 544 m 317 171 l 419 171 q 532 199 496 171 q 568 285 568 228 q 533 363 568 339 q 419 388 497 388 l 317 388 l 317 171 z "},"C":{"ha":833,"x_min":72,"x_max":796,"o":"m 496 -17 q 335 13 411 -17 q 199 99 258 42 q 106 244 140 157 q 72 446 72 331 q 131 703 72 597 q 289 865 190 810 q 510 921 388 921 q 667 885 596 921 q 783 804 738 850 l 661 668 q 594 713 631 697 q 510 729 557 729 q 402 697 450 729 q 327 602 354 664 q 300 454 300 540 q 327 303 300 365 q 404 208 354 240 q 519 175 454 175 q 604 197 565 175 q 674 250 643 218 l 796 117 q 664 17 740 50 q 496 -17 588 -17 z "},"D":{"ha":833,"x_min":93,"x_max":786,"o":"m 93 0 l 93 904 l 349 904 q 577 858 479 904 q 731 713 675 811 q 786 456 786 614 q 731 197 786 299 q 581 48 676 96 q 361 0 485 0 l 93 0 m 315 178 l 336 178 q 451 203 401 178 q 530 289 501 229 q 558 456 558 349 q 530 621 558 563 q 451 703 501 679 q 336 726 401 726 l 315 726 l 315 178 z "},"E":{"ha":833,"x_min":122,"x_max":743,"o":"m 122 0 l 122 904 l 729 904 l 729 718 l 344 718 l 344 557 l 672 557 l 672 371 l 344 371 l 344 186 l 743 186 l 743 0 l 122 0 z "},"F":{"ha":833,"x_min":138,"x_max":749,"o":"m 138 0 l 138 904 l 749 904 l 749 718 l 360 718 l 360 528 l 692 528 l 692 342 l 360 342 l 360 0 l 138 0 z "},"G":{"ha":833,"x_min":58,"x_max":763,"o":"m 478 -17 q 267 35 363 -17 q 115 190 172 86 q 58 446 58 293 q 115 705 58 599 q 268 866 172 811 q 481 921 364 921 q 638 885 572 921 q 747 804 704 850 l 625 668 q 564 713 597 697 q 481 729 531 729 q 382 697 426 729 q 312 602 338 664 q 286 454 286 540 q 309 303 286 365 q 378 208 332 240 q 490 175 424 175 q 532 181 511 175 q 565 196 553 186 l 565 338 l 443 338 l 443 518 l 763 518 l 763 93 q 641 17 718 51 q 478 -17 564 -17 z "},"H":{"ha":833,"x_min":85,"x_max":749,"o":"m 85 0 l 85 904 l 307 904 l 307 561 l 526 561 l 526 904 l 749 904 l 749 0 l 526 0 l 526 368 l 307 368 l 307 0 l 85 0 z "},"I":{"ha":833,"x_min":97,"x_max":736,"o":"m 97 0 l 97 186 l 306 186 l 306 718 l 97 718 l 97 904 l 736 904 l 736 718 l 528 718 l 528 186 l 736 186 l 736 0 l 97 0 z "},"J":{"ha":833,"x_min":76,"x_max":724,"o":"m 379 -17 q 220 16 303 -17 q 76 132 138 49 l 203 269 q 285 200 242 225 q 371 175 328 175 q 468 208 435 175 q 501 329 501 240 l 501 718 l 153 718 l 153 904 l 724 904 l 724 311 q 690 147 724 221 q 582 28 657 72 q 379 -17 507 -17 z "},"K":{"ha":833,"x_min":86,"x_max":829,"o":"m 86 0 l 86 904 l 310 904 l 310 551 l 315 551 l 560 904 l 806 904 l 310 239 l 310 0 l 86 0 m 585 0 l 388 403 l 517 576 l 829 0 l 585 0 z "},"L":{"ha":833,"x_min":140,"x_max":756,"o":"m 140 0 l 140 904 l 363 904 l 363 186 l 756 186 l 756 0 l 140 0 z "},"M":{"ha":833,"x_min":76,"x_max":757,"o":"m 76 0 l 76 904 l 306 904 l 386 596 l 414 475 l 419 475 l 447 596 l 528 904 l 757 904 l 757 0 l 572 0 l 572 246 q 576 344 572 286 q 583 467 579 403 q 592 590 586 532 q 601 686 597 649 l 597 686 l 524 431 l 465 239 l 363 239 l 301 431 l 235 686 l 229 686 q 239 590 233 649 q 248 467 244 532 q 255 344 251 403 q 258 246 258 286 l 258 0 l 76 0 z "},"N":{"ha":833,"x_min":88,"x_max":746,"o":"m 88 0 l 88 904 l 314 904 l 485 478 l 560 276 l 565 276 q 546 441 557 350 q 535 614 535 532 l 535 904 l 746 904 l 746 0 l 519 0 l 349 428 l 274 628 l 268 628 q 288 462 276 551 q 299 292 299 372 l 299 0 l 88 0 z "},"O":{"ha":833,"x_min":50,"x_max":783,"o":"m 417 -17 q 226 37 308 -17 q 97 195 143 90 q 50 456 50 300 q 97 712 50 608 q 226 868 143 815 q 417 921 308 921 q 608 868 525 921 q 737 712 690 815 q 783 456 783 608 q 737 195 783 300 q 608 37 690 90 q 417 -17 525 -17 m 417 175 q 491 206 460 175 q 540 300 522 238 q 557 456 557 363 q 540 607 557 546 q 491 699 522 668 q 417 729 460 729 q 342 699 374 729 q 294 607 311 668 q 276 456 276 546 q 294 300 276 363 q 342 206 311 238 q 417 175 374 175 z "},"P":{"ha":833,"x_min":96,"x_max":783,"o":"m 96 0 l 96 904 l 426 904 q 605 876 524 904 q 735 785 686 849 q 783 608 783 721 q 734 431 783 500 q 603 330 685 363 q 426 297 521 297 l 318 297 l 318 0 l 96 0 m 318 472 l 415 472 q 530 508 493 472 q 567 608 567 543 q 528 701 567 675 q 415 728 489 728 l 318 728 l 318 472 z "},"Q":{"ha":833,"x_min":50,"x_max":818,"o":"m 417 -17 q 226 37 308 -17 q 97 195 143 90 q 50 456 50 300 q 97 712 50 608 q 226 868 143 815 q 417 921 308 921 q 608 868 525 921 q 737 712 690 815 q 783 456 783 608 q 737 195 783 300 q 608 37 690 90 q 417 -17 525 -17 m 417 164 q 491 194 460 164 q 540 290 522 225 q 557 456 557 354 q 540 607 557 546 q 491 699 522 668 q 417 729 460 729 q 342 699 374 729 q 294 607 311 668 q 276 456 276 546 q 294 290 276 354 q 342 194 311 225 q 417 164 374 164 m 679 -251 q 447 -179 540 -251 q 310 7 353 -107 l 535 31 q 575 -34 547 -11 q 637 -66 603 -57 q 704 -75 671 -75 q 745 -69 725 -75 q 779 -57 765 -64 l 818 -219 q 760 -242 796 -233 q 679 -251 725 -251 z "},"R":{"ha":833,"x_min":89,"x_max":819,"o":"m 89 0 l 89 904 l 418 904 q 594 878 514 904 q 724 790 675 853 q 772 617 772 728 q 724 444 772 511 q 594 346 675 378 q 418 314 514 314 l 310 314 l 310 0 l 89 0 m 310 490 l 401 490 q 516 522 476 490 q 556 617 556 554 q 516 704 556 681 q 401 728 476 728 l 310 728 l 310 490 m 378 372 l 529 517 l 819 0 l 572 0 l 378 372 z "},"S":{"ha":833,"x_min":65,"x_max":768,"o":"m 413 -17 q 231 16 322 -17 q 65 114 140 49 l 192 265 q 305 200 244 225 q 428 175 365 175 q 515 194 488 175 q 542 240 542 213 q 526 287 542 269 q 479 317 510 304 q 407 347 449 331 l 292 396 q 197 449 240 415 q 126 531 153 482 q 100 646 100 581 q 142 784 100 722 q 261 883 185 846 q 439 921 338 921 q 599 891 519 921 q 743 801 679 861 l 632 661 q 538 712 583 694 q 426 729 492 729 q 353 712 382 729 q 325 658 325 694 q 342 619 325 635 q 392 590 360 603 q 469 560 425 576 l 576 515 q 680 459 638 493 q 745 378 722 425 q 768 268 768 332 q 727 127 768 192 q 607 23 686 63 q 413 -17 528 -17 z "},"T":{"ha":833,"x_min":40,"x_max":793,"o":"m 306 0 l 306 718 l 40 718 l 40 904 l 793 904 l 793 718 l 528 718 l 528 0 l 306 0 z "},"U":{"ha":833,"x_min":85,"x_max":749,"o":"m 419 -17 q 271 8 333 -17 q 167 81 208 33 q 106 195 126 128 q 85 349 85 263 l 85 904 l 307 904 l 307 325 q 318 244 307 278 q 354 193 329 211 q 419 175 379 175 q 485 193 460 175 q 523 244 511 211 q 535 325 535 278 l 535 904 l 749 904 l 749 349 q 729 195 749 263 q 669 81 710 128 q 567 8 629 33 q 419 -17 506 -17 z "},"V":{"ha":833,"x_min":13,"x_max":821,"o":"m 283 0 l 13 904 l 247 904 l 350 496 q 385 352 369 422 q 419 208 400 282 l 425 208 q 460 352 444 282 q 494 496 475 422 l 593 904 l 821 904 l 550 0 l 283 0 z "},"W":{"ha":833,"x_min":4,"x_max":831,"o":"m 121 0 l 4 904 l 233 904 l 251 439 q 253 363 253 401 q 253 287 253 325 q 254 210 254 249 l 260 210 q 273 287 265 249 q 289 363 281 325 q 304 439 297 401 l 360 675 l 494 675 l 546 439 q 560 365 553 403 q 576 289 568 328 q 590 210 585 250 l 596 210 q 597 289 596 250 q 597 365 597 328 q 599 439 597 401 l 617 904 l 831 904 l 722 0 l 489 0 l 442 264 q 428 353 435 308 q 419 439 422 399 l 415 439 q 406 353 413 399 q 393 264 400 308 l 349 0 l 121 0 z "},"X":{"ha":833,"x_min":15,"x_max":818,"o":"m 15 0 l 278 465 l 31 904 l 278 904 l 358 744 q 390 678 374 714 q 426 597 407 642 l 432 597 q 464 678 449 642 q 493 744 479 714 l 565 904 l 803 904 l 556 454 l 818 0 l 571 0 l 479 172 q 444 244 461 208 q 408 322 428 281 l 403 322 q 372 244 388 281 q 338 172 356 208 l 253 0 l 15 0 z "},"Y":{"ha":833,"x_min":17,"x_max":817,"o":"m 306 0 l 306 303 l 17 904 l 254 904 l 338 696 q 376 594 357 644 q 415 490 396 544 l 421 490 q 462 594 442 544 q 501 697 482 644 l 585 904 l 817 904 l 528 303 l 528 0 l 306 0 z "},"Z":{"ha":833,"x_min":76,"x_max":763,"o":"m 76 0 l 76 135 l 483 718 l 114 718 l 114 904 l 757 904 l 757 769 l 350 186 l 763 186 l 763 0 l 76 0 z "},"a":{"ha":833,"x_min":81,"x_max":747,"o":"m 306 -17 q 185 13 235 -17 q 108 89 135 42 q 81 194 81 136 q 183 372 81 310 q 526 447 285 433 q 506 494 522 475 q 459 523 489 513 q 386 533 429 533 q 323 526 356 533 q 256 504 290 518 q 182 471 222 490 l 103 617 q 207 665 154 644 q 315 697 260 686 q 429 708 371 708 q 599 674 528 708 q 708 570 669 640 q 747 390 747 500 l 747 0 l 567 0 l 551 75 l 546 75 q 433 10 494 36 q 306 -17 372 -17 m 376 154 q 458 172 421 154 q 526 214 494 189 l 526 314 q 382 297 433 311 q 311 260 331 282 q 292 213 292 239 q 302 180 292 193 q 331 160 313 167 q 376 154 350 154 z "},"b":{"ha":833,"x_min":94,"x_max":772,"o":"m 475 -17 q 379 6 426 -17 q 290 75 332 29 l 286 75 l 268 0 l 94 0 l 94 969 l 317 969 l 317 739 l 308 635 l 314 635 q 399 689 351 669 q 494 708 446 708 q 642 665 581 708 q 738 543 704 621 q 772 358 772 465 q 729 155 772 239 q 619 27 686 71 q 475 -17 551 -17 m 422 164 q 483 183 456 164 q 528 243 511 201 q 544 354 544 285 q 532 452 544 414 q 494 509 519 490 q 429 528 469 528 q 372 515 400 528 q 317 471 344 501 l 317 204 q 369 173 342 182 q 422 164 397 164 z "},"c":{"ha":833,"x_min":89,"x_max":761,"o":"m 476 -17 q 279 26 367 -17 q 140 150 192 69 q 89 346 89 231 q 145 542 89 461 q 294 665 201 622 q 492 708 386 708 q 642 683 575 708 q 753 615 710 657 l 651 479 q 577 519 613 507 q 506 531 542 531 q 407 508 450 531 q 340 443 364 485 q 317 346 317 401 q 340 248 317 289 q 403 184 363 207 q 497 161 444 161 q 594 181 550 161 q 674 224 638 200 l 761 85 q 622 8 699 32 q 476 -17 546 -17 z "},"d":{"ha":833,"x_min":61,"x_max":739,"o":"m 353 -17 q 141 81 221 -17 q 61 346 61 178 q 104 540 61 460 q 214 665 147 621 q 354 708 281 708 q 451 690 411 708 q 522 636 490 671 l 528 636 l 517 740 l 517 969 l 739 969 l 739 0 l 558 0 l 543 67 l 538 67 q 451 8 500 32 q 353 -17 401 -17 m 410 164 q 468 176 442 164 q 517 221 494 189 l 517 488 q 467 519 493 511 q 414 528 442 528 q 351 510 381 528 q 306 451 322 492 q 289 349 289 411 q 321 208 289 251 q 410 164 353 164 z "},"e":{"ha":833,"x_min":74,"x_max":761,"o":"m 458 -17 q 263 26 350 -17 q 124 150 175 69 q 74 346 74 231 q 125 540 74 460 q 259 665 176 621 q 435 708 342 708 q 615 664 542 708 q 724 544 688 619 q 761 375 761 468 q 758 319 761 346 q 753 279 756 292 l 239 279 l 239 425 l 600 425 l 568 385 q 536 501 568 461 q 442 540 504 540 q 359 519 393 540 q 306 455 325 499 q 288 346 288 411 q 310 235 288 278 q 378 172 333 192 q 489 151 424 151 q 574 163 533 151 q 661 196 615 174 l 733 64 q 600 5 674 26 q 458 -17 526 -17 z "},"f":{"ha":833,"x_min":108,"x_max":815,"o":"m 289 0 l 289 703 q 322 845 289 781 q 424 948 354 910 q 604 986 493 986 q 718 975 664 986 q 815 950 772 964 l 772 788 q 706 807 742 800 q 632 814 669 814 q 540 788 571 814 q 510 703 510 763 l 510 0 l 289 0 m 108 518 l 108 683 l 296 692 l 738 692 l 738 518 l 108 518 z "},"g":{"ha":833,"x_min":67,"x_max":797,"o":"m 379 -290 q 221 -272 292 -290 q 108 -216 150 -254 q 67 -115 67 -178 q 94 -39 67 -72 q 172 21 121 -6 l 172 26 q 124 73 144 44 q 103 144 103 101 q 126 214 103 179 q 186 274 150 249 l 186 279 q 121 351 149 306 q 93 457 93 397 q 135 597 93 542 q 247 681 178 653 q 394 708 315 708 q 510 692 460 708 l 790 692 l 790 531 l 658 531 q 676 495 668 517 q 683 450 683 474 q 645 318 683 369 q 542 242 607 267 q 394 218 476 218 q 352 221 375 218 q 303 231 329 224 q 283 210 289 219 q 276 185 276 201 q 303 150 276 161 q 390 139 331 139 l 513 139 q 723 97 649 139 q 797 -39 797 56 q 746 -169 797 -112 q 601 -258 694 -225 q 379 -290 507 -290 m 394 351 q 442 363 421 351 q 476 399 463 375 q 489 457 489 422 q 476 515 489 492 q 442 549 463 538 q 394 561 421 561 q 348 549 369 561 q 314 515 326 538 q 301 457 301 492 q 314 399 301 422 q 348 363 326 375 q 394 351 369 351 m 413 -151 q 503 -142 464 -151 q 564 -116 542 -133 q 586 -78 586 -99 q 557 -39 586 -47 q 472 -31 528 -31 l 393 -31 q 331 -28 354 -31 q 289 -21 307 -26 q 256 -49 267 -36 q 246 -81 246 -62 q 292 -134 246 -117 q 413 -151 338 -151 z "},"h":{"ha":833,"x_min":94,"x_max":754,"o":"m 94 0 l 94 969 l 317 969 l 317 739 l 303 611 l 308 611 q 400 678 344 647 q 532 708 456 708 q 701 633 649 708 q 754 426 754 557 l 754 0 l 532 0 l 532 399 q 513 490 532 461 q 442 519 493 519 q 376 503 404 519 q 317 458 349 488 l 317 0 l 94 0 z "},"i":{"ha":833,"x_min":106,"x_max":622,"o":"m 376 0 l 376 518 l 106 518 l 106 692 l 599 692 l 599 0 l 376 0 m 479 793 q 376 829 417 793 q 335 925 335 865 q 376 1022 335 985 q 479 1058 417 1058 q 583 1022 542 1058 q 624 925 624 985 q 583 829 624 865 q 479 793 542 793 z "},"j":{"ha":833,"x_min":56,"x_max":622,"o":"m 271 -267 q 152 -253 204 -267 q 56 -219 100 -240 l 118 -62 q 195 -87 163 -81 q 256 -93 228 -93 q 328 -79 303 -93 q 365 -35 354 -65 q 376 44 376 -4 l 376 518 l 106 518 l 106 692 l 599 692 l 599 53 q 583 -69 599 -11 q 530 -171 567 -126 q 430 -241 493 -215 q 271 -267 367 -267 m 479 793 q 376 829 417 793 q 335 925 335 865 q 376 1022 335 985 q 479 1058 417 1058 q 583 1022 542 1058 q 624 925 624 985 q 583 829 624 865 q 479 793 542 793 z "},"k":{"ha":833,"x_min":97,"x_max":817,"o":"m 97 0 l 97 969 l 318 969 l 318 429 l 324 429 l 557 692 l 797 692 l 318 171 l 318 0 l 97 0 m 576 0 l 389 304 l 515 440 l 817 0 l 576 0 z "},"l":{"ha":833,"x_min":64,"x_max":757,"o":"m 546 -17 q 343 65 411 -17 q 275 278 275 146 l 275 797 l 64 797 l 64 969 l 496 969 l 496 269 q 531 185 496 208 q 604 161 565 161 q 652 167 628 161 q 708 183 676 172 l 757 19 q 658 -7 703 3 q 546 -17 613 -17 z "},"m":{"ha":833,"x_min":42,"x_max":801,"o":"m 42 0 l 42 692 l 208 692 l 224 607 l 229 607 q 283 678 247 649 q 378 708 318 708 q 452 680 421 708 q 496 596 483 651 q 550 675 513 642 q 646 708 588 708 q 761 648 721 708 q 801 483 801 588 l 801 0 l 592 0 l 592 468 q 561 519 592 519 q 532 506 544 519 q 507 460 519 492 l 507 0 l 336 0 l 336 468 q 328 507 336 494 q 303 519 321 519 q 276 506 288 519 q 251 460 264 492 l 251 0 l 42 0 z "},"n":{"ha":833,"x_min":94,"x_max":754,"o":"m 94 0 l 94 692 l 275 692 l 290 604 l 296 604 q 397 677 339 646 q 532 708 454 708 q 701 633 647 708 q 754 426 754 557 l 754 0 l 532 0 l 532 399 q 513 490 532 461 q 442 519 493 519 q 376 503 404 519 q 317 458 349 488 l 317 0 l 94 0 z "},"o":{"ha":833,"x_min":61,"x_max":772,"o":"m 417 -17 q 244 26 325 -17 q 112 150 163 69 q 61 346 61 231 q 112 542 61 461 q 244 665 163 622 q 417 708 325 708 q 590 665 508 708 q 722 542 671 622 q 772 346 772 461 q 722 150 772 231 q 590 26 671 69 q 417 -17 508 -17 m 417 161 q 488 184 460 161 q 531 248 517 207 q 544 346 544 289 q 531 443 544 401 q 488 508 517 485 q 417 531 460 531 q 345 508 374 531 q 303 443 317 485 q 289 346 289 401 q 303 248 289 289 q 345 184 317 207 q 417 161 374 161 z "},"p":{"ha":833,"x_min":94,"x_max":772,"o":"m 94 -250 l 94 692 l 275 692 l 290 625 l 296 625 q 390 685 338 663 q 496 708 442 708 q 643 665 582 708 q 738 542 704 621 q 772 357 772 464 q 729 154 772 238 q 619 27 686 71 q 474 -17 551 -17 q 388 2 429 -17 q 311 56 346 21 l 306 56 l 317 -53 l 317 -250 l 94 -250 m 422 164 q 483 183 456 164 q 528 243 511 201 q 544 354 544 285 q 532 452 544 414 q 494 509 519 490 q 429 528 469 528 q 372 515 400 528 q 317 471 344 501 l 317 204 q 369 173 342 182 q 422 164 397 164 z "},"q":{"ha":833,"x_min":61,"x_max":739,"o":"m 517 -250 l 517 -51 l 528 57 l 522 57 q 444 4 490 25 q 351 -17 399 -17 q 141 81 221 -17 q 61 346 61 178 q 104 540 61 460 q 214 665 147 621 q 354 708 281 708 q 457 688 413 708 q 543 622 501 667 l 547 622 l 565 692 l 739 692 l 739 -250 l 517 -250 m 410 164 q 468 176 442 164 q 517 221 494 189 l 517 488 q 467 519 493 511 q 414 528 442 528 q 351 510 381 528 q 306 451 322 492 q 289 349 289 411 q 321 208 289 251 q 410 164 353 164 z "},"r":{"ha":833,"x_min":153,"x_max":764,"o":"m 153 0 l 153 692 l 335 692 l 351 543 l 357 543 q 479 668 407 628 q 632 708 551 708 q 707 701 679 708 q 764 681 735 693 l 719 494 q 663 510 689 506 q 599 515 636 515 q 476 478 536 515 q 374 351 417 442 l 374 0 l 153 0 z "},"s":{"ha":833,"x_min":69,"x_max":754,"o":"m 407 -17 q 226 15 317 -17 q 69 89 135 46 l 163 226 q 297 167 226 188 q 438 146 367 146 q 512 160 489 146 q 535 197 535 175 q 527 219 535 210 q 502 237 519 229 q 453 251 485 244 q 375 269 422 258 q 173 354 233 300 q 113 488 113 408 q 199 648 113 588 q 436 708 286 708 q 608 678 532 708 q 740 613 685 647 l 642 481 q 529 529 588 513 q 415 546 471 546 q 370 540 389 546 q 342 524 351 535 q 332 499 332 513 q 366 463 332 474 q 483 432 400 453 q 648 378 589 408 q 731 308 707 349 q 754 210 754 267 q 715 94 754 146 q 598 13 675 43 q 407 -17 521 -17 z "},"t":{"ha":833,"x_min":64,"x_max":765,"o":"m 538 -17 q 360 22 426 -17 q 263 129 293 60 q 233 290 233 199 l 233 518 l 64 518 l 64 683 l 243 692 l 272 901 l 456 901 l 456 692 l 738 692 l 738 518 l 456 518 l 456 293 q 471 213 456 243 q 517 169 486 182 q 594 157 547 157 q 665 163 632 157 q 726 181 697 169 l 765 19 q 663 -5 719 7 q 538 -17 607 -17 z "},"u":{"ha":833,"x_min":82,"x_max":733,"o":"m 303 -17 q 134 60 186 -17 q 82 265 82 136 l 82 692 l 303 692 l 303 293 q 322 201 303 231 q 393 172 340 172 q 455 186 428 172 q 513 242 482 200 l 513 692 l 733 692 l 733 0 l 553 0 l 538 96 l 532 96 q 433 14 488 44 q 303 -17 378 -17 z "},"v":{"ha":833,"x_min":39,"x_max":794,"o":"m 293 0 l 39 692 l 260 692 l 360 378 q 390 273 376 326 q 419 164 404 219 l 425 164 q 454 273 440 219 q 483 378 468 326 l 583 692 l 794 692 l 547 0 l 293 0 z "},"w":{"ha":833,"x_min":4,"x_max":829,"o":"m 111 0 l 4 692 l 218 692 l 253 386 q 265 283 260 335 q 275 179 269 232 l 279 179 q 292 284 285 232 q 310 386 300 336 l 344 590 l 499 590 l 538 386 q 556 283 547 335 q 569 179 564 232 l 575 179 q 585 283 583 232 q 593 386 588 335 l 624 692 l 829 692 l 731 0 l 474 0 l 443 206 q 431 301 438 251 q 419 410 425 351 l 414 410 q 406 324 410 371 q 393 206 401 276 l 363 0 l 111 0 z "},"x":{"ha":833,"x_min":44,"x_max":788,"o":"m 44 0 l 281 360 l 60 692 l 297 692 l 361 588 q 395 528 376 558 q 431 468 414 497 l 436 468 q 463 528 449 497 q 489 588 478 558 l 543 692 l 774 692 l 551 335 l 788 0 l 550 0 l 478 106 q 440 165 460 135 q 401 225 419 196 l 396 225 q 365 166 381 196 q 336 106 350 136 l 275 0 l 44 0 z "},"y":{"ha":833,"x_min":39,"x_max":797,"o":"m 201 -265 q 143 -261 171 -265 q 93 -251 115 -257 l 132 -83 q 159 -90 146 -87 q 183 -92 172 -92 q 274 -69 242 -92 q 321 -12 306 -47 l 333 21 l 39 692 l 257 692 l 364 410 q 399 309 382 361 q 429 201 415 257 l 435 201 q 465 306 449 253 q 497 410 481 360 l 589 692 l 797 692 l 532 1 q 454 -147 497 -87 q 351 -236 411 -207 q 201 -265 290 -265 z "},"z":{"ha":833,"x_min":97,"x_max":753,"o":"m 97 0 l 97 118 l 436 518 l 138 518 l 138 692 l 744 692 l 744 574 l 403 174 l 753 174 l 753 0 l 97 0 z "},"À":{"ha":833,"x_min":6,"x_max":828,"o":"m 6 0 l 283 904 l 550 904 l 828 0 l 593 0 l 483 449 q 449 592 468 515 q 414 738 431 668 l 408 738 q 377 592 394 668 q 343 449 360 515 l 233 0 l 6 0 m 197 204 l 197 375 l 633 375 l 633 204 l 197 204 m 469 940 l 207 1106 l 324 1249 l 568 1051 l 469 940 z "},"Á":{"ha":833,"x_min":6,"x_max":828,"o":"m 6 0 l 283 904 l 550 904 l 828 0 l 593 0 l 483 449 q 449 592 468 515 q 414 738 431 668 l 408 738 q 377 592 394 668 q 343 449 360 515 l 233 0 l 6 0 m 197 204 l 197 375 l 633 375 l 633 204 l 197 204 m 364 940 l 265 1051 l 510 1249 l 626 1106 l 364 940 z "},"Â":{"ha":833,"x_min":6,"x_max":828,"o":"m 6 0 l 283 904 l 550 904 l 828 0 l 593 0 l 483 449 q 449 592 468 515 q 414 738 431 668 l 408 738 q 377 592 394 668 q 343 449 360 515 l 233 0 l 6 0 m 197 204 l 197 375 l 633 375 l 633 204 l 197 204 m 271 949 l 175 1006 l 296 1160 l 538 1160 l 658 1006 l 563 949 l 419 1061 l 414 1061 l 271 949 z "},"Ã":{"ha":833,"x_min":6,"x_max":828,"o":"m 6 0 l 283 904 l 550 904 l 828 0 l 593 0 l 483 449 q 449 592 468 515 q 414 738 431 668 l 408 738 q 377 592 394 668 q 343 449 360 515 l 233 0 l 6 0 m 197 204 l 197 375 l 633 375 l 633 204 l 197 204 m 515 957 q 450 969 478 957 q 400 995 422 981 q 360 1022 378 1010 q 326 1033 343 1033 q 295 1020 308 1033 q 278 969 282 1007 l 136 981 q 194 1138 143 1090 q 318 1186 244 1186 q 384 1174 356 1186 q 435 1148 413 1163 q 474 1122 457 1133 q 507 1110 492 1110 q 538 1124 525 1110 q 556 1174 550 1138 l 697 1163 q 640 1006 692 1054 q 515 957 589 957 z "},"Ä":{"ha":833,"x_min":6,"x_max":828,"o":"m 6 0 l 283 904 l 550 904 l 828 0 l 593 0 l 483 449 q 449 592 468 515 q 414 738 431 668 l 408 738 q 377 592 394 668 q 343 449 360 515 l 233 0 l 6 0 m 197 204 l 197 375 l 633 375 l 633 204 l 197 204 m 258 968 q 181 999 211 968 q 150 1076 150 1031 q 181 1153 150 1122 q 258 1183 211 1183 q 335 1153 306 1183 q 365 1076 365 1122 q 335 999 365 1031 q 258 968 306 968 m 575 968 q 498 999 528 968 q 468 1076 468 1031 q 498 1153 468 1122 q 575 1183 528 1183 q 653 1153 622 1183 q 683 1076 683 1122 q 653 999 683 1031 q 575 968 622 968 z "},"Ā":{"ha":833,"x_min":6,"x_max":828,"o":"m 6 0 l 283 904 l 550 904 l 828 0 l 593 0 l 483 449 q 449 592 468 515 q 414 738 431 668 l 408 738 q 377 592 394 668 q 343 449 360 515 l 233 0 l 6 0 m 197 204 l 197 375 l 633 375 l 633 204 l 197 204 m 201 999 l 201 1139 l 632 1139 l 632 999 l 201 999 z "},"Ă":{"ha":833,"x_min":6,"x_max":828,"o":"m 6 0 l 283 904 l 550 904 l 828 0 l 593 0 l 483 449 q 449 592 468 515 q 414 738 431 668 l 408 738 q 377 592 394 668 q 343 449 360 515 l 233 0 l 6 0 m 197 204 l 197 375 l 633 375 l 633 204 l 197 204 m 417 967 q 298 988 347 967 q 220 1051 249 1008 q 185 1158 192 1094 l 306 1179 q 343 1115 314 1138 q 417 1093 372 1093 q 490 1115 461 1093 q 528 1179 519 1138 l 649 1158 q 613 1051 642 1094 q 535 988 585 1008 q 417 967 486 967 z "},"Å":{"ha":833,"x_min":6,"x_max":828,"o":"m 6 0 l 283 904 l 550 904 l 828 0 l 593 0 l 483 449 q 449 592 468 515 q 414 738 431 668 l 408 738 q 377 592 394 668 q 343 449 360 515 l 233 0 l 6 0 m 197 204 l 197 375 l 633 375 l 633 204 l 197 204 m 417 967 q 299 1006 344 967 q 254 1107 254 1044 q 299 1208 254 1171 q 417 1246 344 1246 q 534 1208 489 1246 q 579 1107 579 1171 q 534 1006 579 1044 q 417 967 489 967 m 417 1049 q 456 1065 440 1049 q 472 1107 472 1081 q 456 1149 472 1133 q 417 1165 440 1165 q 377 1149 393 1165 q 361 1107 361 1133 q 377 1065 361 1081 q 417 1049 393 1049 z "},"Ǻ":{"ha":833,"x_min":6,"x_max":828,"o":"m 367 1174 l 299 1206 l 521 1408 l 610 1288 l 367 1174 m 6 0 l 283 904 l 550 904 l 828 0 l 593 0 l 483 449 q 449 592 468 515 q 414 738 431 668 l 408 738 q 377 592 394 668 q 343 449 360 515 l 233 0 l 6 0 m 197 204 l 197 375 l 633 375 l 633 204 l 197 204 m 417 967 q 299 1006 344 967 q 254 1107 254 1044 q 299 1208 254 1171 q 417 1246 344 1246 q 534 1208 489 1246 q 579 1107 579 1171 q 534 1006 579 1044 q 417 967 489 967 m 417 1049 q 456 1065 440 1049 q 472 1107 472 1081 q 456 1149 472 1133 q 417 1165 440 1165 q 377 1149 393 1165 q 361 1107 361 1133 q 377 1065 361 1081 q 417 1049 393 1049 z "},"Ǎ":{"ha":833,"x_min":6,"x_max":828,"o":"m 6 0 l 283 904 l 550 904 l 828 0 l 593 0 l 483 449 q 449 592 468 515 q 414 738 431 668 l 408 738 q 377 592 394 668 q 343 449 360 515 l 233 0 l 6 0 m 197 204 l 197 375 l 633 375 l 633 204 l 197 204 m 296 974 l 175 1126 l 271 1185 l 414 1071 l 419 1071 l 563 1185 l 658 1126 l 538 974 l 296 974 z "},"Ą":{"ha":833,"x_min":6,"x_max":856,"o":"m 703 -317 q 585 -281 633 -317 q 536 -182 536 -244 q 556 -100 536 -136 q 603 -38 576 -64 q 654 0 631 -12 l 593 0 l 483 449 q 449 592 467 515 q 414 738 431 668 l 408 738 q 377 592 394 668 q 343 449 360 515 l 233 0 l 6 0 l 283 904 l 550 904 l 828 0 q 733 -41 768 -3 q 697 -122 697 -79 q 713 -160 697 -147 q 750 -174 729 -174 q 781 -167 767 -174 q 806 -153 796 -160 l 856 -264 q 785 -301 828 -286 q 703 -317 743 -317 m 196 204 l 196 375 l 635 375 l 635 204 l 196 204 z "},"Ạ":{"ha":833,"x_min":6,"x_max":828,"o":"m 6 0 l 283 904 l 550 904 l 828 0 l 593 0 l 483 449 q 449 592 468 515 q 414 738 431 668 l 408 738 q 377 592 394 668 q 343 449 360 515 l 233 0 l 6 0 m 197 204 l 197 375 l 633 375 l 633 204 l 197 204 z "},"Ả":{"ha":833,"x_min":6,"x_max":828,"o":"m 6 0 l 283 904 l 550 904 l 828 0 l 593 0 l 483 449 q 449 592 468 515 q 414 738 431 668 l 408 738 q 377 592 394 668 q 343 449 360 515 l 233 0 l 6 0 m 197 204 l 197 375 l 633 375 l 633 204 l 197 204 m 353 957 l 338 1044 q 379 1056 363 1047 q 396 1082 396 1064 q 372 1110 396 1100 q 286 1125 347 1121 l 313 1235 q 456 1215 403 1232 q 532 1170 510 1199 q 554 1104 554 1142 q 526 1024 554 1056 q 453 977 499 993 q 353 957 408 961 z "},"Ấ":{"ha":833,"x_min":6,"x_max":828,"o":"m 6 0 l 283 904 l 550 904 l 828 0 l 593 0 l 483 449 q 449 592 468 515 q 414 738 431 668 l 408 738 q 377 592 394 668 q 343 449 360 515 l 233 0 l 6 0 m 197 204 l 197 375 l 633 375 l 633 204 l 197 204 m 286 949 l 199 1006 l 321 1147 l 513 1147 l 635 1006 l 547 949 l 419 1047 l 414 1047 l 286 949 m 636 1054 l 571 1126 l 711 1246 l 782 1157 l 636 1054 z "},"Ầ":{"ha":833,"x_min":6,"x_max":828,"o":"m 6 0 l 283 904 l 550 904 l 828 0 l 593 0 l 483 449 q 449 592 468 515 q 414 738 431 668 l 408 738 q 377 592 394 668 q 343 449 360 515 l 233 0 l 6 0 m 197 204 l 197 375 l 633 375 l 633 204 l 197 204 m 286 949 l 199 1006 l 321 1147 l 513 1147 l 635 1006 l 547 949 l 419 1047 l 414 1047 l 286 949 m 197 1054 l 53 1157 l 125 1246 l 263 1126 l 197 1054 z "},"Ẩ":{"ha":833,"x_min":6,"x_max":828,"o":"m 6 0 l 283 904 l 550 904 l 828 0 l 593 0 l 483 449 q 449 592 468 515 q 414 738 431 668 l 408 738 q 377 592 394 668 q 343 449 360 515 l 233 0 l 6 0 m 197 204 l 197 375 l 633 375 l 633 204 l 197 204 m 286 949 l 199 1006 l 321 1147 l 513 1147 l 635 1006 l 547 949 l 419 1047 l 414 1047 l 286 949 m 614 1040 l 597 1108 q 627 1120 615 1113 q 639 1144 639 1128 q 620 1174 639 1163 q 549 1188 601 1185 l 569 1278 q 696 1260 650 1275 q 760 1219 742 1244 q 779 1163 779 1193 q 731 1072 779 1100 q 614 1040 683 1044 z "},"Ẫ":{"ha":833,"x_min":6,"x_max":828,"o":"m 6 0 l 283 904 l 550 904 l 828 0 l 593 0 l 483 449 q 449 592 468 515 q 414 738 431 668 l 408 738 q 377 592 394 668 q 343 449 360 515 l 233 0 l 6 0 m 197 204 l 197 375 l 633 375 l 633 204 l 197 204 m 286 949 l 199 1006 l 321 1135 l 513 1135 l 635 1006 l 547 949 l 419 1035 l 414 1035 l 286 949 m 499 1164 q 449 1173 471 1164 q 409 1194 426 1182 q 377 1215 392 1206 q 350 1224 363 1224 q 322 1212 332 1224 q 307 1172 311 1200 l 203 1185 q 221 1276 204 1242 q 267 1326 238 1310 q 335 1343 296 1343 q 385 1334 363 1343 q 424 1314 407 1325 q 456 1293 442 1303 q 483 1283 471 1283 q 512 1296 501 1283 q 526 1336 522 1308 l 631 1322 q 613 1233 629 1268 q 567 1181 596 1197 q 499 1164 538 1164 z "},"Ậ":{"ha":833,"x_min":6,"x_max":828,"o":"m 6 0 l 283 904 l 550 904 l 828 0 l 593 0 l 483 449 q 449 592 468 515 q 414 738 431 668 l 408 738 q 377 592 394 668 q 343 449 360 515 l 233 0 l 6 0 m 197 204 l 197 375 l 633 375 l 633 204 l 197 204 m 271 949 l 175 1006 l 296 1160 l 538 1160 l 658 1006 l 563 949 l 419 1061 l 414 1061 l 271 949 z "},"Ắ":{"ha":833,"x_min":6,"x_max":828,"o":"m 6 0 l 283 904 l 550 904 l 828 0 l 593 0 l 483 449 q 449 592 468 515 q 414 738 431 668 l 408 738 q 377 592 394 668 q 343 449 360 515 l 233 0 l 6 0 m 197 204 l 197 375 l 633 375 l 633 204 l 197 204 m 417 967 q 298 988 347 967 q 220 1051 249 1008 q 185 1158 192 1094 l 292 1179 q 335 1106 303 1132 q 417 1081 368 1081 q 498 1106 465 1081 q 542 1179 531 1132 l 649 1158 q 613 1051 642 1094 q 535 988 585 1008 q 417 967 486 967 m 443 1119 l 335 1189 l 468 1383 l 606 1300 l 443 1119 z "},"Ằ":{"ha":833,"x_min":6,"x_max":828,"o":"m 6 0 l 283 904 l 550 904 l 828 0 l 593 0 l 483 449 q 449 592 468 515 q 414 738 431 668 l 408 738 q 377 592 394 668 q 343 449 360 515 l 233 0 l 6 0 m 197 204 l 197 375 l 633 375 l 633 204 l 197 204 m 417 967 q 298 988 347 967 q 220 1051 249 1008 q 185 1158 192 1094 l 292 1179 q 335 1106 303 1132 q 417 1081 368 1081 q 498 1106 465 1081 q 542 1179 531 1132 l 649 1158 q 613 1051 642 1094 q 535 988 585 1008 q 417 967 486 967 m 390 1119 l 228 1300 l 365 1383 l 499 1189 l 390 1119 z "},"Ẳ":{"ha":833,"x_min":6,"x_max":828,"o":"m 6 0 l 283 904 l 550 904 l 828 0 l 593 0 l 483 449 q 449 592 468 515 q 414 738 431 668 l 408 738 q 377 592 394 668 q 343 449 360 515 l 233 0 l 6 0 m 197 204 l 197 375 l 633 375 l 633 204 l 197 204 m 417 967 q 298 988 347 967 q 220 1051 249 1008 q 185 1158 192 1094 l 292 1179 q 335 1106 303 1132 q 417 1081 368 1081 q 498 1106 465 1081 q 542 1179 531 1132 l 649 1158 q 613 1051 642 1094 q 535 988 585 1008 q 417 967 486 967 m 369 1121 l 353 1189 q 383 1201 371 1193 q 394 1225 394 1208 q 376 1254 394 1243 q 304 1268 357 1265 l 325 1358 q 451 1340 406 1356 q 516 1300 497 1325 q 535 1243 535 1275 q 487 1153 535 1182 q 369 1121 439 1125 z "},"Ẵ":{"ha":833,"x_min":6,"x_max":828,"o":"m 6 0 l 283 904 l 550 904 l 828 0 l 593 0 l 483 449 q 449 592 468 515 q 414 738 431 668 l 408 738 q 377 592 394 668 q 343 449 360 515 l 233 0 l 6 0 m 197 204 l 197 375 l 633 375 l 633 204 l 197 204 m 417 974 q 300 992 347 974 q 227 1047 253 1011 q 196 1131 201 1082 l 300 1149 q 335 1099 310 1121 q 417 1078 361 1078 q 498 1099 472 1078 q 533 1149 524 1121 l 638 1131 q 606 1047 632 1082 q 533 992 581 1011 q 417 974 486 974 m 499 1176 q 449 1186 471 1176 q 409 1207 426 1196 q 377 1227 392 1218 q 350 1236 363 1236 q 322 1224 332 1236 q 307 1185 311 1213 l 203 1197 q 221 1288 204 1254 q 267 1340 238 1322 q 335 1357 296 1357 q 385 1347 363 1357 q 424 1326 407 1338 q 456 1306 442 1315 q 483 1296 471 1296 q 512 1309 501 1296 q 526 1349 522 1322 l 631 1336 q 613 1245 629 1281 q 567 1193 596 1210 q 499 1176 538 1176 z "},"Ặ":{"ha":833,"x_min":6,"x_max":828,"o":"m 6 0 l 283 904 l 550 904 l 828 0 l 593 0 l 483 449 q 449 592 468 515 q 414 738 431 668 l 408 738 q 377 592 394 668 q 343 449 360 515 l 233 0 l 6 0 m 197 204 l 197 375 l 633 375 l 633 204 l 197 204 m 417 967 q 298 988 347 967 q 220 1051 249 1008 q 185 1158 192 1094 l 306 1179 q 343 1115 314 1138 q 417 1093 372 1093 q 490 1115 461 1093 q 528 1179 519 1138 l 649 1158 q 613 1051 642 1094 q 535 988 585 1008 q 417 967 486 967 z "},"Æ":{"ha":833,"x_min":-6,"x_max":826,"o":"m -6 0 l 285 904 l 815 904 l 815 718 l 626 718 l 626 558 l 782 558 l 782 374 l 626 374 l 626 186 l 826 186 l 826 0 l 431 0 l 431 739 l 426 739 q 393 609 411 672 q 360 489 375 546 l 222 0 l -6 0 m 185 194 l 185 367 l 514 367 l 514 194 l 185 194 z "},"Ǽ":{"ha":833,"x_min":-6,"x_max":826,"o":"m -6 0 l 285 904 l 815 904 l 815 718 l 626 718 l 626 558 l 782 558 l 782 374 l 626 374 l 626 186 l 826 186 l 826 0 l 431 0 l 431 739 l 426 739 q 393 609 411 672 q 360 489 375 546 l 222 0 l -6 0 m 185 194 l 185 367 l 514 367 l 514 194 l 185 194 m 483 940 l 385 1051 l 629 1249 l 746 1106 l 483 940 z "},"Ǣ":{"ha":833,"x_min":-6,"x_max":826,"o":"m -6 0 l 285 904 l 815 904 l 815 718 l 626 718 l 626 558 l 782 558 l 782 374 l 626 374 l 626 186 l 826 186 l 826 0 l 431 0 l 431 739 l 426 739 q 393 609 411 672 q 360 489 375 546 l 222 0 l -6 0 m 185 194 l 185 367 l 514 367 l 514 194 l 185 194 m 321 999 l 321 1139 l 751 1139 l 751 999 l 321 999 z "},"Ƀ":{"ha":833,"x_min":7,"x_max":786,"o":"m 111 0 l 111 904 l 410 904 q 580 884 504 904 q 699 817 656 864 q 743 686 743 769 q 707 579 743 631 q 592 508 671 528 l 592 503 q 737 428 688 483 q 786 279 786 374 q 740 120 786 182 q 614 29 693 58 q 438 0 535 0 l 111 0 m 7 239 l 7 339 l 114 347 l 471 347 l 471 239 l 7 239 m 333 160 l 421 160 q 531 194 496 160 q 567 296 567 229 q 532 394 567 364 q 421 424 497 424 l 333 424 l 333 160 m 333 557 l 403 557 q 499 583 468 557 q 531 658 531 608 q 499 725 531 706 q 403 744 468 744 l 333 744 l 333 557 z "},"Ḇ":{"ha":833,"x_min":96,"x_max":785,"o":"m 96 0 l 96 904 l 408 904 q 579 884 503 904 q 700 815 656 864 q 744 679 744 767 q 707 563 744 619 q 590 485 669 506 l 590 479 q 736 409 688 461 q 785 267 785 357 q 738 115 785 174 q 613 28 692 56 q 436 0 533 0 l 96 0 m 317 544 l 401 544 q 498 572 468 544 q 528 647 528 600 q 497 713 528 693 q 403 732 467 732 l 317 732 l 317 544 m 317 171 l 419 171 q 532 199 496 171 q 568 285 568 228 q 533 363 568 339 q 419 388 497 388 l 317 388 l 317 171 z "},"Ç":{"ha":833,"x_min":72,"x_max":796,"o":"m 496 -17 q 335 13 411 -17 q 199 99 258 42 q 106 244 140 157 q 72 446 72 331 q 131 703 72 597 q 289 865 190 810 q 510 921 388 921 q 667 885 596 921 q 783 804 738 850 l 661 668 q 594 713 631 697 q 510 729 557 729 q 402 697 450 729 q 327 602 354 664 q 300 454 300 540 q 327 303 300 365 q 404 208 354 240 q 519 175 454 175 q 604 197 565 175 q 674 250 643 218 l 796 117 q 664 17 740 50 q 496 -17 588 -17 m 328 -336 l 313 -249 q 422 -231 392 -244 q 453 -189 453 -218 q 432 -154 453 -168 q 347 -132 411 -140 l 419 15 l 546 15 l 503 -85 q 584 -120 557 -96 q 611 -189 611 -144 q 536 -296 611 -261 q 328 -336 461 -331 z "},"Ć":{"ha":833,"x_min":72,"x_max":796,"o":"m 496 -17 q 335 13 411 -17 q 199 99 258 42 q 106 244 140 157 q 72 446 72 331 q 131 703 72 597 q 289 865 190 810 q 510 921 388 921 q 667 885 596 921 q 783 804 738 850 l 661 668 q 594 713 631 697 q 510 729 557 729 q 402 697 450 729 q 327 602 354 664 q 300 454 300 540 q 327 303 300 365 q 404 208 354 240 q 519 175 454 175 q 604 197 565 175 q 674 250 643 218 l 796 117 q 664 17 740 50 q 496 -17 588 -17 m 440 940 l 342 1051 l 586 1249 l 703 1106 l 440 940 z "},"Ĉ":{"ha":833,"x_min":72,"x_max":796,"o":"m 496 -17 q 335 13 411 -17 q 199 99 258 42 q 106 244 140 157 q 72 446 72 331 q 131 703 72 597 q 289 865 190 810 q 510 921 388 921 q 667 885 596 921 q 783 804 738 850 l 661 668 q 594 713 631 697 q 510 729 557 729 q 402 697 450 729 q 327 602 354 664 q 300 454 300 540 q 327 303 300 365 q 404 208 354 240 q 519 175 454 175 q 604 197 565 175 q 674 250 643 218 l 796 117 q 664 17 740 50 q 496 -17 588 -17 m 347 949 l 251 1006 l 372 1160 l 614 1160 l 735 1006 l 639 949 l 496 1061 l 490 1061 l 347 949 z "},"Č":{"ha":833,"x_min":72,"x_max":796,"o":"m 496 -17 q 335 13 411 -17 q 199 99 258 42 q 106 244 140 157 q 72 446 72 331 q 131 703 72 597 q 289 865 190 810 q 510 921 388 921 q 667 885 596 921 q 783 804 738 850 l 661 668 q 594 713 631 697 q 510 729 557 729 q 402 697 450 729 q 327 602 354 664 q 300 454 300 540 q 327 303 300 365 q 404 208 354 240 q 519 175 454 175 q 604 197 565 175 q 674 250 643 218 l 796 117 q 664 17 740 50 q 496 -17 588 -17 m 372 974 l 251 1126 l 347 1185 l 490 1071 l 496 1071 l 639 1185 l 735 1126 l 614 974 l 372 974 z "},"Ċ":{"ha":833,"x_min":72,"x_max":796,"o":"m 496 -17 q 335 13 411 -17 q 199 99 258 42 q 106 244 140 157 q 72 446 72 331 q 131 703 72 597 q 289 865 190 810 q 510 921 388 921 q 667 885 596 921 q 783 804 738 850 l 661 668 q 594 713 631 697 q 510 729 557 729 q 402 697 450 729 q 327 602 354 664 q 300 454 300 540 q 327 303 300 365 q 404 208 354 240 q 519 175 454 175 q 604 197 565 175 q 674 250 643 218 l 796 117 q 664 17 740 50 q 496 -17 588 -17 m 493 969 q 397 1004 435 969 q 360 1093 360 1039 q 397 1183 360 1149 q 493 1217 435 1217 q 589 1183 551 1217 q 626 1093 626 1149 q 589 1004 626 1039 q 493 969 551 969 z "},"Ď":{"ha":833,"x_min":93,"x_max":786,"o":"m 93 0 l 93 904 l 349 904 q 577 858 479 904 q 731 713 675 811 q 786 456 786 614 q 731 197 786 299 q 581 48 676 96 q 361 0 485 0 l 93 0 m 315 178 l 336 178 q 451 203 401 178 q 530 289 501 229 q 558 456 558 349 q 530 621 558 563 q 451 703 501 679 q 336 726 401 726 l 315 726 l 315 178 m 296 974 l 175 1126 l 271 1185 l 414 1071 l 419 1071 l 563 1185 l 658 1126 l 538 974 l 296 974 z "},"Ḍ":{"ha":833,"x_min":93,"x_max":786,"o":"m 93 0 l 93 904 l 349 904 q 577 858 479 904 q 731 713 675 811 q 786 456 786 614 q 731 197 786 299 q 581 48 676 96 q 361 0 485 0 l 93 0 m 315 178 l 336 178 q 451 203 401 178 q 530 289 501 229 q 558 456 558 349 q 530 621 558 563 q 451 703 501 679 q 336 726 401 726 l 315 726 l 315 178 z "},"Ḏ":{"ha":833,"x_min":93,"x_max":786,"o":"m 93 0 l 93 904 l 349 904 q 577 858 479 904 q 731 713 675 811 q 786 456 786 614 q 731 197 786 299 q 581 48 676 96 q 361 0 485 0 l 93 0 m 315 178 l 336 178 q 451 203 401 178 q 530 289 501 229 q 558 456 558 349 q 530 621 558 563 q 451 703 501 679 q 336 726 401 726 l 315 726 l 315 178 z "},"Ḑ":{"ha":833,"x_min":93,"x_max":786,"o":"m 93 0 l 93 904 l 349 904 q 577 858 479 904 q 731 713 675 811 q 786 456 786 614 q 731 197 786 299 q 581 48 676 96 q 361 0 485 0 l 93 0 m 315 178 l 336 178 q 451 203 401 178 q 530 289 501 229 q 558 456 558 349 q 530 621 558 563 q 451 703 501 679 q 336 726 401 726 l 315 726 l 315 178 m 244 -336 l 229 -249 q 339 -231 308 -244 q 369 -189 369 -218 q 349 -154 369 -168 q 264 -132 328 -140 l 336 15 l 463 15 l 419 -85 q 501 -120 474 -96 q 528 -189 528 -144 q 453 -296 528 -261 q 244 -336 378 -331 z "},"Đ":{"ha":833,"x_min":-3,"x_max":786,"o":"m 93 0 l 93 410 l -3 410 l -3 510 l 93 518 l 93 904 l 350 904 q 577 858 479 904 q 731 713 675 811 q 786 456 786 614 q 731 197 786 299 q 580 48 675 96 q 363 0 485 0 l 93 0 m 315 178 l 336 178 q 450 203 400 178 q 529 288 500 228 q 558 456 558 349 q 529 621 558 563 q 450 703 500 679 q 336 726 400 726 l 315 726 l 315 518 l 456 518 l 456 410 l 315 410 l 315 178 z "},"Ɗ":{"ha":833,"x_min":1,"x_max":810,"o":"m 256 0 l 256 803 l 453 803 l 453 178 l 469 178 q 540 203 510 178 q 589 292 571 229 q 607 465 607 354 q 586 632 607 572 q 525 717 565 692 q 426 742 485 742 l 336 742 q 237 724 274 742 q 183 676 200 707 q 167 608 167 646 q 183 538 167 565 q 233 490 200 510 l 154 350 q 42 444 82 386 q 1 596 1 501 q 42 763 1 690 q 168 878 82 836 q 392 921 254 921 q 617 873 524 921 q 760 724 710 825 q 810 465 810 622 q 762 200 810 303 q 630 49 714 97 q 438 0 546 0 l 256 0 z "},"È":{"ha":833,"x_min":122,"x_max":743,"o":"m 122 0 l 122 904 l 729 904 l 729 718 l 344 718 l 344 557 l 672 557 l 672 371 l 344 371 l 344 186 l 743 186 l 743 0 l 122 0 m 500 940 l 238 1106 l 354 1249 l 599 1051 l 500 940 z "},"É":{"ha":833,"x_min":122,"x_max":743,"o":"m 122 0 l 122 904 l 729 904 l 729 718 l 344 718 l 344 557 l 672 557 l 672 371 l 344 371 l 344 186 l 743 186 l 743 0 l 122 0 m 394 940 l 296 1051 l 540 1249 l 657 1106 l 394 940 z "},"Ê":{"ha":833,"x_min":122,"x_max":743,"o":"m 122 0 l 122 904 l 729 904 l 729 718 l 344 718 l 344 557 l 672 557 l 672 371 l 344 371 l 344 186 l 743 186 l 743 0 l 122 0 m 301 949 l 206 1006 l 326 1160 l 568 1160 l 689 1006 l 593 949 l 450 1061 l 444 1061 l 301 949 z "},"Ě":{"ha":833,"x_min":122,"x_max":743,"o":"m 122 0 l 122 904 l 729 904 l 729 718 l 344 718 l 344 557 l 672 557 l 672 371 l 344 371 l 344 186 l 743 186 l 743 0 l 122 0 m 326 974 l 206 1126 l 301 1185 l 444 1071 l 450 1071 l 593 1185 l 689 1126 l 568 974 l 326 974 z "},"Ë":{"ha":833,"x_min":122,"x_max":743,"o":"m 122 0 l 122 904 l 729 904 l 729 718 l 344 718 l 344 557 l 672 557 l 672 371 l 344 371 l 344 186 l 743 186 l 743 0 l 122 0 m 289 968 q 211 999 242 968 q 181 1076 181 1031 q 211 1153 181 1122 q 289 1183 242 1183 q 366 1153 336 1183 q 396 1076 396 1122 q 366 999 396 1031 q 289 968 336 968 m 606 968 q 528 999 558 968 q 499 1076 499 1031 q 528 1153 499 1122 q 606 1183 558 1183 q 683 1153 653 1183 q 714 1076 714 1122 q 683 999 714 1031 q 606 968 653 968 z "},"Ē":{"ha":833,"x_min":122,"x_max":743,"o":"m 122 0 l 122 904 l 729 904 l 729 718 l 344 718 l 344 557 l 672 557 l 672 371 l 344 371 l 344 186 l 743 186 l 743 0 l 122 0 m 232 999 l 232 1139 l 663 1139 l 663 999 l 232 999 z "},"Ĕ":{"ha":833,"x_min":122,"x_max":743,"o":"m 122 0 l 122 904 l 729 904 l 729 718 l 344 718 l 344 557 l 672 557 l 672 371 l 344 371 l 344 186 l 743 186 l 743 0 l 122 0 m 447 967 q 328 988 378 967 q 251 1051 279 1008 q 215 1158 222 1094 l 336 1179 q 374 1115 344 1138 q 447 1093 403 1093 q 521 1115 492 1093 q 558 1179 550 1138 l 679 1158 q 644 1051 672 1094 q 566 988 615 1008 q 447 967 517 967 z "},"Ė":{"ha":833,"x_min":122,"x_max":743,"o":"m 122 0 l 122 904 l 729 904 l 729 718 l 344 718 l 344 557 l 672 557 l 672 371 l 344 371 l 344 186 l 743 186 l 743 0 l 122 0 m 447 969 q 351 1004 389 969 q 314 1093 314 1039 q 351 1183 314 1149 q 447 1217 389 1217 q 543 1183 506 1217 q 581 1093 581 1149 q 543 1004 581 1039 q 447 969 506 969 z "},"Ę":{"ha":833,"x_min":125,"x_max":774,"o":"m 619 -317 q 502 -281 550 -317 q 454 -182 454 -244 q 472 -102 454 -137 q 517 -40 490 -67 q 567 0 543 -14 l 125 0 l 125 904 l 729 904 l 729 718 l 347 718 l 347 557 l 672 557 l 672 371 l 347 371 l 347 186 l 743 186 l 743 0 l 735 0 q 676 -19 703 -1 q 632 -65 649 -37 q 615 -122 615 -93 q 633 -162 615 -150 q 674 -174 651 -174 q 701 -166 688 -174 q 724 -153 714 -158 l 774 -264 q 703 -301 746 -286 q 619 -317 660 -317 z "},"Ẹ":{"ha":833,"x_min":122,"x_max":743,"o":"m 122 0 l 122 904 l 729 904 l 729 718 l 344 718 l 344 557 l 672 557 l 672 371 l 344 371 l 344 186 l 743 186 l 743 0 l 122 0 z "},"Ẻ":{"ha":833,"x_min":122,"x_max":743,"o":"m 122 0 l 122 904 l 729 904 l 729 718 l 344 718 l 344 557 l 672 557 l 672 371 l 344 371 l 344 186 l 743 186 l 743 0 l 122 0 m 383 957 l 368 1044 q 410 1056 393 1047 q 426 1082 426 1064 q 402 1110 426 1100 q 317 1125 378 1121 l 343 1235 q 487 1215 433 1232 q 563 1170 540 1199 q 585 1104 585 1142 q 557 1024 585 1056 q 484 977 529 993 q 383 957 439 961 z "},"Ẽ":{"ha":833,"x_min":122,"x_max":743,"o":"m 122 0 l 122 904 l 729 904 l 729 718 l 344 718 l 344 557 l 672 557 l 672 371 l 344 371 l 344 186 l 743 186 l 743 0 l 122 0 m 546 957 q 481 969 508 957 q 431 995 453 981 q 391 1022 408 1010 q 357 1033 374 1033 q 326 1020 339 1033 q 308 969 313 1007 l 167 981 q 224 1138 174 1090 q 349 1186 275 1186 q 415 1174 386 1186 q 465 1148 443 1163 q 505 1122 488 1133 q 538 1110 522 1110 q 568 1124 556 1110 q 586 1174 581 1138 l 728 1163 q 671 1006 722 1054 q 546 957 619 957 z "},"Ế":{"ha":833,"x_min":122,"x_max":813,"o":"m 122 0 l 122 904 l 729 904 l 729 718 l 344 718 l 344 557 l 672 557 l 672 371 l 344 371 l 344 186 l 743 186 l 743 0 l 122 0 m 317 949 l 229 1006 l 351 1147 l 543 1147 l 665 1006 l 578 949 l 450 1047 l 444 1047 l 317 949 m 667 1054 l 601 1126 l 742 1246 l 813 1157 l 667 1054 z "},"Ề":{"ha":833,"x_min":83,"x_max":743,"o":"m 122 0 l 122 904 l 729 904 l 729 718 l 344 718 l 344 557 l 672 557 l 672 371 l 344 371 l 344 186 l 743 186 l 743 0 l 122 0 m 317 949 l 229 1006 l 351 1147 l 543 1147 l 665 1006 l 578 949 l 450 1047 l 444 1047 l 317 949 m 228 1054 l 83 1157 l 156 1246 l 293 1126 l 228 1054 z "},"Ể":{"ha":833,"x_min":122,"x_max":810,"o":"m 122 0 l 122 904 l 729 904 l 729 718 l 344 718 l 344 557 l 672 557 l 672 371 l 344 371 l 344 186 l 743 186 l 743 0 l 122 0 m 317 949 l 229 1006 l 351 1147 l 543 1147 l 665 1006 l 578 949 l 450 1047 l 444 1047 l 317 949 m 644 1040 l 628 1108 q 658 1120 646 1113 q 669 1144 669 1128 q 651 1174 669 1163 q 579 1188 632 1185 l 600 1278 q 726 1260 681 1275 q 791 1219 772 1244 q 810 1163 810 1193 q 762 1072 810 1100 q 644 1040 714 1044 z "},"Ễ":{"ha":833,"x_min":122,"x_max":743,"o":"m 122 0 l 122 904 l 729 904 l 729 718 l 344 718 l 344 557 l 672 557 l 672 371 l 344 371 l 344 186 l 743 186 l 743 0 l 122 0 m 317 949 l 229 1006 l 351 1135 l 543 1135 l 665 1006 l 578 949 l 450 1035 l 444 1035 l 317 949 m 529 1164 q 479 1173 501 1164 q 440 1194 457 1182 q 408 1215 422 1206 q 381 1224 393 1224 q 352 1212 363 1224 q 338 1172 342 1200 l 233 1185 q 251 1276 235 1242 q 297 1326 268 1310 q 365 1343 326 1343 q 415 1334 393 1343 q 455 1314 438 1325 q 487 1293 472 1303 q 514 1283 501 1283 q 542 1296 532 1283 q 557 1336 553 1308 l 661 1322 q 643 1233 660 1268 q 597 1181 626 1197 q 529 1164 568 1164 z "},"Ệ":{"ha":833,"x_min":122,"x_max":743,"o":"m 122 0 l 122 904 l 729 904 l 729 718 l 344 718 l 344 557 l 672 557 l 672 371 l 344 371 l 344 186 l 743 186 l 743 0 l 122 0 m 301 949 l 206 1006 l 326 1160 l 568 1160 l 689 1006 l 593 949 l 450 1061 l 444 1061 l 301 949 z "},"Ḗ":{"ha":833,"x_min":122,"x_max":743,"o":"m 122 0 l 122 904 l 729 904 l 729 718 l 344 718 l 344 557 l 672 557 l 672 371 l 344 371 l 344 186 l 743 186 l 743 0 l 122 0 m 232 999 l 232 1139 l 663 1139 l 663 999 l 232 999 m 400 1160 l 328 1260 l 551 1408 l 640 1288 l 400 1160 z "},"Ǵ":{"ha":833,"x_min":58,"x_max":763,"o":"m 478 -17 q 267 35 363 -17 q 115 190 172 86 q 58 446 58 293 q 115 705 58 599 q 268 866 172 811 q 481 921 364 921 q 638 885 572 921 q 747 804 704 850 l 625 668 q 564 713 597 697 q 481 729 531 729 q 382 697 426 729 q 312 602 338 664 q 286 454 286 540 q 309 303 286 365 q 378 208 332 240 q 490 175 424 175 q 532 181 511 175 q 565 196 553 186 l 565 338 l 443 338 l 443 518 l 763 518 l 763 93 q 641 17 718 51 q 478 -17 564 -17 m 406 940 l 307 1051 l 551 1249 l 668 1106 l 406 940 z "},"Ĝ":{"ha":833,"x_min":58,"x_max":763,"o":"m 478 -17 q 267 35 363 -17 q 115 190 172 86 q 58 446 58 293 q 115 705 58 599 q 268 866 172 811 q 481 921 364 921 q 638 885 572 921 q 747 804 704 850 l 625 668 q 564 713 597 697 q 481 729 531 729 q 382 697 426 729 q 312 602 338 664 q 286 454 286 540 q 309 303 286 365 q 378 208 332 240 q 490 175 424 175 q 532 181 511 175 q 565 196 553 186 l 565 338 l 443 338 l 443 518 l 763 518 l 763 93 q 641 17 718 51 q 478 -17 564 -17 m 313 949 l 217 1006 l 338 1160 l 579 1160 l 700 1006 l 604 949 l 461 1061 l 456 1061 l 313 949 z "},"Ğ":{"ha":833,"x_min":58,"x_max":763,"o":"m 478 -17 q 267 35 363 -17 q 115 190 172 86 q 58 446 58 293 q 115 705 58 599 q 268 866 172 811 q 481 921 364 921 q 638 885 572 921 q 747 804 704 850 l 625 668 q 564 713 597 697 q 481 729 531 729 q 382 697 426 729 q 312 602 338 664 q 286 454 286 540 q 309 303 286 365 q 378 208 332 240 q 490 175 424 175 q 532 181 511 175 q 565 196 553 186 l 565 338 l 443 338 l 443 518 l 763 518 l 763 93 q 641 17 718 51 q 478 -17 564 -17 m 458 967 q 340 988 389 967 q 262 1051 290 1008 q 226 1158 233 1094 l 347 1179 q 385 1115 356 1138 q 458 1093 414 1093 q 532 1115 503 1093 q 569 1179 561 1138 l 690 1158 q 655 1051 683 1094 q 577 988 626 1008 q 458 967 528 967 z "},"Ġ":{"ha":833,"x_min":58,"x_max":763,"o":"m 478 -17 q 267 35 363 -17 q 115 190 172 86 q 58 446 58 293 q 115 705 58 599 q 268 866 172 811 q 481 921 364 921 q 638 885 572 921 q 747 804 704 850 l 625 668 q 564 713 597 697 q 481 729 531 729 q 382 697 426 729 q 312 602 338 664 q 286 454 286 540 q 309 303 286 365 q 378 208 332 240 q 490 175 424 175 q 532 181 511 175 q 565 196 553 186 l 565 338 l 443 338 l 443 518 l 763 518 l 763 93 q 641 17 718 51 q 478 -17 564 -17 m 458 969 q 363 1004 400 969 q 325 1093 325 1039 q 363 1183 325 1149 q 458 1217 400 1217 q 554 1183 517 1217 q 592 1093 592 1149 q 554 1004 592 1039 q 458 969 517 969 z "},"Ģ":{"ha":833,"x_min":58,"x_max":763,"o":"m 478 -17 q 267 35 363 -17 q 115 190 172 86 q 58 446 58 293 q 115 705 58 599 q 268 866 172 811 q 481 921 364 921 q 638 885 572 921 q 747 804 704 850 l 625 668 q 564 713 597 697 q 481 729 531 729 q 382 697 426 729 q 312 602 338 664 q 286 454 286 540 q 309 303 286 365 q 378 208 332 240 q 490 175 424 175 q 532 181 511 175 q 565 196 553 186 l 565 338 l 443 338 l 443 518 l 763 518 l 763 93 q 641 17 718 51 q 478 -17 564 -17 m 300 -336 l 285 -249 q 394 -232 364 -244 q 425 -196 425 -219 q 405 -166 425 -178 q 339 -150 385 -154 l 381 -71 q 540 -108 496 -79 q 583 -189 583 -136 q 508 -296 583 -261 q 300 -336 433 -331 z "},"Ǧ":{"ha":833,"x_min":58,"x_max":763,"o":"m 478 -17 q 267 35 363 -17 q 115 190 172 86 q 58 446 58 293 q 115 705 58 599 q 268 866 172 811 q 481 921 364 921 q 638 885 572 921 q 747 804 704 850 l 625 668 q 564 713 597 697 q 481 729 531 729 q 382 697 426 729 q 312 602 338 664 q 286 454 286 540 q 309 303 286 365 q 378 208 332 240 q 490 175 424 175 q 532 181 511 175 q 565 196 553 186 l 565 338 l 443 338 l 443 518 l 763 518 l 763 93 q 641 17 718 51 q 478 -17 564 -17 m 338 974 l 217 1126 l 313 1185 l 456 1071 l 461 1071 l 604 1185 l 700 1126 l 579 974 l 338 974 z "},"Ḡ":{"ha":833,"x_min":58,"x_max":763,"o":"m 478 -17 q 267 35 363 -17 q 115 190 172 86 q 58 446 58 293 q 115 705 58 599 q 268 866 172 811 q 481 921 364 921 q 638 885 572 921 q 747 804 704 850 l 625 668 q 564 713 597 697 q 481 729 531 729 q 382 697 426 729 q 312 602 338 664 q 286 454 286 540 q 309 303 286 365 q 378 208 332 240 q 490 175 424 175 q 532 181 511 175 q 565 196 553 186 l 565 338 l 443 338 l 443 518 l 763 518 l 763 93 q 641 17 718 51 q 478 -17 564 -17 m 243 999 l 243 1139 l 674 1139 l 674 999 l 243 999 z "},"Ɠ":{"ha":833,"x_min":58,"x_max":850,"o":"m 747 804 l 568 797 q 535 874 549 833 q 522 949 522 915 q 547 1044 522 1001 q 617 1114 571 1088 q 726 1140 663 1140 q 801 1134 772 1140 q 850 1121 829 1128 l 811 958 q 793 965 801 963 q 774 968 785 968 q 724 951 743 968 q 704 901 704 935 q 718 848 704 871 q 747 804 732 825 m 478 -17 q 267 35 363 -17 q 115 190 172 86 q 58 446 58 293 q 115 705 58 599 q 268 866 172 811 q 481 921 364 921 q 638 885 572 921 q 747 804 704 850 l 625 668 q 564 713 597 697 q 481 729 531 729 q 382 697 426 729 q 312 602 338 664 q 286 454 286 540 q 309 303 286 365 q 378 208 332 240 q 490 175 424 175 q 532 181 511 175 q 565 196 553 186 l 565 338 l 443 338 l 443 518 l 763 518 l 763 93 q 641 17 718 51 q 478 -17 564 -17 z "},"Ĥ":{"ha":833,"x_min":85,"x_max":749,"o":"m 85 0 l 85 904 l 307 904 l 307 561 l 526 561 l 526 904 l 749 904 l 749 0 l 526 0 l 526 368 l 307 368 l 307 0 l 85 0 m 271 949 l 175 1006 l 296 1160 l 538 1160 l 658 1006 l 563 949 l 419 1061 l 414 1061 l 271 949 z "},"Ḧ":{"ha":833,"x_min":85,"x_max":749,"o":"m 85 0 l 85 904 l 307 904 l 307 561 l 526 561 l 526 904 l 749 904 l 749 0 l 526 0 l 526 368 l 307 368 l 307 0 l 85 0 m 258 968 q 181 999 211 968 q 150 1076 150 1031 q 181 1153 150 1122 q 258 1183 211 1183 q 335 1153 306 1183 q 365 1076 365 1122 q 335 999 365 1031 q 258 968 306 968 m 575 968 q 498 999 528 968 q 468 1076 468 1031 q 498 1153 468 1122 q 575 1183 528 1183 q 653 1153 622 1183 q 683 1076 683 1122 q 653 999 683 1031 q 575 968 622 968 z "},"Ḥ":{"ha":833,"x_min":85,"x_max":749,"o":"m 85 0 l 85 904 l 307 904 l 307 561 l 526 561 l 526 904 l 749 904 l 749 0 l 526 0 l 526 368 l 307 368 l 307 0 l 85 0 z "},"Ḩ":{"ha":833,"x_min":36,"x_max":749,"o":"m 85 0 l 85 904 l 307 904 l 307 561 l 526 561 l 526 904 l 749 904 l 749 0 l 526 0 l 526 368 l 307 368 l 307 0 l 85 0 m 53 -336 l 38 -249 q 147 -231 117 -244 q 178 -189 178 -218 q 157 -154 178 -168 q 72 -132 136 -140 l 144 15 l 271 15 l 228 -85 q 309 -120 282 -96 q 336 -189 336 -144 q 261 -296 336 -261 q 53 -336 186 -331 z "},"Ḫ":{"ha":833,"x_min":85,"x_max":749,"o":"m 85 0 l 85 904 l 307 904 l 307 561 l 526 561 l 526 904 l 749 904 l 749 0 l 526 0 l 526 368 l 307 368 l 307 0 l 85 0 z "},"Ħ":{"ha":833,"x_min":1,"x_max":832,"o":"m 1 672 l 1 771 l 93 779 l 832 779 l 832 672 l 1 672 m 85 0 l 85 904 l 307 904 l 307 561 l 526 561 l 526 904 l 749 904 l 749 0 l 526 0 l 526 368 l 307 368 l 307 0 l 85 0 z "},"Ì":{"ha":833,"x_min":97,"x_max":736,"o":"m 97 0 l 97 186 l 306 186 l 306 718 l 97 718 l 97 904 l 736 904 l 736 718 l 528 718 l 528 186 l 736 186 l 736 0 l 97 0 m 469 940 l 207 1106 l 324 1249 l 568 1051 l 469 940 z "},"Í":{"ha":833,"x_min":97,"x_max":736,"o":"m 97 0 l 97 186 l 306 186 l 306 718 l 97 718 l 97 904 l 736 904 l 736 718 l 528 718 l 528 186 l 736 186 l 736 0 l 97 0 m 364 940 l 265 1051 l 510 1249 l 626 1106 l 364 940 z "},"Î":{"ha":833,"x_min":97,"x_max":736,"o":"m 97 0 l 97 186 l 306 186 l 306 718 l 97 718 l 97 904 l 736 904 l 736 718 l 528 718 l 528 186 l 736 186 l 736 0 l 97 0 m 271 949 l 175 1006 l 296 1160 l 538 1160 l 658 1006 l 563 949 l 419 1061 l 414 1061 l 271 949 z "},"Ĩ":{"ha":833,"x_min":97,"x_max":736,"o":"m 97 0 l 97 186 l 306 186 l 306 718 l 97 718 l 97 904 l 736 904 l 736 718 l 528 718 l 528 186 l 736 186 l 736 0 l 97 0 m 515 957 q 450 969 478 957 q 400 995 422 981 q 360 1022 378 1010 q 326 1033 343 1033 q 295 1020 308 1033 q 278 969 282 1007 l 136 981 q 194 1138 143 1090 q 318 1186 244 1186 q 384 1174 356 1186 q 435 1148 413 1163 q 474 1122 457 1133 q 507 1110 492 1110 q 538 1124 525 1110 q 556 1174 550 1138 l 697 1163 q 640 1006 692 1054 q 515 957 589 957 z "},"Ï":{"ha":833,"x_min":97,"x_max":736,"o":"m 97 0 l 97 186 l 306 186 l 306 718 l 97 718 l 97 904 l 736 904 l 736 718 l 528 718 l 528 186 l 736 186 l 736 0 l 97 0 m 258 968 q 181 999 211 968 q 150 1076 150 1031 q 181 1153 150 1122 q 258 1183 211 1183 q 335 1153 306 1183 q 365 1076 365 1122 q 335 999 365 1031 q 258 968 306 968 m 575 968 q 498 999 528 968 q 468 1076 468 1031 q 498 1153 468 1122 q 575 1183 528 1183 q 653 1153 622 1183 q 683 1076 683 1122 q 653 999 683 1031 q 575 968 622 968 z "},"Ī":{"ha":833,"x_min":97,"x_max":736,"o":"m 97 0 l 97 186 l 306 186 l 306 718 l 97 718 l 97 904 l 736 904 l 736 718 l 528 718 l 528 186 l 736 186 l 736 0 l 97 0 m 201 999 l 201 1139 l 632 1139 l 632 999 l 201 999 z "},"İ":{"ha":833,"x_min":97,"x_max":736,"o":"m 97 0 l 97 186 l 306 186 l 306 718 l 97 718 l 97 904 l 736 904 l 736 718 l 528 718 l 528 186 l 736 186 l 736 0 l 97 0 m 417 969 q 321 1004 358 969 q 283 1093 283 1039 q 321 1183 283 1149 q 417 1217 358 1217 q 513 1183 475 1217 q 550 1093 550 1149 q 513 1004 550 1039 q 417 969 475 969 z "},"Ǐ":{"ha":833,"x_min":97,"x_max":736,"o":"m 97 0 l 97 186 l 306 186 l 306 718 l 97 718 l 97 904 l 736 904 l 736 718 l 528 718 l 528 186 l 736 186 l 736 0 l 97 0 m 296 974 l 175 1126 l 271 1185 l 414 1071 l 419 1071 l 563 1185 l 658 1126 l 538 974 l 296 974 z "},"Į":{"ha":833,"x_min":97,"x_max":736,"o":"m 426 -317 q 308 -281 357 -317 q 260 -182 260 -244 q 278 -101 260 -136 q 322 -40 297 -65 q 367 0 346 -14 l 97 0 l 97 186 l 306 186 l 306 718 l 97 718 l 97 904 l 736 904 l 736 718 l 528 718 l 528 186 l 736 186 l 736 0 l 529 0 q 445 -55 469 -21 q 421 -122 421 -89 q 439 -162 421 -150 q 478 -174 457 -174 q 507 -166 493 -174 q 529 -153 521 -158 l 581 -264 q 509 -301 551 -286 q 426 -317 467 -317 z "},"Ỉ":{"ha":833,"x_min":97,"x_max":736,"o":"m 97 0 l 97 186 l 306 186 l 306 718 l 97 718 l 97 904 l 736 904 l 736 718 l 528 718 l 528 186 l 736 186 l 736 0 l 97 0 m 353 957 l 338 1044 q 379 1056 363 1047 q 396 1082 396 1064 q 372 1110 396 1100 q 286 1125 347 1121 l 313 1235 q 456 1215 403 1232 q 532 1170 510 1199 q 554 1104 554 1142 q 526 1024 554 1056 q 453 977 499 993 q 353 957 408 961 z "},"Ị":{"ha":833,"x_min":97,"x_max":736,"o":"m 97 0 l 97 186 l 306 186 l 306 718 l 97 718 l 97 904 l 736 904 l 736 718 l 528 718 l 528 186 l 736 186 l 736 0 l 97 0 z "},"Ĭ":{"ha":833,"x_min":97,"x_max":736,"o":"m 97 0 l 97 186 l 306 186 l 306 718 l 97 718 l 97 904 l 736 904 l 736 718 l 528 718 l 528 186 l 736 186 l 736 0 l 97 0 m 417 967 q 298 988 347 967 q 220 1051 249 1008 q 185 1158 192 1094 l 306 1179 q 343 1115 314 1138 q 417 1093 372 1093 q 490 1115 461 1093 q 528 1179 519 1138 l 649 1158 q 613 1051 642 1094 q 535 988 585 1008 q 417 967 486 967 z "},"Ĵ":{"ha":833,"x_min":76,"x_max":724,"o":"m 379 -17 q 220 16 303 -17 q 76 132 138 49 l 203 269 q 285 200 242 225 q 371 175 328 175 q 468 208 435 175 q 501 329 501 240 l 501 718 l 153 718 l 153 904 l 724 904 l 724 311 q 690 147 724 221 q 582 28 657 72 q 379 -17 507 -17 m 311 949 l 215 1006 l 336 1160 l 578 1160 l 699 1006 l 603 949 l 460 1061 l 454 1061 l 311 949 z "},"Ķ":{"ha":833,"x_min":86,"x_max":829,"o":"m 86 0 l 86 904 l 310 904 l 310 551 l 315 551 l 560 904 l 806 904 l 310 239 l 310 0 l 86 0 m 585 0 l 388 403 l 517 576 l 829 0 l 585 0 m 303 -336 l 288 -249 q 397 -232 367 -244 q 428 -196 428 -219 q 408 -166 428 -178 q 342 -150 388 -154 l 383 -71 q 542 -108 499 -79 q 586 -189 586 -136 q 511 -296 586 -261 q 303 -336 436 -331 z "},"Ḳ":{"ha":833,"x_min":86,"x_max":829,"o":"m 86 0 l 86 904 l 310 904 l 310 551 l 315 551 l 560 904 l 806 904 l 310 239 l 310 0 l 86 0 m 585 0 l 388 403 l 517 576 l 829 0 l 585 0 z "},"Ḵ":{"ha":833,"x_min":86,"x_max":829,"o":"m 86 0 l 86 904 l 310 904 l 310 551 l 315 551 l 560 904 l 806 904 l 310 239 l 310 0 l 86 0 m 585 0 l 388 403 l 517 576 l 829 0 l 585 0 z "},"Ĺ":{"ha":833,"x_min":117,"x_max":756,"o":"m 140 0 l 140 904 l 363 904 l 363 186 l 756 186 l 756 0 l 140 0 m 215 940 l 117 1051 l 361 1249 l 478 1106 l 215 940 z "},"Ľ":{"ha":833,"x_min":140,"x_max":756,"o":"m 140 0 l 140 904 l 363 904 l 363 186 l 756 186 l 756 0 l 140 0 m 508 707 l 501 1089 l 697 1089 l 694 949 l 658 707 l 508 707 z "},"Ļ":{"ha":833,"x_min":140,"x_max":756,"o":"m 140 0 l 140 904 l 363 904 l 363 186 l 756 186 l 756 0 l 140 0 m 317 -336 l 301 -249 q 411 -232 381 -244 q 442 -196 442 -219 q 422 -166 442 -178 q 356 -150 401 -154 l 397 -71 q 556 -108 513 -79 q 600 -189 600 -136 q 525 -296 600 -261 q 317 -336 450 -331 z "},"Ḷ":{"ha":833,"x_min":140,"x_max":756,"o":"m 140 0 l 140 904 l 363 904 l 363 186 l 756 186 l 756 0 l 140 0 z "},"Ḹ":{"ha":833,"x_min":54,"x_max":756,"o":"m 140 0 l 140 904 l 363 904 l 363 186 l 756 186 l 756 0 l 140 0 m 53 999 l 53 1139 l 483 1139 l 483 999 l 53 999 z "},"Ḻ":{"ha":833,"x_min":140,"x_max":756,"o":"m 140 0 l 140 904 l 363 904 l 363 186 l 756 186 l 756 0 l 140 0 z "},"Ł":{"ha":833,"x_min":-15,"x_max":756,"o":"m 60 233 l -15 365 l 165 468 l 340 543 l 604 689 l 679 557 l 340 372 l 165 297 l 60 233 m 140 0 l 140 904 l 363 904 l 363 186 l 756 186 l 756 0 l 140 0 z "},"Ŀ":{"ha":833,"x_min":140,"x_max":806,"o":"m 140 0 l 140 904 l 363 904 l 363 186 l 756 186 l 756 0 l 140 0 m 661 369 q 558 406 599 369 q 517 501 517 442 q 558 598 517 561 q 661 635 599 635 q 765 598 724 635 q 806 501 806 561 q 765 406 806 442 q 661 369 724 369 z "},"Ḿ":{"ha":833,"x_min":76,"x_max":757,"o":"m 76 0 l 76 904 l 306 904 l 386 596 l 414 475 l 419 475 l 447 596 l 528 904 l 757 904 l 757 0 l 572 0 l 572 246 q 576 344 572 286 q 583 467 579 403 q 592 590 586 532 q 601 686 597 649 l 597 686 l 524 431 l 465 239 l 363 239 l 301 431 l 235 686 l 229 686 q 239 590 233 649 q 248 467 244 532 q 255 344 251 403 q 258 246 258 286 l 258 0 l 76 0 m 364 940 l 265 1051 l 510 1249 l 626 1106 l 364 940 z "},"Ṁ":{"ha":833,"x_min":76,"x_max":757,"o":"m 76 0 l 76 904 l 306 904 l 386 596 l 414 475 l 419 475 l 447 596 l 528 904 l 757 904 l 757 0 l 572 0 l 572 246 q 576 344 572 286 q 583 467 579 403 q 592 590 586 532 q 601 686 597 649 l 597 686 l 524 431 l 465 239 l 363 239 l 301 431 l 235 686 l 229 686 q 239 590 233 649 q 248 467 244 532 q 255 344 251 403 q 258 246 258 286 l 258 0 l 76 0 m 417 969 q 321 1004 358 969 q 283 1093 283 1039 q 321 1183 283 1149 q 417 1217 358 1217 q 513 1183 475 1217 q 550 1093 550 1149 q 513 1004 550 1039 q 417 969 475 969 z "},"Ṃ":{"ha":833,"x_min":76,"x_max":757,"o":"m 76 0 l 76 904 l 306 904 l 386 596 l 414 475 l 419 475 l 447 596 l 528 904 l 757 904 l 757 0 l 572 0 l 572 246 q 576 344 572 286 q 583 467 579 403 q 592 590 586 532 q 601 686 597 649 l 597 686 l 524 431 l 465 239 l 363 239 l 301 431 l 235 686 l 229 686 q 239 590 233 649 q 248 467 244 532 q 255 344 251 403 q 258 246 258 286 l 258 0 l 76 0 z "},"Ń":{"ha":833,"x_min":88,"x_max":746,"o":"m 88 0 l 88 904 l 314 904 l 485 478 l 560 276 l 565 276 q 546 441 557 350 q 535 614 535 532 l 535 904 l 746 904 l 746 0 l 519 0 l 349 428 l 274 628 l 268 628 q 288 462 276 551 q 299 292 299 372 l 299 0 l 88 0 m 378 940 l 279 1051 l 524 1249 l 640 1106 l 378 940 z "},"Ǹ":{"ha":833,"x_min":88,"x_max":746,"o":"m 88 0 l 88 904 l 314 904 l 485 478 l 560 276 l 565 276 q 546 441 557 350 q 535 614 535 532 l 535 904 l 746 904 l 746 0 l 519 0 l 349 428 l 274 628 l 268 628 q 288 462 276 551 q 299 292 299 372 l 299 0 l 88 0 m 483 940 l 221 1106 l 338 1249 l 582 1051 l 483 940 z "},"Ň":{"ha":833,"x_min":88,"x_max":746,"o":"m 88 0 l 88 904 l 314 904 l 485 478 l 560 276 l 565 276 q 546 441 557 350 q 535 614 535 532 l 535 904 l 746 904 l 746 0 l 519 0 l 349 428 l 274 628 l 268 628 q 288 462 276 551 q 299 292 299 372 l 299 0 l 88 0 m 310 974 l 189 1126 l 285 1185 l 428 1071 l 433 1071 l 576 1185 l 672 1126 l 551 974 l 310 974 z "},"Ñ":{"ha":833,"x_min":88,"x_max":746,"o":"m 88 0 l 88 904 l 314 904 l 485 478 l 560 276 l 565 276 q 546 441 557 350 q 535 614 535 532 l 535 904 l 746 904 l 746 0 l 519 0 l 349 428 l 274 628 l 268 628 q 288 462 276 551 q 299 292 299 372 l 299 0 l 88 0 m 529 957 q 464 969 492 957 q 414 995 436 981 q 374 1022 392 1010 q 340 1033 357 1033 q 309 1020 322 1033 q 292 969 296 1007 l 150 981 q 208 1138 157 1090 q 332 1186 258 1186 q 398 1174 369 1186 q 449 1148 426 1163 q 488 1122 471 1133 q 521 1110 506 1110 q 551 1124 539 1110 q 569 1174 564 1138 l 711 1163 q 654 1006 706 1054 q 529 957 603 957 z "},"Ņ":{"ha":833,"x_min":88,"x_max":746,"o":"m 88 0 l 88 904 l 314 904 l 485 478 l 560 276 l 565 276 q 546 441 557 350 q 535 614 535 532 l 535 904 l 746 904 l 746 0 l 519 0 l 349 428 l 274 628 l 268 628 q 288 462 276 551 q 299 292 299 372 l 299 0 l 88 0 m 271 -336 l 256 -249 q 365 -232 335 -244 q 396 -196 396 -219 q 376 -166 396 -178 q 310 -150 356 -154 l 351 -71 q 510 -108 467 -79 q 554 -189 554 -136 q 479 -296 554 -261 q 271 -336 404 -331 z "},"Ṅ":{"ha":833,"x_min":88,"x_max":746,"o":"m 88 0 l 88 904 l 314 904 l 485 478 l 560 276 l 565 276 q 546 441 557 350 q 535 614 535 532 l 535 904 l 746 904 l 746 0 l 519 0 l 349 428 l 274 628 l 268 628 q 288 462 276 551 q 299 292 299 372 l 299 0 l 88 0 m 431 969 q 335 1004 372 969 q 297 1093 297 1039 q 335 1183 297 1149 q 431 1217 372 1217 q 526 1183 489 1217 q 564 1093 564 1149 q 526 1004 564 1039 q 431 969 489 969 z "},"Ṇ":{"ha":833,"x_min":88,"x_max":746,"o":"m 88 0 l 88 904 l 314 904 l 485 478 l 560 276 l 565 276 q 546 441 557 350 q 535 614 535 532 l 535 904 l 746 904 l 746 0 l 519 0 l 349 428 l 274 628 l 268 628 q 288 462 276 551 q 299 292 299 372 l 299 0 l 88 0 z "},"Ṉ":{"ha":833,"x_min":88,"x_max":746,"o":"m 88 0 l 88 904 l 314 904 l 485 478 l 560 276 l 565 276 q 546 441 557 350 q 535 614 535 532 l 535 904 l 746 904 l 746 0 l 519 0 l 349 428 l 274 628 l 268 628 q 288 462 276 551 q 299 292 299 372 l 299 0 l 88 0 z "},"Ò":{"ha":833,"x_min":50,"x_max":783,"o":"m 417 -17 q 226 37 308 -17 q 97 195 143 90 q 50 456 50 300 q 97 712 50 608 q 226 868 143 815 q 417 921 308 921 q 608 868 525 921 q 737 712 690 815 q 783 456 783 608 q 737 195 783 300 q 608 37 690 90 q 417 -17 525 -17 m 417 175 q 491 206 460 175 q 540 300 522 238 q 557 456 557 363 q 540 607 557 546 q 491 699 522 668 q 417 729 460 729 q 342 699 374 729 q 294 607 311 668 q 276 456 276 546 q 294 300 276 363 q 342 206 311 238 q 417 175 374 175 m 469 940 l 207 1106 l 324 1249 l 568 1051 l 469 940 z "},"Ó":{"ha":833,"x_min":50,"x_max":783,"o":"m 417 -17 q 226 37 308 -17 q 97 195 143 90 q 50 456 50 300 q 97 712 50 608 q 226 868 143 815 q 417 921 308 921 q 608 868 525 921 q 737 712 690 815 q 783 456 783 608 q 737 195 783 300 q 608 37 690 90 q 417 -17 525 -17 m 417 175 q 491 206 460 175 q 540 300 522 238 q 557 456 557 363 q 540 607 557 546 q 491 699 522 668 q 417 729 460 729 q 342 699 374 729 q 294 607 311 668 q 276 456 276 546 q 294 300 276 363 q 342 206 311 238 q 417 175 374 175 m 364 940 l 265 1051 l 510 1249 l 626 1106 l 364 940 z "},"Ô":{"ha":833,"x_min":50,"x_max":783,"o":"m 417 -17 q 226 37 308 -17 q 97 195 143 90 q 50 456 50 300 q 97 712 50 608 q 226 868 143 815 q 417 921 308 921 q 608 868 525 921 q 737 712 690 815 q 783 456 783 608 q 737 195 783 300 q 608 37 690 90 q 417 -17 525 -17 m 417 175 q 491 206 460 175 q 540 300 522 238 q 557 456 557 363 q 540 607 557 546 q 491 699 522 668 q 417 729 460 729 q 342 699 374 729 q 294 607 311 668 q 276 456 276 546 q 294 300 276 363 q 342 206 311 238 q 417 175 374 175 m 271 949 l 175 1006 l 296 1160 l 538 1160 l 658 1006 l 563 949 l 419 1061 l 414 1061 l 271 949 z "},"Õ":{"ha":833,"x_min":50,"x_max":783,"o":"m 417 -17 q 226 37 308 -17 q 97 195 143 90 q 50 456 50 300 q 97 712 50 608 q 226 868 143 815 q 417 921 308 921 q 608 868 525 921 q 737 712 690 815 q 783 456 783 608 q 737 195 783 300 q 608 37 690 90 q 417 -17 525 -17 m 417 175 q 491 206 460 175 q 540 300 522 238 q 557 456 557 363 q 540 607 557 546 q 491 699 522 668 q 417 729 460 729 q 342 699 374 729 q 294 607 311 668 q 276 456 276 546 q 294 300 276 363 q 342 206 311 238 q 417 175 374 175 m 515 957 q 450 969 478 957 q 400 995 422 981 q 360 1022 378 1010 q 326 1033 343 1033 q 295 1020 308 1033 q 278 969 282 1007 l 136 981 q 194 1138 143 1090 q 318 1186 244 1186 q 384 1174 356 1186 q 435 1148 413 1163 q 474 1122 457 1133 q 507 1110 492 1110 q 538 1124 525 1110 q 556 1174 550 1138 l 697 1163 q 640 1006 692 1054 q 515 957 589 957 z "},"Ö":{"ha":833,"x_min":50,"x_max":783,"o":"m 417 -17 q 226 37 308 -17 q 97 195 143 90 q 50 456 50 300 q 97 712 50 608 q 226 868 143 815 q 417 921 308 921 q 608 868 525 921 q 737 712 690 815 q 783 456 783 608 q 737 195 783 300 q 608 37 690 90 q 417 -17 525 -17 m 417 175 q 491 206 460 175 q 540 300 522 238 q 557 456 557 363 q 540 607 557 546 q 491 699 522 668 q 417 729 460 729 q 342 699 374 729 q 294 607 311 668 q 276 456 276 546 q 294 300 276 363 q 342 206 311 238 q 417 175 374 175 m 258 968 q 181 999 211 968 q 150 1076 150 1031 q 181 1153 150 1122 q 258 1183 211 1183 q 335 1153 306 1183 q 365 1076 365 1122 q 335 999 365 1031 q 258 968 306 968 m 575 968 q 498 999 528 968 q 468 1076 468 1031 q 498 1153 468 1122 q 575 1183 528 1183 q 653 1153 622 1183 q 683 1076 683 1122 q 653 999 683 1031 q 575 968 622 968 z "},"Ō":{"ha":833,"x_min":50,"x_max":783,"o":"m 417 -17 q 226 37 308 -17 q 97 195 143 90 q 50 456 50 300 q 97 712 50 608 q 226 868 143 815 q 417 921 308 921 q 608 868 525 921 q 737 712 690 815 q 783 456 783 608 q 737 195 783 300 q 608 37 690 90 q 417 -17 525 -17 m 417 175 q 491 206 460 175 q 540 300 522 238 q 557 456 557 363 q 540 607 557 546 q 491 699 522 668 q 417 729 460 729 q 342 699 374 729 q 294 607 311 668 q 276 456 276 546 q 294 300 276 363 q 342 206 311 238 q 417 175 374 175 m 201 999 l 201 1139 l 632 1139 l 632 999 l 201 999 z "},"Ő":{"ha":833,"x_min":50,"x_max":783,"o":"m 417 -17 q 226 37 308 -17 q 97 195 143 90 q 50 456 50 300 q 97 712 50 608 q 226 868 143 815 q 417 921 308 921 q 608 868 525 921 q 737 712 690 815 q 783 456 783 608 q 737 195 783 300 q 608 37 690 90 q 417 -17 525 -17 m 417 175 q 491 206 460 175 q 540 300 522 238 q 557 456 557 363 q 540 607 557 546 q 491 699 522 668 q 417 729 460 729 q 342 699 374 729 q 294 607 311 668 q 276 456 276 546 q 294 300 276 363 q 342 206 311 238 q 417 175 374 175 m 326 961 l 218 1013 l 360 1239 l 500 1160 l 326 961 m 594 961 l 485 1013 l 628 1239 l 767 1160 l 594 961 z "},"Ŏ":{"ha":833,"x_min":50,"x_max":783,"o":"m 417 -17 q 226 37 308 -17 q 97 195 143 90 q 50 456 50 300 q 97 712 50 608 q 226 868 143 815 q 417 921 308 921 q 608 868 525 921 q 737 712 690 815 q 783 456 783 608 q 737 195 783 300 q 608 37 690 90 q 417 -17 525 -17 m 417 175 q 491 206 460 175 q 540 300 522 238 q 557 456 557 363 q 540 607 557 546 q 491 699 522 668 q 417 729 460 729 q 342 699 374 729 q 294 607 311 668 q 276 456 276 546 q 294 300 276 363 q 342 206 311 238 q 417 175 374 175 m 417 967 q 298 988 347 967 q 220 1051 249 1008 q 185 1158 192 1094 l 306 1179 q 343 1115 314 1138 q 417 1093 372 1093 q 490 1115 461 1093 q 528 1179 519 1138 l 649 1158 q 613 1051 642 1094 q 535 988 585 1008 q 417 967 486 967 z "},"Ǒ":{"ha":833,"x_min":50,"x_max":783,"o":"m 417 -17 q 226 37 308 -17 q 97 195 143 90 q 50 456 50 300 q 97 712 50 608 q 226 868 143 815 q 417 921 308 921 q 608 868 525 921 q 737 712 690 815 q 783 456 783 608 q 737 195 783 300 q 608 37 690 90 q 417 -17 525 -17 m 417 175 q 491 206 460 175 q 540 300 522 238 q 557 456 557 363 q 540 607 557 546 q 491 699 522 668 q 417 729 460 729 q 342 699 374 729 q 294 607 311 668 q 276 456 276 546 q 294 300 276 363 q 342 206 311 238 q 417 175 374 175 m 296 974 l 175 1126 l 271 1185 l 414 1071 l 419 1071 l 563 1185 l 658 1126 l 538 974 l 296 974 z "},"Ǫ":{"ha":833,"x_min":50,"x_max":783,"o":"m 449 -317 q 331 -281 379 -317 q 283 -182 283 -244 q 313 -83 283 -125 q 374 -14 343 -40 q 192 67 264 0 q 85 234 121 133 q 50 456 50 335 q 97 708 50 604 q 226 866 143 811 q 417 921 308 921 q 608 866 525 921 q 737 708 690 811 q 783 456 783 604 q 717 163 783 272 q 540 4 650 53 q 465 -54 488 -18 q 443 -122 443 -90 q 462 -162 443 -150 q 503 -174 481 -174 q 529 -166 517 -174 q 553 -153 542 -158 l 603 -264 q 531 -301 574 -286 q 449 -317 489 -317 m 417 169 q 491 199 460 169 q 540 292 522 229 q 557 456 557 356 q 540 607 557 546 q 491 699 522 668 q 417 729 460 729 q 342 699 374 729 q 294 607 311 668 q 276 456 276 546 q 294 292 276 356 q 342 199 311 229 q 417 169 374 169 z "},"Ọ":{"ha":833,"x_min":50,"x_max":783,"o":"m 417 -17 q 226 37 308 -17 q 97 195 143 90 q 50 456 50 300 q 97 712 50 608 q 226 868 143 815 q 417 921 308 921 q 608 868 525 921 q 737 712 690 815 q 783 456 783 608 q 737 195 783 300 q 608 37 690 90 q 417 -17 525 -17 m 417 175 q 491 206 460 175 q 540 300 522 238 q 557 456 557 363 q 540 607 557 546 q 491 699 522 668 q 417 729 460 729 q 342 699 374 729 q 294 607 311 668 q 276 456 276 546 q 294 300 276 363 q 342 206 311 238 q 417 175 374 175 z "},"Ỏ":{"ha":833,"x_min":50,"x_max":783,"o":"m 417 -17 q 226 37 308 -17 q 97 195 143 90 q 50 456 50 300 q 97 712 50 608 q 226 868 143 815 q 417 921 308 921 q 608 868 525 921 q 737 712 690 815 q 783 456 783 608 q 737 195 783 300 q 608 37 690 90 q 417 -17 525 -17 m 417 175 q 491 206 460 175 q 540 300 522 238 q 557 456 557 363 q 540 607 557 546 q 491 699 522 668 q 417 729 460 729 q 342 699 374 729 q 294 607 311 668 q 276 456 276 546 q 294 300 276 363 q 342 206 311 238 q 417 175 374 175 m 353 957 l 338 1044 q 379 1056 363 1047 q 396 1082 396 1064 q 372 1110 396 1100 q 286 1125 347 1121 l 313 1235 q 456 1215 403 1232 q 532 1170 510 1199 q 554 1104 554 1142 q 526 1024 554 1056 q 453 977 499 993 q 353 957 408 961 z "},"Ố":{"ha":833,"x_min":50,"x_max":783,"o":"m 417 -17 q 226 37 308 -17 q 97 195 143 90 q 50 456 50 300 q 97 712 50 608 q 226 868 143 815 q 417 921 308 921 q 608 868 525 921 q 737 712 690 815 q 783 456 783 608 q 737 195 783 300 q 608 37 690 90 q 417 -17 525 -17 m 417 175 q 491 206 460 175 q 540 300 522 238 q 557 456 557 363 q 540 607 557 546 q 491 699 522 668 q 417 729 460 729 q 342 699 374 729 q 294 607 311 668 q 276 456 276 546 q 294 300 276 363 q 342 206 311 238 q 417 175 374 175 m 286 949 l 199 1006 l 321 1147 l 513 1147 l 635 1006 l 547 949 l 419 1047 l 414 1047 l 286 949 m 636 1054 l 571 1126 l 711 1246 l 782 1157 l 636 1054 z "},"Ồ":{"ha":833,"x_min":50,"x_max":783,"o":"m 417 -17 q 226 37 308 -17 q 97 195 143 90 q 50 456 50 300 q 97 712 50 608 q 226 868 143 815 q 417 921 308 921 q 608 868 525 921 q 737 712 690 815 q 783 456 783 608 q 737 195 783 300 q 608 37 690 90 q 417 -17 525 -17 m 417 175 q 491 206 460 175 q 540 300 522 238 q 557 456 557 363 q 540 607 557 546 q 491 699 522 668 q 417 729 460 729 q 342 699 374 729 q 294 607 311 668 q 276 456 276 546 q 294 300 276 363 q 342 206 311 238 q 417 175 374 175 m 286 949 l 199 1006 l 321 1147 l 513 1147 l 635 1006 l 547 949 l 419 1047 l 414 1047 l 286 949 m 197 1054 l 53 1157 l 125 1246 l 263 1126 l 197 1054 z "},"Ổ":{"ha":833,"x_min":50,"x_max":783,"o":"m 417 -17 q 226 37 308 -17 q 97 195 143 90 q 50 456 50 300 q 97 712 50 608 q 226 868 143 815 q 417 921 308 921 q 608 868 525 921 q 737 712 690 815 q 783 456 783 608 q 737 195 783 300 q 608 37 690 90 q 417 -17 525 -17 m 417 175 q 491 206 460 175 q 540 300 522 238 q 557 456 557 363 q 540 607 557 546 q 491 699 522 668 q 417 729 460 729 q 342 699 374 729 q 294 607 311 668 q 276 456 276 546 q 294 300 276 363 q 342 206 311 238 q 417 175 374 175 m 286 949 l 199 1006 l 321 1147 l 513 1147 l 635 1006 l 547 949 l 419 1047 l 414 1047 l 286 949 m 614 1040 l 597 1108 q 627 1120 615 1113 q 639 1144 639 1128 q 620 1174 639 1163 q 549 1188 601 1185 l 569 1278 q 696 1260 650 1275 q 760 1219 742 1244 q 779 1163 779 1193 q 731 1072 779 1100 q 614 1040 683 1044 z "},"Ỗ":{"ha":833,"x_min":50,"x_max":783,"o":"m 417 -17 q 226 37 308 -17 q 97 195 143 90 q 50 456 50 300 q 97 712 50 608 q 226 868 143 815 q 417 921 308 921 q 608 868 525 921 q 737 712 690 815 q 783 456 783 608 q 737 195 783 300 q 608 37 690 90 q 417 -17 525 -17 m 417 175 q 491 206 460 175 q 540 300 522 238 q 557 456 557 363 q 540 607 557 546 q 491 699 522 668 q 417 729 460 729 q 342 699 374 729 q 294 607 311 668 q 276 456 276 546 q 294 300 276 363 q 342 206 311 238 q 417 175 374 175 m 286 949 l 199 1006 l 321 1135 l 513 1135 l 635 1006 l 547 949 l 419 1035 l 414 1035 l 286 949 m 499 1164 q 449 1173 471 1164 q 409 1194 426 1182 q 377 1215 392 1206 q 350 1224 363 1224 q 322 1212 332 1224 q 307 1172 311 1200 l 203 1185 q 221 1276 204 1242 q 267 1326 238 1310 q 335 1343 296 1343 q 385 1334 363 1343 q 424 1314 407 1325 q 456 1293 442 1303 q 483 1283 471 1283 q 512 1296 501 1283 q 526 1336 522 1308 l 631 1322 q 613 1233 629 1268 q 567 1181 596 1197 q 499 1164 538 1164 z "},"Ộ":{"ha":833,"x_min":50,"x_max":783,"o":"m 417 -17 q 226 37 308 -17 q 97 195 143 90 q 50 456 50 300 q 97 712 50 608 q 226 868 143 815 q 417 921 308 921 q 608 868 525 921 q 737 712 690 815 q 783 456 783 608 q 737 195 783 300 q 608 37 690 90 q 417 -17 525 -17 m 417 175 q 491 206 460 175 q 540 300 522 238 q 557 456 557 363 q 540 607 557 546 q 491 699 522 668 q 417 729 460 729 q 342 699 374 729 q 294 607 311 668 q 276 456 276 546 q 294 300 276 363 q 342 206 311 238 q 417 175 374 175 m 271 949 l 175 1006 l 296 1160 l 538 1160 l 658 1006 l 563 949 l 419 1061 l 414 1061 l 271 949 z "},"Ơ":{"ha":833,"x_min":50,"x_max":836,"o":"m 671 813 l 571 883 q 631 923 611 896 q 651 1001 651 950 q 644 1053 651 1029 q 629 1093 638 1078 l 793 1158 q 823 1099 810 1136 q 836 1017 836 1061 q 797 887 836 938 q 671 813 757 836 m 417 -17 q 226 37 308 -17 q 97 195 143 90 q 50 456 50 300 q 97 712 50 608 q 226 868 143 815 q 417 921 308 921 q 608 868 525 921 q 737 712 690 815 q 783 456 783 608 q 737 195 783 300 q 608 37 690 90 q 417 -17 525 -17 m 417 175 q 491 206 460 175 q 540 300 522 238 q 557 456 557 363 q 540 607 557 546 q 491 699 522 668 q 417 729 460 729 q 342 699 374 729 q 294 607 311 668 q 276 456 276 546 q 294 300 276 363 q 342 206 311 238 q 417 175 374 175 z "},"Ớ":{"ha":833,"x_min":50,"x_max":836,"o":"m 671 813 l 571 883 q 631 923 611 896 q 651 1001 651 950 q 644 1053 651 1029 q 629 1093 638 1078 l 793 1158 q 823 1099 810 1136 q 836 1017 836 1061 q 797 887 836 938 q 671 813 757 836 m 417 -17 q 226 37 308 -17 q 97 195 143 90 q 50 456 50 300 q 97 712 50 608 q 226 868 143 815 q 417 921 308 921 q 608 868 525 921 q 737 712 690 815 q 783 456 783 608 q 737 195 783 300 q 608 37 690 90 q 417 -17 525 -17 m 417 175 q 491 206 460 175 q 540 300 522 238 q 557 456 557 363 q 540 607 557 546 q 491 699 522 668 q 417 729 460 729 q 342 699 374 729 q 294 607 311 668 q 276 456 276 546 q 294 300 276 363 q 342 206 311 238 q 417 175 374 175 m 364 940 l 265 1051 l 510 1249 l 626 1106 l 364 940 z "},"Ờ":{"ha":833,"x_min":50,"x_max":836,"o":"m 671 813 l 571 883 q 631 923 611 896 q 651 1001 651 950 q 644 1053 651 1029 q 629 1093 638 1078 l 793 1158 q 823 1099 810 1136 q 836 1017 836 1061 q 797 887 836 938 q 671 813 757 836 m 417 -17 q 226 37 308 -17 q 97 195 143 90 q 50 456 50 300 q 97 712 50 608 q 226 868 143 815 q 417 921 308 921 q 608 868 525 921 q 737 712 690 815 q 783 456 783 608 q 737 195 783 300 q 608 37 690 90 q 417 -17 525 -17 m 417 175 q 491 206 460 175 q 540 300 522 238 q 557 456 557 363 q 540 607 557 546 q 491 699 522 668 q 417 729 460 729 q 342 699 374 729 q 294 607 311 668 q 276 456 276 546 q 294 300 276 363 q 342 206 311 238 q 417 175 374 175 m 469 940 l 207 1106 l 324 1249 l 568 1051 l 469 940 z "},"Ở":{"ha":833,"x_min":50,"x_max":836,"o":"m 671 813 l 571 883 q 631 923 611 896 q 651 1001 651 950 q 644 1053 651 1029 q 629 1093 638 1078 l 793 1158 q 823 1099 810 1136 q 836 1017 836 1061 q 797 887 836 938 q 671 813 757 836 m 417 -17 q 226 37 308 -17 q 97 195 143 90 q 50 456 50 300 q 97 712 50 608 q 226 868 143 815 q 417 921 308 921 q 608 868 525 921 q 737 712 690 815 q 783 456 783 608 q 737 195 783 300 q 608 37 690 90 q 417 -17 525 -17 m 417 175 q 491 206 460 175 q 540 300 522 238 q 557 456 557 363 q 540 607 557 546 q 491 699 522 668 q 417 729 460 729 q 342 699 374 729 q 294 607 311 668 q 276 456 276 546 q 294 300 276 363 q 342 206 311 238 q 417 175 374 175 m 353 957 l 338 1044 q 379 1056 363 1047 q 396 1082 396 1064 q 372 1110 396 1100 q 286 1125 347 1121 l 313 1235 q 456 1215 403 1232 q 532 1170 510 1199 q 554 1104 554 1142 q 526 1024 554 1056 q 453 977 499 993 q 353 957 408 961 z "},"Ỡ":{"ha":833,"x_min":50,"x_max":836,"o":"m 671 813 l 571 883 q 631 923 611 896 q 651 1001 651 950 q 644 1053 651 1029 q 629 1093 638 1078 l 793 1158 q 823 1099 810 1136 q 836 1017 836 1061 q 797 887 836 938 q 671 813 757 836 m 417 -17 q 226 37 308 -17 q 97 195 143 90 q 50 456 50 300 q 97 712 50 608 q 226 868 143 815 q 417 921 308 921 q 608 868 525 921 q 737 712 690 815 q 783 456 783 608 q 737 195 783 300 q 608 37 690 90 q 417 -17 525 -17 m 417 175 q 491 206 460 175 q 540 300 522 238 q 557 456 557 363 q 540 607 557 546 q 491 699 522 668 q 417 729 460 729 q 342 699 374 729 q 294 607 311 668 q 276 456 276 546 q 294 300 276 363 q 342 206 311 238 q 417 175 374 175 m 488 957 q 422 969 450 957 q 372 995 394 981 q 333 1022 350 1010 q 299 1033 315 1033 q 267 1020 281 1033 q 250 969 254 1007 l 108 981 q 166 1138 115 1090 q 290 1186 217 1186 q 356 1174 328 1186 q 407 1148 385 1163 q 447 1122 429 1133 q 479 1110 464 1110 q 510 1124 497 1110 q 528 1174 522 1138 l 669 1163 q 613 1006 664 1054 q 488 957 561 957 z "},"Ợ":{"ha":833,"x_min":50,"x_max":836,"o":"m 671 813 l 571 883 q 631 923 611 896 q 651 1001 651 950 q 644 1053 651 1029 q 629 1093 638 1078 l 793 1158 q 823 1099 810 1136 q 836 1017 836 1061 q 797 887 836 938 q 671 813 757 836 m 417 -17 q 226 37 308 -17 q 97 195 143 90 q 50 456 50 300 q 97 712 50 608 q 226 868 143 815 q 417 921 308 921 q 608 868 525 921 q 737 712 690 815 q 783 456 783 608 q 737 195 783 300 q 608 37 690 90 q 417 -17 525 -17 m 417 175 q 491 206 460 175 q 540 300 522 238 q 557 456 557 363 q 540 607 557 546 q 491 699 522 668 q 417 729 460 729 q 342 699 374 729 q 294 607 311 668 q 276 456 276 546 q 294 300 276 363 q 342 206 311 238 q 417 175 374 175 z "},"Ṓ":{"ha":833,"x_min":50,"x_max":783,"o":"m 417 -17 q 226 37 308 -17 q 97 195 143 90 q 50 456 50 300 q 97 712 50 608 q 226 868 143 815 q 417 921 308 921 q 608 868 525 921 q 737 712 690 815 q 783 456 783 608 q 737 195 783 300 q 608 37 690 90 q 417 -17 525 -17 m 417 175 q 491 206 460 175 q 540 300 522 238 q 557 456 557 363 q 540 607 557 546 q 491 699 522 668 q 417 729 460 729 q 342 699 374 729 q 294 607 311 668 q 276 456 276 546 q 294 300 276 363 q 342 206 311 238 q 417 175 374 175 m 201 999 l 201 1139 l 632 1139 l 632 999 l 201 999 m 369 1160 l 297 1260 l 521 1408 l 610 1288 l 369 1160 z "},"Ø":{"ha":833,"x_min":21,"x_max":811,"o":"m 21 15 l 693 965 l 811 889 l 140 -61 l 21 15 m 417 -17 q 226 37 308 -17 q 97 195 143 90 q 50 456 50 300 q 97 712 50 608 q 226 868 143 815 q 417 921 308 921 q 608 868 525 921 q 737 712 690 815 q 783 456 783 608 q 737 195 783 300 q 608 37 690 90 q 417 -17 525 -17 m 417 175 q 491 206 460 175 q 540 300 522 238 q 557 456 557 363 q 540 607 557 546 q 491 699 522 668 q 417 729 460 729 q 342 699 374 729 q 294 607 311 668 q 276 456 276 546 q 294 300 276 363 q 342 206 311 238 q 417 175 374 175 z "},"Ǿ":{"ha":833,"x_min":21,"x_max":811,"o":"m 21 15 l 693 965 l 811 889 l 140 -61 l 21 15 m 417 -17 q 226 37 308 -17 q 97 195 143 90 q 50 456 50 300 q 97 712 50 608 q 226 868 143 815 q 417 921 308 921 q 608 868 525 921 q 737 712 690 815 q 783 456 783 608 q 737 195 783 300 q 608 37 690 90 q 417 -17 525 -17 m 417 175 q 491 206 460 175 q 540 300 522 238 q 557 456 557 363 q 540 607 557 546 q 491 699 522 668 q 417 729 460 729 q 342 699 374 729 q 294 607 311 668 q 276 456 276 546 q 294 300 276 363 q 342 206 311 238 q 417 175 374 175 m 364 940 l 265 1051 l 510 1249 l 626 1106 l 364 940 z "},"Œ":{"ha":833,"x_min":24,"x_max":826,"o":"m 397 0 q 206 48 292 0 q 72 197 121 96 q 24 456 24 299 q 74 713 24 614 q 213 858 125 811 q 410 904 300 904 l 813 904 l 813 718 l 601 718 l 601 557 l 761 557 l 761 371 l 601 371 l 601 186 l 826 186 l 826 0 l 397 0 m 383 178 l 404 178 l 404 726 l 383 726 q 313 703 343 726 q 267 622 283 681 q 250 456 250 564 q 267 288 250 347 q 313 203 283 228 q 383 178 343 178 z "},"Ŕ":{"ha":833,"x_min":89,"x_max":819,"o":"m 89 0 l 89 904 l 418 904 q 594 878 514 904 q 724 790 675 853 q 772 617 772 728 q 724 444 772 511 q 594 346 675 378 q 418 314 514 314 l 310 314 l 310 0 l 89 0 m 310 490 l 401 490 q 516 522 476 490 q 556 617 556 554 q 516 704 556 681 q 401 728 476 728 l 310 728 l 310 490 m 378 372 l 529 517 l 819 0 l 572 0 l 378 372 m 365 940 l 267 1051 l 511 1249 l 628 1106 l 365 940 z "},"Ř":{"ha":833,"x_min":89,"x_max":819,"o":"m 89 0 l 89 904 l 418 904 q 594 878 514 904 q 724 790 675 853 q 772 617 772 728 q 724 444 772 511 q 594 346 675 378 q 418 314 514 314 l 310 314 l 310 0 l 89 0 m 310 490 l 401 490 q 516 522 476 490 q 556 617 556 554 q 516 704 556 681 q 401 728 476 728 l 310 728 l 310 490 m 378 372 l 529 517 l 819 0 l 572 0 l 378 372 m 297 974 l 176 1126 l 272 1185 l 415 1071 l 421 1071 l 564 1185 l 660 1126 l 539 974 l 297 974 z "},"Ṙ":{"ha":833,"x_min":89,"x_max":819,"o":"m 89 0 l 89 904 l 418 904 q 594 878 514 904 q 724 790 675 853 q 772 617 772 728 q 724 444 772 511 q 594 346 675 378 q 418 314 514 314 l 310 314 l 310 0 l 89 0 m 310 490 l 401 490 q 516 522 476 490 q 556 617 556 554 q 516 704 556 681 q 401 728 476 728 l 310 728 l 310 490 m 378 372 l 529 517 l 819 0 l 572 0 l 378 372 m 418 969 q 322 1004 360 969 q 285 1093 285 1039 q 322 1183 285 1149 q 418 1217 360 1217 q 514 1183 476 1217 q 551 1093 551 1149 q 514 1004 551 1039 q 418 969 476 969 z "},"Ŗ":{"ha":833,"x_min":89,"x_max":819,"o":"m 89 0 l 89 904 l 418 904 q 594 878 514 904 q 724 790 675 853 q 772 617 772 728 q 724 444 772 511 q 594 346 675 378 q 418 314 514 314 l 310 314 l 310 0 l 89 0 m 310 490 l 401 490 q 516 522 476 490 q 556 617 556 554 q 516 704 556 681 q 401 728 476 728 l 310 728 l 310 490 m 378 372 l 529 517 l 819 0 l 572 0 l 378 372 m 299 -336 l 283 -249 q 393 -232 363 -244 q 424 -196 424 -219 q 403 -166 424 -178 q 338 -150 383 -154 l 379 -71 q 538 -108 494 -79 q 582 -189 582 -136 q 507 -296 582 -261 q 299 -336 432 -331 z "},"Ṛ":{"ha":833,"x_min":89,"x_max":819,"o":"m 89 0 l 89 904 l 418 904 q 594 878 514 904 q 724 790 675 853 q 772 617 772 728 q 724 444 772 511 q 594 346 675 378 q 418 314 514 314 l 310 314 l 310 0 l 89 0 m 310 490 l 401 490 q 516 522 476 490 q 556 617 556 554 q 516 704 556 681 q 401 728 476 728 l 310 728 l 310 490 m 378 372 l 529 517 l 819 0 l 572 0 l 378 372 z "},"Ṝ":{"ha":833,"x_min":89,"x_max":819,"o":"m 89 0 l 89 904 l 418 904 q 594 878 514 904 q 724 790 675 853 q 772 617 772 728 q 724 444 772 511 q 594 346 675 378 q 418 314 514 314 l 310 314 l 310 0 l 89 0 m 310 490 l 401 490 q 516 522 476 490 q 556 617 556 554 q 516 704 556 681 q 401 728 476 728 l 310 728 l 310 490 m 378 372 l 529 517 l 819 0 l 572 0 l 378 372 m 203 999 l 203 1139 l 633 1139 l 633 999 l 203 999 z "},"Ṟ":{"ha":833,"x_min":89,"x_max":819,"o":"m 89 0 l 89 904 l 418 904 q 594 878 514 904 q 724 790 675 853 q 772 617 772 728 q 724 444 772 511 q 594 346 675 378 q 418 314 514 314 l 310 314 l 310 0 l 89 0 m 310 490 l 401 490 q 516 522 476 490 q 556 617 556 554 q 516 704 556 681 q 401 728 476 728 l 310 728 l 310 490 m 378 372 l 529 517 l 819 0 l 572 0 l 378 372 z "},"Ś":{"ha":833,"x_min":65,"x_max":768,"o":"m 413 -17 q 231 16 322 -17 q 65 114 140 49 l 192 265 q 305 200 244 225 q 428 175 365 175 q 515 194 488 175 q 542 240 542 213 q 526 287 542 269 q 479 317 510 304 q 407 347 449 331 l 292 396 q 197 449 240 415 q 126 531 153 482 q 100 646 100 581 q 142 784 100 722 q 261 883 185 846 q 439 921 338 921 q 599 891 519 921 q 743 801 679 861 l 632 661 q 538 712 583 694 q 426 729 492 729 q 353 712 382 729 q 325 658 325 694 q 342 619 325 635 q 392 590 360 603 q 469 560 425 576 l 576 515 q 680 459 638 493 q 745 378 722 425 q 768 268 768 332 q 727 127 768 192 q 607 23 686 63 q 413 -17 528 -17 m 390 940 l 292 1051 l 536 1249 l 653 1106 l 390 940 z "},"Ŝ":{"ha":833,"x_min":65,"x_max":768,"o":"m 413 -17 q 231 16 322 -17 q 65 114 140 49 l 192 265 q 305 200 244 225 q 428 175 365 175 q 515 194 488 175 q 542 240 542 213 q 526 287 542 269 q 479 317 510 304 q 407 347 449 331 l 292 396 q 197 449 240 415 q 126 531 153 482 q 100 646 100 581 q 142 784 100 722 q 261 883 185 846 q 439 921 338 921 q 599 891 519 921 q 743 801 679 861 l 632 661 q 538 712 583 694 q 426 729 492 729 q 353 712 382 729 q 325 658 325 694 q 342 619 325 635 q 392 590 360 603 q 469 560 425 576 l 576 515 q 680 459 638 493 q 745 378 722 425 q 768 268 768 332 q 727 127 768 192 q 607 23 686 63 q 413 -17 528 -17 m 297 949 l 201 1006 l 322 1160 l 564 1160 l 685 1006 l 589 949 l 446 1061 l 440 1061 l 297 949 z "},"Š":{"ha":833,"x_min":65,"x_max":768,"o":"m 413 -17 q 231 16 322 -17 q 65 114 140 49 l 192 265 q 305 200 244 225 q 428 175 365 175 q 515 194 488 175 q 542 240 542 213 q 526 287 542 269 q 479 317 510 304 q 407 347 449 331 l 292 396 q 197 449 240 415 q 126 531 153 482 q 100 646 100 581 q 142 784 100 722 q 261 883 185 846 q 439 921 338 921 q 599 891 519 921 q 743 801 679 861 l 632 661 q 538 712 583 694 q 426 729 492 729 q 353 712 382 729 q 325 658 325 694 q 342 619 325 635 q 392 590 360 603 q 469 560 425 576 l 576 515 q 680 459 638 493 q 745 378 722 425 q 768 268 768 332 q 727 127 768 192 q 607 23 686 63 q 413 -17 528 -17 m 322 974 l 201 1126 l 297 1185 l 440 1071 l 446 1071 l 589 1185 l 685 1126 l 564 974 l 322 974 z "},"Ṧ":{"ha":833,"x_min":65,"x_max":768,"o":"m 413 -17 q 231 16 322 -17 q 65 114 140 49 l 192 265 q 305 200 244 225 q 428 175 365 175 q 515 194 488 175 q 542 240 542 213 q 526 287 542 269 q 479 317 510 304 q 407 347 449 331 l 292 396 q 197 449 240 415 q 126 531 153 482 q 100 646 100 581 q 142 784 100 722 q 261 883 185 846 q 439 921 338 921 q 599 891 519 921 q 743 801 679 861 l 632 661 q 538 712 583 694 q 426 729 492 729 q 353 712 382 729 q 325 658 325 694 q 342 619 325 635 q 392 590 360 603 q 469 560 425 576 l 576 515 q 680 459 638 493 q 745 378 722 425 q 768 268 768 332 q 727 127 768 192 q 607 23 686 63 q 413 -17 528 -17 m 443 1135 q 364 1164 396 1135 q 332 1240 332 1193 q 364 1318 332 1288 q 443 1349 396 1349 q 522 1318 490 1349 q 554 1240 554 1288 q 522 1164 554 1193 q 443 1135 490 1135 m 322 974 l 189 1114 l 260 1185 l 440 1071 l 446 1071 l 626 1185 l 697 1114 l 564 974 l 322 974 z "},"Ş":{"ha":833,"x_min":65,"x_max":768,"o":"m 413 -17 q 231 16 322 -17 q 65 114 140 49 l 192 265 q 305 200 244 225 q 428 175 365 175 q 515 194 488 175 q 542 240 542 213 q 526 287 542 269 q 479 317 510 304 q 407 347 449 331 l 292 396 q 197 449 240 415 q 126 531 153 482 q 100 646 100 581 q 142 784 100 722 q 261 883 185 846 q 439 921 338 921 q 599 891 519 921 q 743 801 679 861 l 632 661 q 538 712 583 694 q 426 729 492 729 q 353 712 382 729 q 325 658 325 694 q 342 619 325 635 q 392 590 360 603 q 469 560 425 576 l 576 515 q 680 459 638 493 q 745 378 722 425 q 768 268 768 332 q 727 127 768 192 q 607 23 686 63 q 413 -17 528 -17 m 275 -336 l 260 -249 q 369 -231 339 -244 q 400 -189 400 -218 q 379 -154 400 -168 q 294 -132 358 -140 l 367 15 l 493 15 l 450 -85 q 531 -120 504 -96 q 558 -189 558 -144 q 483 -296 558 -261 q 275 -336 408 -331 z "},"Ș":{"ha":833,"x_min":65,"x_max":768,"o":"m 413 -17 q 231 16 322 -17 q 65 114 140 49 l 192 265 q 305 200 244 225 q 428 175 365 175 q 515 194 488 175 q 542 240 542 213 q 526 287 542 269 q 479 317 510 304 q 407 347 449 331 l 292 396 q 197 449 240 415 q 126 531 153 482 q 100 646 100 581 q 142 784 100 722 q 261 883 185 846 q 439 921 338 921 q 599 891 519 921 q 743 801 679 861 l 632 661 q 538 712 583 694 q 426 729 492 729 q 353 712 382 729 q 325 658 325 694 q 342 619 325 635 q 392 590 360 603 q 469 560 425 576 l 576 515 q 680 459 638 493 q 745 378 722 425 q 768 268 768 332 q 727 127 768 192 q 607 23 686 63 q 413 -17 528 -17 m 274 -336 l 258 -249 q 368 -232 338 -244 q 399 -196 399 -219 q 378 -166 399 -178 q 313 -150 358 -154 l 354 -71 q 513 -108 469 -79 q 557 -189 557 -136 q 482 -296 557 -261 q 274 -336 407 -331 z "},"Ṡ":{"ha":833,"x_min":65,"x_max":768,"o":"m 413 -17 q 231 16 322 -17 q 65 114 140 49 l 192 265 q 305 200 244 225 q 428 175 365 175 q 515 194 488 175 q 542 240 542 213 q 526 287 542 269 q 479 317 510 304 q 407 347 449 331 l 292 396 q 197 449 240 415 q 126 531 153 482 q 100 646 100 581 q 142 784 100 722 q 261 883 185 846 q 439 921 338 921 q 599 891 519 921 q 743 801 679 861 l 632 661 q 538 712 583 694 q 426 729 492 729 q 353 712 382 729 q 325 658 325 694 q 342 619 325 635 q 392 590 360 603 q 469 560 425 576 l 576 515 q 680 459 638 493 q 745 378 722 425 q 768 268 768 332 q 727 127 768 192 q 607 23 686 63 q 413 -17 528 -17 m 443 969 q 347 1004 385 969 q 310 1093 310 1039 q 347 1183 310 1149 q 443 1217 385 1217 q 539 1183 501 1217 q 576 1093 576 1149 q 539 1004 576 1039 q 443 969 501 969 z "},"Ṣ":{"ha":833,"x_min":65,"x_max":768,"o":"m 413 -17 q 231 16 322 -17 q 65 114 140 49 l 192 265 q 305 200 244 225 q 428 175 365 175 q 515 194 488 175 q 542 240 542 213 q 526 287 542 269 q 479 317 510 304 q 407 347 449 331 l 292 396 q 197 449 240 415 q 126 531 153 482 q 100 646 100 581 q 142 784 100 722 q 261 883 185 846 q 439 921 338 921 q 599 891 519 921 q 743 801 679 861 l 632 661 q 538 712 583 694 q 426 729 492 729 q 353 712 382 729 q 325 658 325 694 q 342 619 325 635 q 392 590 360 603 q 469 560 425 576 l 576 515 q 680 459 638 493 q 745 378 722 425 q 768 268 768 332 q 727 127 768 192 q 607 23 686 63 q 413 -17 528 -17 z "},"ẞ":{"ha":833,"x_min":85,"x_max":808,"o":"m 546 -17 q 424 8 478 -17 q 336 69 369 33 l 425 204 q 469 172 447 183 q 517 161 490 161 q 560 183 542 161 q 579 238 579 204 q 564 291 579 265 q 515 338 549 317 q 428 374 481 358 l 413 501 l 546 703 l 526 636 q 492 719 522 696 q 419 742 461 742 q 335 701 364 742 q 307 575 307 660 l 307 0 l 85 0 l 85 604 q 119 766 85 694 q 228 879 154 838 q 418 921 301 921 q 631 849 547 921 q 740 658 714 776 l 613 463 l 603 518 q 721 440 675 481 q 788 349 767 399 q 808 236 808 300 q 781 108 808 165 q 695 17 753 51 q 546 -17 638 -17 z "},"Ť":{"ha":833,"x_min":40,"x_max":793,"o":"m 306 0 l 306 718 l 40 718 l 40 904 l 793 904 l 793 718 l 528 718 l 528 0 l 306 0 m 296 974 l 175 1126 l 271 1185 l 414 1071 l 419 1071 l 563 1185 l 658 1126 l 538 974 l 296 974 z "},"Ţ":{"ha":833,"x_min":40,"x_max":793,"o":"m 306 0 l 306 718 l 40 718 l 40 904 l 793 904 l 793 718 l 528 718 l 528 0 l 306 0 m 271 -336 l 256 -249 q 365 -231 335 -244 q 396 -189 396 -218 q 375 -154 396 -168 q 290 -132 354 -140 l 363 15 l 489 15 l 446 -85 q 527 -120 500 -96 q 554 -189 554 -144 q 479 -296 554 -261 q 271 -336 404 -331 z "},"Ț":{"ha":833,"x_min":40,"x_max":793,"o":"m 306 0 l 306 718 l 40 718 l 40 904 l 793 904 l 793 718 l 528 718 l 528 0 l 306 0 m 271 -336 l 256 -249 q 365 -232 335 -244 q 396 -196 396 -219 q 376 -166 396 -178 q 310 -150 356 -154 l 351 -71 q 510 -108 467 -79 q 554 -189 554 -136 q 479 -296 554 -261 q 271 -336 404 -331 z "},"Ṭ":{"ha":833,"x_min":40,"x_max":793,"o":"m 306 0 l 306 718 l 40 718 l 40 904 l 793 904 l 793 718 l 528 718 l 528 0 l 306 0 z "},"Ṯ":{"ha":833,"x_min":40,"x_max":793,"o":"m 306 0 l 306 718 l 40 718 l 40 904 l 793 904 l 793 718 l 528 718 l 528 0 l 306 0 z "},"Ŧ":{"ha":833,"x_min":40,"x_max":793,"o":"m 122 386 l 122 486 l 256 494 l 711 494 l 711 386 l 122 386 m 306 0 l 306 718 l 40 718 l 40 904 l 793 904 l 793 718 l 528 718 l 528 0 l 306 0 z "},"Ù":{"ha":833,"x_min":85,"x_max":749,"o":"m 419 -17 q 271 8 333 -17 q 167 81 208 33 q 106 195 126 128 q 85 349 85 263 l 85 904 l 307 904 l 307 325 q 318 244 307 278 q 354 193 329 211 q 419 175 379 175 q 485 193 460 175 q 523 244 511 211 q 535 325 535 278 l 535 904 l 749 904 l 749 349 q 729 195 749 263 q 669 81 710 128 q 567 8 629 33 q 419 -17 506 -17 m 469 940 l 207 1106 l 324 1249 l 568 1051 l 469 940 z "},"Ú":{"ha":833,"x_min":85,"x_max":749,"o":"m 419 -17 q 271 8 333 -17 q 167 81 208 33 q 106 195 126 128 q 85 349 85 263 l 85 904 l 307 904 l 307 325 q 318 244 307 278 q 354 193 329 211 q 419 175 379 175 q 485 193 460 175 q 523 244 511 211 q 535 325 535 278 l 535 904 l 749 904 l 749 349 q 729 195 749 263 q 669 81 710 128 q 567 8 629 33 q 419 -17 506 -17 m 364 940 l 265 1051 l 510 1249 l 626 1106 l 364 940 z "},"Û":{"ha":833,"x_min":85,"x_max":749,"o":"m 419 -17 q 271 8 333 -17 q 167 81 208 33 q 106 195 126 128 q 85 349 85 263 l 85 904 l 307 904 l 307 325 q 318 244 307 278 q 354 193 329 211 q 419 175 379 175 q 485 193 460 175 q 523 244 511 211 q 535 325 535 278 l 535 904 l 749 904 l 749 349 q 729 195 749 263 q 669 81 710 128 q 567 8 629 33 q 419 -17 506 -17 m 271 949 l 175 1006 l 296 1160 l 538 1160 l 658 1006 l 563 949 l 419 1061 l 414 1061 l 271 949 z "},"Ũ":{"ha":833,"x_min":85,"x_max":749,"o":"m 419 -17 q 271 8 333 -17 q 167 81 208 33 q 106 195 126 128 q 85 349 85 263 l 85 904 l 307 904 l 307 325 q 318 244 307 278 q 354 193 329 211 q 419 175 379 175 q 485 193 460 175 q 523 244 511 211 q 535 325 535 278 l 535 904 l 749 904 l 749 349 q 729 195 749 263 q 669 81 710 128 q 567 8 629 33 q 419 -17 506 -17 m 515 957 q 450 969 478 957 q 400 995 422 981 q 360 1022 378 1010 q 326 1033 343 1033 q 295 1020 308 1033 q 278 969 282 1007 l 136 981 q 194 1138 143 1090 q 318 1186 244 1186 q 384 1174 356 1186 q 435 1148 413 1163 q 474 1122 457 1133 q 507 1110 492 1110 q 538 1124 525 1110 q 556 1174 550 1138 l 697 1163 q 640 1006 692 1054 q 515 957 589 957 z "},"Ü":{"ha":833,"x_min":85,"x_max":749,"o":"m 419 -17 q 271 8 333 -17 q 167 81 208 33 q 106 195 126 128 q 85 349 85 263 l 85 904 l 307 904 l 307 325 q 318 244 307 278 q 354 193 329 211 q 419 175 379 175 q 485 193 460 175 q 523 244 511 211 q 535 325 535 278 l 535 904 l 749 904 l 749 349 q 729 195 749 263 q 669 81 710 128 q 567 8 629 33 q 419 -17 506 -17 m 258 968 q 181 999 211 968 q 150 1076 150 1031 q 181 1153 150 1122 q 258 1183 211 1183 q 335 1153 306 1183 q 365 1076 365 1122 q 335 999 365 1031 q 258 968 306 968 m 575 968 q 498 999 528 968 q 468 1076 468 1031 q 498 1153 468 1122 q 575 1183 528 1183 q 653 1153 622 1183 q 683 1076 683 1122 q 653 999 683 1031 q 575 968 622 968 z "},"Ū":{"ha":833,"x_min":85,"x_max":749,"o":"m 419 -17 q 271 8 333 -17 q 167 81 208 33 q 106 195 126 128 q 85 349 85 263 l 85 904 l 307 904 l 307 325 q 318 244 307 278 q 354 193 329 211 q 419 175 379 175 q 485 193 460 175 q 523 244 511 211 q 535 325 535 278 l 535 904 l 749 904 l 749 349 q 729 195 749 263 q 669 81 710 128 q 567 8 629 33 q 419 -17 506 -17 m 201 999 l 201 1139 l 632 1139 l 632 999 l 201 999 z "},"Ŭ":{"ha":833,"x_min":85,"x_max":749,"o":"m 419 -17 q 271 8 333 -17 q 167 81 208 33 q 106 195 126 128 q 85 349 85 263 l 85 904 l 307 904 l 307 325 q 318 244 307 278 q 354 193 329 211 q 419 175 379 175 q 485 193 460 175 q 523 244 511 211 q 535 325 535 278 l 535 904 l 749 904 l 749 349 q 729 195 749 263 q 669 81 710 128 q 567 8 629 33 q 419 -17 506 -17 m 417 967 q 298 988 347 967 q 220 1051 249 1008 q 185 1158 192 1094 l 306 1179 q 343 1115 314 1138 q 417 1093 372 1093 q 490 1115 461 1093 q 528 1179 519 1138 l 649 1158 q 613 1051 642 1094 q 535 988 585 1008 q 417 967 486 967 z "},"Ů":{"ha":833,"x_min":85,"x_max":749,"o":"m 419 -17 q 271 8 333 -17 q 167 81 208 33 q 106 195 126 128 q 85 349 85 263 l 85 904 l 307 904 l 307 325 q 318 244 307 278 q 354 193 329 211 q 419 175 379 175 q 485 193 460 175 q 523 244 511 211 q 535 325 535 278 l 535 904 l 749 904 l 749 349 q 729 195 749 263 q 669 81 710 128 q 567 8 629 33 q 419 -17 506 -17 m 417 967 q 299 1006 344 967 q 254 1107 254 1044 q 299 1208 254 1171 q 417 1246 344 1246 q 534 1208 489 1246 q 579 1107 579 1171 q 534 1006 579 1044 q 417 967 489 967 m 417 1049 q 456 1065 440 1049 q 472 1107 472 1081 q 456 1149 472 1133 q 417 1165 440 1165 q 377 1149 393 1165 q 361 1107 361 1133 q 377 1065 361 1081 q 417 1049 393 1049 z "},"Ű":{"ha":833,"x_min":85,"x_max":767,"o":"m 419 -17 q 271 8 333 -17 q 167 81 208 33 q 106 195 126 128 q 85 349 85 263 l 85 904 l 307 904 l 307 325 q 318 244 307 278 q 354 193 329 211 q 419 175 379 175 q 485 193 460 175 q 523 244 511 211 q 535 325 535 278 l 535 904 l 749 904 l 749 349 q 729 195 749 263 q 669 81 710 128 q 567 8 629 33 q 419 -17 506 -17 m 326 961 l 218 1013 l 360 1239 l 500 1160 l 326 961 m 594 961 l 485 1013 l 628 1239 l 767 1160 l 594 961 z "},"Ǔ":{"ha":833,"x_min":85,"x_max":749,"o":"m 419 -17 q 271 8 333 -17 q 167 81 208 33 q 106 195 126 128 q 85 349 85 263 l 85 904 l 307 904 l 307 325 q 318 244 307 278 q 354 193 329 211 q 419 175 379 175 q 485 193 460 175 q 523 244 511 211 q 535 325 535 278 l 535 904 l 749 904 l 749 349 q 729 195 749 263 q 669 81 710 128 q 567 8 629 33 q 419 -17 506 -17 m 296 974 l 175 1126 l 271 1185 l 414 1071 l 419 1071 l 563 1185 l 658 1126 l 538 974 l 296 974 z "},"Ų":{"ha":833,"x_min":85,"x_max":749,"o":"m 449 -317 q 331 -281 379 -317 q 283 -182 283 -244 q 301 -103 283 -137 q 340 -47 318 -69 q 372 -14 361 -24 q 213 38 276 -7 q 117 162 150 83 q 85 349 85 240 l 85 904 l 307 904 l 307 325 q 318 244 307 278 q 354 193 329 211 q 419 175 379 175 q 485 193 460 175 q 523 244 511 211 q 535 325 535 278 l 535 904 l 749 904 l 749 349 q 729 199 749 265 q 672 87 710 133 q 574 13 633 40 q 490 -37 518 -14 q 453 -82 463 -61 q 443 -122 443 -103 q 462 -162 443 -150 q 503 -174 481 -174 q 529 -166 517 -174 q 553 -153 542 -158 l 603 -264 q 531 -301 574 -286 q 449 -317 489 -317 z "},"Ǖ":{"ha":833,"x_min":85,"x_max":749,"o":"m 419 -17 q 271 8 333 -17 q 167 81 208 33 q 106 195 126 128 q 85 349 85 263 l 85 904 l 307 904 l 307 325 q 318 244 307 278 q 354 193 329 211 q 419 175 379 175 q 485 193 460 175 q 523 244 511 211 q 535 325 535 278 l 535 904 l 749 904 l 749 349 q 729 195 749 263 q 669 81 710 128 q 567 8 629 33 q 419 -17 506 -17 m 261 968 q 196 994 221 968 q 171 1058 171 1021 q 196 1123 171 1097 q 261 1149 221 1149 q 325 1123 300 1149 q 350 1058 350 1097 q 325 994 350 1021 q 261 968 300 968 m 572 968 q 508 994 533 968 q 483 1058 483 1021 q 508 1123 483 1097 q 572 1149 533 1149 q 638 1123 613 1149 q 663 1058 663 1097 q 638 994 663 1021 q 572 968 613 968 m 201 1214 l 201 1315 l 632 1315 l 632 1214 l 201 1214 z "},"Ǘ":{"ha":833,"x_min":85,"x_max":749,"o":"m 419 -17 q 271 8 333 -17 q 167 81 208 33 q 106 195 126 128 q 85 349 85 263 l 85 904 l 307 904 l 307 325 q 318 244 307 278 q 354 193 329 211 q 419 175 379 175 q 485 193 460 175 q 523 244 511 211 q 535 325 535 278 l 535 904 l 749 904 l 749 349 q 729 195 749 263 q 669 81 710 128 q 567 8 629 33 q 419 -17 506 -17 m 261 968 q 196 994 221 968 q 171 1058 171 1021 q 196 1123 171 1097 q 261 1149 221 1149 q 325 1123 300 1149 q 350 1058 350 1097 q 325 994 350 1021 q 261 968 300 968 m 572 968 q 508 994 533 968 q 483 1058 483 1021 q 508 1123 483 1097 q 572 1149 533 1149 q 638 1123 613 1149 q 663 1058 663 1097 q 638 994 663 1021 q 572 968 613 968 m 431 1147 l 335 1204 l 468 1411 l 606 1328 l 431 1147 z "},"Ǚ":{"ha":833,"x_min":85,"x_max":749,"o":"m 419 -17 q 271 8 333 -17 q 167 81 208 33 q 106 195 126 128 q 85 349 85 263 l 85 904 l 307 904 l 307 325 q 318 244 307 278 q 354 193 329 211 q 419 175 379 175 q 485 193 460 175 q 523 244 511 211 q 535 325 535 278 l 535 904 l 749 904 l 749 349 q 729 195 749 263 q 669 81 710 128 q 567 8 629 33 q 419 -17 506 -17 m 261 968 q 196 994 221 968 q 171 1058 171 1021 q 196 1123 171 1097 q 261 1149 221 1149 q 325 1123 300 1149 q 350 1058 350 1097 q 325 994 350 1021 q 261 968 300 968 m 572 968 q 508 994 533 968 q 483 1058 483 1021 q 508 1123 483 1097 q 572 1149 533 1149 q 638 1123 613 1149 q 663 1058 663 1097 q 638 994 663 1021 q 572 968 613 968 m 321 1190 l 197 1333 l 285 1392 l 414 1290 l 419 1290 l 549 1392 l 636 1333 l 513 1190 l 321 1190 z "},"Ǜ":{"ha":833,"x_min":85,"x_max":749,"o":"m 419 -17 q 271 8 333 -17 q 167 81 208 33 q 106 195 126 128 q 85 349 85 263 l 85 904 l 307 904 l 307 325 q 318 244 307 278 q 354 193 329 211 q 419 175 379 175 q 485 193 460 175 q 523 244 511 211 q 535 325 535 278 l 535 904 l 749 904 l 749 349 q 729 195 749 263 q 669 81 710 128 q 567 8 629 33 q 419 -17 506 -17 m 261 968 q 196 994 221 968 q 171 1058 171 1021 q 196 1123 171 1097 q 261 1149 221 1149 q 325 1123 300 1149 q 350 1058 350 1097 q 325 994 350 1021 q 261 968 300 968 m 572 968 q 508 994 533 968 q 483 1058 483 1021 q 508 1123 483 1097 q 572 1149 533 1149 q 638 1123 613 1149 q 663 1058 663 1097 q 638 994 663 1021 q 572 968 613 968 m 403 1147 l 228 1328 l 365 1411 l 499 1204 l 403 1147 z "},"Ụ":{"ha":833,"x_min":85,"x_max":749,"o":"m 419 -17 q 271 8 333 -17 q 167 81 208 33 q 106 195 126 128 q 85 349 85 263 l 85 904 l 307 904 l 307 325 q 318 244 307 278 q 354 193 329 211 q 419 175 379 175 q 485 193 460 175 q 523 244 511 211 q 535 325 535 278 l 535 904 l 749 904 l 749 349 q 729 195 749 263 q 669 81 710 128 q 567 8 629 33 q 419 -17 506 -17 z "},"Ủ":{"ha":833,"x_min":85,"x_max":749,"o":"m 419 -17 q 271 8 333 -17 q 167 81 208 33 q 106 195 126 128 q 85 349 85 263 l 85 904 l 307 904 l 307 325 q 318 244 307 278 q 354 193 329 211 q 419 175 379 175 q 485 193 460 175 q 523 244 511 211 q 535 325 535 278 l 535 904 l 749 904 l 749 349 q 729 195 749 263 q 669 81 710 128 q 567 8 629 33 q 419 -17 506 -17 m 353 957 l 338 1044 q 379 1056 363 1047 q 396 1082 396 1064 q 372 1110 396 1100 q 286 1125 347 1121 l 313 1235 q 456 1215 403 1232 q 532 1170 510 1199 q 554 1104 554 1142 q 526 1024 554 1056 q 453 977 499 993 q 353 957 408 961 z "},"Ư":{"ha":833,"x_min":85,"x_max":925,"o":"m 749 824 l 642 904 q 688 912 665 904 q 726 940 711 919 q 742 1004 742 961 q 734 1056 742 1032 q 719 1096 726 1081 l 882 1161 q 912 1101 899 1139 q 925 1019 925 1063 q 904 922 925 961 q 844 858 883 882 q 749 824 804 835 m 419 -17 q 271 8 333 -17 q 167 81 208 33 q 106 195 126 128 q 85 349 85 263 l 85 904 l 307 904 l 307 325 q 318 244 307 278 q 354 193 329 211 q 419 175 379 175 q 485 193 460 175 q 523 244 511 211 q 535 325 535 278 l 535 904 l 749 904 l 749 349 q 729 195 749 263 q 669 81 710 128 q 567 8 629 33 q 419 -17 506 -17 z "},"Ứ":{"ha":833,"x_min":85,"x_max":925,"o":"m 749 824 l 642 904 q 688 912 665 904 q 726 940 711 919 q 742 1004 742 961 q 734 1056 742 1032 q 719 1096 726 1081 l 882 1161 q 912 1101 899 1139 q 925 1019 925 1063 q 904 922 925 961 q 844 858 883 882 q 749 824 804 835 m 419 -17 q 271 8 333 -17 q 167 81 208 33 q 106 195 126 128 q 85 349 85 263 l 85 904 l 307 904 l 307 325 q 318 244 307 278 q 354 193 329 211 q 419 175 379 175 q 485 193 460 175 q 523 244 511 211 q 535 325 535 278 l 535 904 l 749 904 l 749 349 q 729 195 749 263 q 669 81 710 128 q 567 8 629 33 q 419 -17 506 -17 m 364 940 l 265 1051 l 510 1249 l 626 1106 l 364 940 z "},"Ừ":{"ha":833,"x_min":85,"x_max":925,"o":"m 749 824 l 642 904 q 688 912 665 904 q 726 940 711 919 q 742 1004 742 961 q 734 1056 742 1032 q 719 1096 726 1081 l 882 1161 q 912 1101 899 1139 q 925 1019 925 1063 q 904 922 925 961 q 844 858 883 882 q 749 824 804 835 m 419 -17 q 271 8 333 -17 q 167 81 208 33 q 106 195 126 128 q 85 349 85 263 l 85 904 l 307 904 l 307 325 q 318 244 307 278 q 354 193 329 211 q 419 175 379 175 q 485 193 460 175 q 523 244 511 211 q 535 325 535 278 l 535 904 l 749 904 l 749 349 q 729 195 749 263 q 669 81 710 128 q 567 8 629 33 q 419 -17 506 -17 m 469 940 l 207 1106 l 324 1249 l 568 1051 l 469 940 z "},"Ử":{"ha":833,"x_min":85,"x_max":925,"o":"m 749 824 l 642 904 q 688 912 665 904 q 726 940 711 919 q 742 1004 742 961 q 734 1056 742 1032 q 719 1096 726 1081 l 882 1161 q 912 1101 899 1139 q 925 1019 925 1063 q 904 922 925 961 q 844 858 883 882 q 749 824 804 835 m 419 -17 q 271 8 333 -17 q 167 81 208 33 q 106 195 126 128 q 85 349 85 263 l 85 904 l 307 904 l 307 325 q 318 244 307 278 q 354 193 329 211 q 419 175 379 175 q 485 193 460 175 q 523 244 511 211 q 535 325 535 278 l 535 904 l 749 904 l 749 349 q 729 195 749 263 q 669 81 710 128 q 567 8 629 33 q 419 -17 506 -17 m 353 957 l 338 1044 q 379 1056 363 1047 q 396 1082 396 1064 q 372 1110 396 1100 q 286 1125 347 1121 l 313 1235 q 456 1215 403 1232 q 532 1170 510 1199 q 554 1104 554 1142 q 526 1024 554 1056 q 453 977 499 993 q 353 957 408 961 z "},"Ữ":{"ha":833,"x_min":85,"x_max":925,"o":"m 749 824 l 642 904 q 688 912 665 904 q 726 940 711 919 q 742 1004 742 961 q 734 1056 742 1032 q 719 1096 726 1081 l 882 1161 q 912 1101 899 1139 q 925 1019 925 1063 q 904 922 925 961 q 844 858 883 882 q 749 824 804 835 m 419 -17 q 271 8 333 -17 q 167 81 208 33 q 106 195 126 128 q 85 349 85 263 l 85 904 l 307 904 l 307 325 q 318 244 307 278 q 354 193 329 211 q 419 175 379 175 q 485 193 460 175 q 523 244 511 211 q 535 325 535 278 l 535 904 l 749 904 l 749 349 q 729 195 749 263 q 669 81 710 128 q 567 8 629 33 q 419 -17 506 -17 m 515 957 q 450 969 478 957 q 400 995 422 981 q 360 1022 378 1010 q 326 1033 343 1033 q 295 1020 308 1033 q 278 969 282 1007 l 136 981 q 194 1138 143 1090 q 318 1186 244 1186 q 384 1174 356 1186 q 435 1148 413 1163 q 474 1122 457 1133 q 507 1110 492 1110 q 538 1124 525 1110 q 556 1174 550 1138 l 697 1163 q 640 1006 692 1054 q 515 957 589 957 z "},"Ự":{"ha":833,"x_min":85,"x_max":925,"o":"m 749 824 l 642 904 q 688 912 665 904 q 726 940 711 919 q 742 1004 742 961 q 734 1056 742 1032 q 719 1096 726 1081 l 882 1161 q 912 1101 899 1139 q 925 1019 925 1063 q 904 922 925 961 q 844 858 883 882 q 749 824 804 835 m 419 -17 q 271 8 333 -17 q 167 81 208 33 q 106 195 126 128 q 85 349 85 263 l 85 904 l 307 904 l 307 325 q 318 244 307 278 q 354 193 329 211 q 419 175 379 175 q 485 193 460 175 q 523 244 511 211 q 535 325 535 278 l 535 904 l 749 904 l 749 349 q 729 195 749 263 q 669 81 710 128 q 567 8 629 33 q 419 -17 506 -17 z "},"Ṿ":{"ha":833,"x_min":13,"x_max":821,"o":"m 283 0 l 13 904 l 247 904 l 350 496 q 385 352 369 422 q 419 208 400 282 l 425 208 q 460 352 444 282 q 494 496 475 422 l 593 904 l 821 904 l 550 0 l 283 0 z "},"Ẁ":{"ha":833,"x_min":4,"x_max":831,"o":"m 121 0 l 4 904 l 233 904 l 251 439 q 253 363 253 401 q 253 287 253 325 q 254 210 254 249 l 260 210 q 273 287 265 249 q 289 363 281 325 q 304 439 297 401 l 360 675 l 494 675 l 546 439 q 560 365 553 403 q 576 289 568 328 q 590 210 585 250 l 596 210 q 597 289 596 250 q 597 365 597 328 q 599 439 597 401 l 617 904 l 831 904 l 722 0 l 489 0 l 442 264 q 428 353 435 308 q 419 439 422 399 l 415 439 q 406 353 413 399 q 393 264 400 308 l 349 0 l 121 0 m 469 940 l 207 1106 l 324 1249 l 568 1051 l 469 940 z "},"Ẃ":{"ha":833,"x_min":4,"x_max":831,"o":"m 121 0 l 4 904 l 233 904 l 251 439 q 253 363 253 401 q 253 287 253 325 q 254 210 254 249 l 260 210 q 273 287 265 249 q 289 363 281 325 q 304 439 297 401 l 360 675 l 494 675 l 546 439 q 560 365 553 403 q 576 289 568 328 q 590 210 585 250 l 596 210 q 597 289 596 250 q 597 365 597 328 q 599 439 597 401 l 617 904 l 831 904 l 722 0 l 489 0 l 442 264 q 428 353 435 308 q 419 439 422 399 l 415 439 q 406 353 413 399 q 393 264 400 308 l 349 0 l 121 0 m 364 940 l 265 1051 l 510 1249 l 626 1106 l 364 940 z "},"Ŵ":{"ha":833,"x_min":4,"x_max":831,"o":"m 121 0 l 4 904 l 233 904 l 251 439 q 253 363 253 401 q 253 287 253 325 q 254 210 254 249 l 260 210 q 273 287 265 249 q 289 363 281 325 q 304 439 297 401 l 360 675 l 494 675 l 546 439 q 560 365 553 403 q 576 289 568 328 q 590 210 585 250 l 596 210 q 597 289 596 250 q 597 365 597 328 q 599 439 597 401 l 617 904 l 831 904 l 722 0 l 489 0 l 442 264 q 428 353 435 308 q 419 439 422 399 l 415 439 q 406 353 413 399 q 393 264 400 308 l 349 0 l 121 0 m 271 949 l 175 1006 l 296 1160 l 538 1160 l 658 1006 l 563 949 l 419 1061 l 414 1061 l 271 949 z "},"Ẅ":{"ha":833,"x_min":4,"x_max":831,"o":"m 121 0 l 4 904 l 233 904 l 251 439 q 253 363 253 401 q 253 287 253 325 q 254 210 254 249 l 260 210 q 273 287 265 249 q 289 363 281 325 q 304 439 297 401 l 360 675 l 494 675 l 546 439 q 560 365 553 403 q 576 289 568 328 q 590 210 585 250 l 596 210 q 597 289 596 250 q 597 365 597 328 q 599 439 597 401 l 617 904 l 831 904 l 722 0 l 489 0 l 442 264 q 428 353 435 308 q 419 439 422 399 l 415 439 q 406 353 413 399 q 393 264 400 308 l 349 0 l 121 0 m 258 968 q 181 999 211 968 q 150 1076 150 1031 q 181 1153 150 1122 q 258 1183 211 1183 q 335 1153 306 1183 q 365 1076 365 1122 q 335 999 365 1031 q 258 968 306 968 m 575 968 q 498 999 528 968 q 468 1076 468 1031 q 498 1153 468 1122 q 575 1183 528 1183 q 653 1153 622 1183 q 683 1076 683 1122 q 653 999 683 1031 q 575 968 622 968 z "},"Ỳ":{"ha":833,"x_min":17,"x_max":817,"o":"m 306 0 l 306 303 l 17 904 l 254 904 l 338 696 q 376 594 357 644 q 415 490 396 544 l 421 490 q 462 594 442 544 q 501 697 482 644 l 585 904 l 817 904 l 528 303 l 528 0 l 306 0 m 469 940 l 207 1106 l 324 1249 l 568 1051 l 469 940 z "},"Ý":{"ha":833,"x_min":17,"x_max":817,"o":"m 306 0 l 306 303 l 17 904 l 254 904 l 338 696 q 376 594 357 644 q 415 490 396 544 l 421 490 q 462 594 442 544 q 501 697 482 644 l 585 904 l 817 904 l 528 303 l 528 0 l 306 0 m 364 940 l 265 1051 l 510 1249 l 626 1106 l 364 940 z "},"Ŷ":{"ha":833,"x_min":17,"x_max":817,"o":"m 306 0 l 306 303 l 17 904 l 254 904 l 338 696 q 376 594 357 644 q 415 490 396 544 l 421 490 q 462 594 442 544 q 501 697 482 644 l 585 904 l 817 904 l 528 303 l 528 0 l 306 0 m 271 949 l 175 1006 l 296 1160 l 538 1160 l 658 1006 l 563 949 l 419 1061 l 414 1061 l 271 949 z "},"Ÿ":{"ha":833,"x_min":17,"x_max":817,"o":"m 306 0 l 306 303 l 17 904 l 254 904 l 338 696 q 376 594 357 644 q 415 490 396 544 l 421 490 q 462 594 442 544 q 501 697 482 644 l 585 904 l 817 904 l 528 303 l 528 0 l 306 0 m 258 968 q 181 999 211 968 q 150 1076 150 1031 q 181 1153 150 1122 q 258 1183 211 1183 q 335 1153 306 1183 q 365 1076 365 1122 q 335 999 365 1031 q 258 968 306 968 m 575 968 q 498 999 528 968 q 468 1076 468 1031 q 498 1153 468 1122 q 575 1183 528 1183 q 653 1153 622 1183 q 683 1076 683 1122 q 653 999 683 1031 q 575 968 622 968 z "},"Ẏ":{"ha":833,"x_min":17,"x_max":817,"o":"m 306 0 l 306 303 l 17 904 l 254 904 l 338 696 q 376 594 357 644 q 415 490 396 544 l 421 490 q 462 594 442 544 q 501 697 482 644 l 585 904 l 817 904 l 528 303 l 528 0 l 306 0 m 417 969 q 321 1004 358 969 q 283 1093 283 1039 q 321 1183 283 1149 q 417 1217 358 1217 q 513 1183 475 1217 q 550 1093 550 1149 q 513 1004 550 1039 q 417 969 475 969 z "},"Ỵ":{"ha":833,"x_min":17,"x_max":817,"o":"m 306 0 l 306 303 l 17 904 l 254 904 l 338 696 q 376 594 357 644 q 415 490 396 544 l 421 490 q 462 594 442 544 q 501 697 482 644 l 585 904 l 817 904 l 528 303 l 528 0 l 306 0 z "},"Ỷ":{"ha":833,"x_min":17,"x_max":817,"o":"m 306 0 l 306 303 l 17 904 l 254 904 l 338 696 q 376 594 357 644 q 415 490 396 544 l 421 490 q 462 594 442 544 q 501 697 482 644 l 585 904 l 817 904 l 528 303 l 528 0 l 306 0 m 353 957 l 338 1044 q 379 1056 363 1047 q 396 1082 396 1064 q 372 1110 396 1100 q 286 1125 347 1121 l 313 1235 q 456 1215 403 1232 q 532 1170 510 1199 q 554 1104 554 1142 q 526 1024 554 1056 q 453 977 499 993 q 353 957 408 961 z "},"Ỹ":{"ha":833,"x_min":17,"x_max":817,"o":"m 306 0 l 306 303 l 17 904 l 254 904 l 338 696 q 376 594 357 644 q 415 490 396 544 l 421 490 q 462 594 442 544 q 501 697 482 644 l 585 904 l 817 904 l 528 303 l 528 0 l 306 0 m 515 957 q 450 969 478 957 q 400 995 422 981 q 360 1022 378 1010 q 326 1033 343 1033 q 295 1020 308 1033 q 278 969 282 1007 l 136 981 q 194 1138 143 1090 q 318 1186 244 1186 q 384 1174 356 1186 q 435 1148 413 1163 q 474 1122 457 1133 q 507 1110 492 1110 q 538 1124 525 1110 q 556 1174 550 1138 l 697 1163 q 640 1006 692 1054 q 515 957 589 957 z "},"Ź":{"ha":833,"x_min":76,"x_max":763,"o":"m 76 0 l 76 135 l 483 718 l 114 718 l 114 904 l 757 904 l 757 769 l 350 186 l 763 186 l 763 0 l 76 0 m 392 940 l 293 1051 l 538 1249 l 654 1106 l 392 940 z "},"Ž":{"ha":833,"x_min":76,"x_max":763,"o":"m 76 0 l 76 135 l 483 718 l 114 718 l 114 904 l 757 904 l 757 769 l 350 186 l 763 186 l 763 0 l 76 0 m 324 974 l 203 1126 l 299 1185 l 442 1071 l 447 1071 l 590 1185 l 686 1126 l 565 974 l 324 974 z "},"Ż":{"ha":833,"x_min":76,"x_max":763,"o":"m 76 0 l 76 135 l 483 718 l 114 718 l 114 904 l 757 904 l 757 769 l 350 186 l 763 186 l 763 0 l 76 0 m 444 969 q 349 1004 386 969 q 311 1093 311 1039 q 349 1183 311 1149 q 444 1217 386 1217 q 540 1183 503 1217 q 578 1093 578 1149 q 540 1004 578 1039 q 444 969 503 969 z "},"Ẑ":{"ha":833,"x_min":76,"x_max":763,"o":"m 76 0 l 76 135 l 483 718 l 114 718 l 114 904 l 757 904 l 757 769 l 350 186 l 763 186 l 763 0 l 76 0 m 299 949 l 203 1006 l 324 1160 l 565 1160 l 686 1006 l 590 949 l 447 1061 l 442 1061 l 299 949 z "},"Ẓ":{"ha":833,"x_min":76,"x_max":763,"o":"m 76 0 l 76 135 l 483 718 l 114 718 l 114 904 l 757 904 l 757 769 l 350 186 l 763 186 l 763 0 l 76 0 z "},"Ẕ":{"ha":833,"x_min":76,"x_max":763,"o":"m 76 0 l 76 135 l 483 718 l 114 718 l 114 904 l 757 904 l 757 769 l 350 186 l 763 186 l 763 0 l 76 0 z "},"Ð":{"ha":833,"x_min":-3,"x_max":786,"o":"m 93 0 l 93 410 l -3 410 l -3 510 l 93 518 l 93 904 l 350 904 q 577 858 479 904 q 731 713 675 811 q 786 456 786 614 q 731 197 786 299 q 580 48 675 96 q 363 0 485 0 l 93 0 m 315 178 l 336 178 q 450 203 400 178 q 529 288 500 228 q 558 456 558 349 q 529 621 558 563 q 450 703 500 679 q 336 726 400 726 l 315 726 l 315 518 l 456 518 l 456 410 l 315 410 l 315 178 z "},"Þ":{"ha":833,"x_min":93,"x_max":792,"o":"m 93 0 l 93 904 l 315 904 l 315 771 l 433 771 q 613 743 532 771 q 743 651 694 715 q 792 475 792 586 q 742 298 792 367 q 611 196 693 229 q 433 163 529 163 l 315 163 l 315 0 l 93 0 m 315 339 l 422 339 q 538 374 500 339 q 575 475 575 410 q 535 568 575 542 q 422 594 496 594 l 315 594 l 315 339 z "},"Ə":{"ha":833,"x_min":67,"x_max":781,"o":"m 421 -17 q 239 38 319 -17 q 113 197 158 93 q 67 449 67 300 q 68 485 67 467 q 71 522 69 503 l 618 522 l 618 361 l 253 361 l 281 454 q 299 281 281 342 q 348 197 317 221 q 421 174 379 174 q 493 197 461 174 q 543 281 525 221 q 561 454 561 342 q 542 614 561 553 q 487 702 524 675 q 397 729 450 729 q 315 711 351 729 q 251 668 278 693 l 151 821 q 264 893 199 865 q 417 921 329 921 q 607 866 525 921 q 735 706 689 811 q 781 454 781 601 q 735 200 781 306 q 608 39 689 94 q 421 -17 526 -17 z "},"Ŋ":{"ha":833,"x_min":86,"x_max":774,"o":"m 496 -17 q 435 -10 468 -17 q 382 7 401 -4 l 428 199 q 447 193 436 196 q 471 190 457 190 q 514 211 497 190 q 538 290 531 232 q 546 460 546 347 q 533 617 546 557 q 495 703 519 676 q 436 729 471 729 q 391 719 414 729 q 347 687 368 708 q 307 632 325 665 l 307 0 l 86 0 l 86 904 l 300 904 l 300 822 q 358 877 328 856 q 422 910 388 899 q 493 921 456 921 q 637 876 574 921 q 737 729 700 831 q 774 460 774 628 q 747 195 774 301 q 661 36 721 89 q 496 -17 601 -17 z "},"Ĳ":{"ha":833,"x_min":93,"x_max":740,"o":"m 93 0 l 93 904 l 315 904 l 315 0 l 93 0 m 475 -257 q 394 -250 426 -257 q 338 -235 363 -243 l 378 -72 q 410 -81 394 -78 q 439 -83 425 -83 q 500 -58 482 -83 q 518 24 518 -32 l 518 904 l 740 904 l 740 31 q 717 -112 740 -46 q 635 -217 693 -178 q 475 -257 578 -257 z "},"à":{"ha":833,"x_min":81,"x_max":747,"o":"m 306 -17 q 185 13 235 -17 q 108 89 135 42 q 81 194 81 136 q 183 372 81 310 q 526 447 285 433 q 506 494 522 475 q 459 523 489 513 q 386 533 429 533 q 323 526 356 533 q 256 504 290 518 q 182 471 222 490 l 103 617 q 207 665 154 644 q 315 697 260 686 q 429 708 371 708 q 599 674 528 708 q 708 570 669 640 q 747 390 747 500 l 747 0 l 567 0 l 551 75 l 546 75 q 433 10 494 36 q 306 -17 372 -17 m 376 154 q 458 172 421 154 q 526 214 494 189 l 526 314 q 382 297 433 311 q 311 260 331 282 q 292 213 292 239 q 302 180 292 193 q 331 160 313 167 q 376 154 350 154 m 449 776 l 192 996 l 340 1143 l 557 885 l 449 776 z "},"á":{"ha":833,"x_min":81,"x_max":747,"o":"m 306 -17 q 185 13 235 -17 q 108 89 135 42 q 81 194 81 136 q 183 372 81 310 q 526 447 285 433 q 506 494 522 475 q 459 523 489 513 q 386 533 429 533 q 323 526 356 533 q 256 504 290 518 q 182 471 222 490 l 103 617 q 207 665 154 644 q 315 697 260 686 q 429 708 371 708 q 599 674 528 708 q 708 570 669 640 q 747 390 747 500 l 747 0 l 567 0 l 551 75 l 546 75 q 433 10 494 36 q 306 -17 372 -17 m 376 154 q 458 172 421 154 q 526 214 494 189 l 526 314 q 382 297 433 311 q 311 260 331 282 q 292 213 292 239 q 302 180 292 193 q 331 160 313 167 q 376 154 350 154 m 440 776 l 332 885 l 549 1143 l 697 996 l 440 776 z "},"â":{"ha":833,"x_min":81,"x_max":747,"o":"m 306 -17 q 185 13 235 -17 q 108 89 135 42 q 81 194 81 136 q 183 372 81 310 q 526 447 285 433 q 506 494 522 475 q 459 523 489 513 q 386 533 429 533 q 323 526 356 533 q 256 504 290 518 q 182 471 222 490 l 103 617 q 207 665 154 644 q 315 697 260 686 q 429 708 371 708 q 599 674 528 708 q 708 570 669 640 q 747 390 747 500 l 747 0 l 567 0 l 551 75 l 546 75 q 433 10 494 36 q 306 -17 372 -17 m 376 154 q 458 172 421 154 q 526 214 494 189 l 526 314 q 382 297 433 311 q 311 260 331 282 q 292 213 292 239 q 302 180 292 193 q 331 160 313 167 q 376 154 350 154 m 265 776 l 182 856 l 332 1035 l 557 1035 l 707 856 l 624 776 l 447 899 l 442 899 l 265 776 z "},"ã":{"ha":833,"x_min":81,"x_max":747,"o":"m 306 -17 q 185 13 235 -17 q 108 89 135 42 q 81 194 81 136 q 183 372 81 310 q 526 447 285 433 q 506 494 522 475 q 459 523 489 513 q 386 533 429 533 q 323 526 356 533 q 256 504 290 518 q 182 471 222 490 l 103 617 q 207 665 154 644 q 315 697 260 686 q 429 708 371 708 q 599 674 528 708 q 708 570 669 640 q 747 390 747 500 l 747 0 l 567 0 l 551 75 l 546 75 q 433 10 494 36 q 306 -17 372 -17 m 376 154 q 458 172 421 154 q 526 214 494 189 l 526 314 q 382 297 433 311 q 311 260 331 282 q 292 213 292 239 q 302 180 292 193 q 331 160 313 167 q 376 154 350 154 m 535 796 q 477 808 504 796 q 429 837 450 821 q 391 866 408 853 q 358 879 374 879 q 329 863 340 879 q 314 808 318 847 l 176 817 q 200 939 178 892 q 261 1008 222 986 q 354 1031 300 1031 q 413 1018 386 1031 q 460 990 439 1006 q 498 961 481 974 q 531 949 515 949 q 560 964 549 949 q 575 1018 571 979 l 713 1011 q 689 888 711 936 q 628 818 667 840 q 535 796 589 796 z "},"ä":{"ha":833,"x_min":81,"x_max":747,"o":"m 306 -17 q 185 13 235 -17 q 108 89 135 42 q 81 194 81 136 q 183 372 81 310 q 526 447 285 433 q 506 494 522 475 q 459 523 489 513 q 386 533 429 533 q 323 526 356 533 q 256 504 290 518 q 182 471 222 490 l 103 617 q 207 665 154 644 q 315 697 260 686 q 429 708 371 708 q 599 674 528 708 q 708 570 669 640 q 747 390 747 500 l 747 0 l 567 0 l 551 75 l 546 75 q 433 10 494 36 q 306 -17 372 -17 m 376 154 q 458 172 421 154 q 526 214 494 189 l 526 314 q 382 297 433 311 q 311 260 331 282 q 292 213 292 239 q 302 180 292 193 q 331 160 313 167 q 376 154 350 154 m 286 788 q 202 822 235 788 q 169 907 169 857 q 202 990 169 956 q 288 1025 235 1025 q 372 990 339 1025 q 406 907 406 956 q 372 822 406 857 q 286 788 339 788 m 601 788 q 517 822 550 788 q 483 907 483 857 q 517 990 483 956 q 603 1025 550 1025 q 687 990 654 1025 q 719 907 719 956 q 687 822 719 857 q 601 788 654 788 z "},"ā":{"ha":833,"x_min":81,"x_max":747,"o":"m 306 -17 q 185 13 235 -17 q 108 89 135 42 q 81 194 81 136 q 183 372 81 310 q 526 447 285 433 q 506 494 522 475 q 459 523 489 513 q 386 533 429 533 q 323 526 356 533 q 256 504 290 518 q 182 471 222 490 l 103 617 q 207 665 154 644 q 315 697 260 686 q 429 708 371 708 q 599 674 528 708 q 708 570 669 640 q 747 390 747 500 l 747 0 l 567 0 l 551 75 l 546 75 q 433 10 494 36 q 306 -17 372 -17 m 376 154 q 458 172 421 154 q 526 214 494 189 l 526 314 q 382 297 433 311 q 311 260 331 282 q 292 213 292 239 q 302 180 292 193 q 331 160 313 167 q 376 154 350 154 m 235 819 l 235 960 l 654 960 l 654 819 l 235 819 z "},"ă":{"ha":833,"x_min":81,"x_max":747,"o":"m 306 -17 q 185 13 235 -17 q 108 89 135 42 q 81 194 81 136 q 183 372 81 310 q 526 447 285 433 q 506 494 522 475 q 459 523 489 513 q 386 533 429 533 q 323 526 356 533 q 256 504 290 518 q 182 471 222 490 l 103 617 q 207 665 154 644 q 315 697 260 686 q 429 708 371 708 q 599 674 528 708 q 708 570 669 640 q 747 390 747 500 l 747 0 l 567 0 l 551 75 l 546 75 q 433 10 494 36 q 306 -17 372 -17 m 376 154 q 458 172 421 154 q 526 214 494 189 l 526 314 q 382 297 433 311 q 311 260 331 282 q 292 213 292 239 q 302 180 292 193 q 331 160 313 167 q 376 154 350 154 m 444 794 q 313 823 365 794 q 234 901 260 851 q 206 1015 208 951 l 331 1036 q 349 983 335 1007 q 386 946 363 960 q 444 932 410 932 q 503 946 479 932 q 541 983 528 960 q 558 1036 554 1007 l 683 1015 q 655 901 681 951 q 577 823 629 851 q 444 794 525 794 z "},"å":{"ha":833,"x_min":81,"x_max":747,"o":"m 306 -17 q 185 13 235 -17 q 108 89 135 42 q 81 194 81 136 q 183 372 81 310 q 526 447 285 433 q 506 494 522 475 q 459 523 489 513 q 386 533 429 533 q 323 526 356 533 q 256 504 290 518 q 182 471 222 490 l 103 617 q 207 665 154 644 q 315 697 260 686 q 429 708 371 708 q 599 674 528 708 q 708 570 669 640 q 747 390 747 500 l 747 0 l 567 0 l 551 75 l 546 75 q 433 10 494 36 q 306 -17 372 -17 m 376 154 q 458 172 421 154 q 526 214 494 189 l 526 314 q 382 297 433 311 q 311 260 331 282 q 292 213 292 239 q 302 180 292 193 q 331 160 313 167 q 376 154 350 154 m 444 789 q 303 832 351 789 q 256 935 256 875 q 303 1037 256 994 q 444 1079 351 1079 q 586 1037 539 1079 q 633 935 633 994 q 586 832 633 875 q 444 789 539 789 m 444 871 q 485 889 468 871 q 501 935 501 907 q 485 981 501 964 q 444 999 468 999 q 404 981 421 999 q 388 935 388 964 q 404 889 388 907 q 444 871 421 871 z "},"ǻ":{"ha":833,"x_min":81,"x_max":747,"o":"m 407 1021 l 314 1044 l 538 1229 l 625 1119 l 407 1021 m 306 -17 q 185 13 235 -17 q 108 89 135 42 q 81 194 81 136 q 183 372 81 310 q 526 447 285 433 q 506 494 522 475 q 459 523 489 513 q 386 533 429 533 q 323 526 356 533 q 256 504 290 518 q 182 471 222 490 l 103 617 q 207 665 154 644 q 315 697 260 686 q 429 708 371 708 q 599 674 528 708 q 708 570 669 640 q 747 390 747 500 l 747 0 l 567 0 l 551 75 l 546 75 q 433 10 494 36 q 306 -17 372 -17 m 376 154 q 458 172 421 154 q 526 214 494 189 l 526 314 q 382 297 433 311 q 311 260 331 282 q 292 213 292 239 q 302 180 292 193 q 331 160 313 167 q 376 154 350 154 m 444 789 q 303 832 351 789 q 256 935 256 875 q 303 1037 256 994 q 444 1079 351 1079 q 586 1037 539 1079 q 633 935 633 994 q 586 832 633 875 q 444 789 539 789 m 444 871 q 485 889 468 871 q 501 935 501 907 q 485 981 501 964 q 444 999 468 999 q 404 981 421 999 q 388 935 388 964 q 404 889 388 907 q 444 871 421 871 z "},"ǎ":{"ha":833,"x_min":81,"x_max":747,"o":"m 306 -17 q 185 13 235 -17 q 108 89 135 42 q 81 194 81 136 q 183 372 81 310 q 526 447 285 433 q 506 494 522 475 q 459 523 489 513 q 386 533 429 533 q 323 526 356 533 q 256 504 290 518 q 182 471 222 490 l 103 617 q 207 665 154 644 q 315 697 260 686 q 429 708 371 708 q 599 674 528 708 q 708 570 669 640 q 747 390 747 500 l 747 0 l 567 0 l 551 75 l 546 75 q 433 10 494 36 q 306 -17 372 -17 m 376 154 q 458 172 421 154 q 526 214 494 189 l 526 314 q 382 297 433 311 q 311 260 331 282 q 292 213 292 239 q 302 180 292 193 q 331 160 313 167 q 376 154 350 154 m 332 801 l 182 982 l 265 1060 l 442 938 l 447 938 l 624 1060 l 707 982 l 557 801 l 332 801 z "},"ą":{"ha":833,"x_min":81,"x_max":778,"o":"m 617 -317 q 500 -281 549 -317 q 451 -176 451 -244 q 470 -99 451 -132 q 517 -42 489 -65 q 569 -4 546 -18 l 551 75 l 546 75 q 433 10 494 36 q 306 -17 372 -17 q 185 13 235 -17 q 108 89 135 42 q 81 194 81 136 q 183 372 81 310 q 526 447 285 433 q 506 494 522 475 q 459 523 489 513 q 386 533 429 533 q 323 526 356 533 q 256 504 290 518 q 182 471 222 490 l 103 617 q 207 665 154 644 q 315 697 260 686 q 429 708 371 708 q 599 674 528 708 q 708 570 669 640 q 747 390 747 500 l 747 0 q 634 -56 669 -19 q 599 -125 599 -92 q 621 -172 599 -157 q 669 -186 643 -186 q 705 -181 688 -186 q 733 -168 722 -175 l 778 -267 q 702 -303 749 -289 q 617 -317 656 -317 m 376 154 q 458 172 421 154 q 526 214 494 189 l 526 314 q 382 297 433 311 q 311 260 331 282 q 292 213 292 239 q 302 180 292 193 q 331 160 313 167 q 376 154 350 154 z "},"ạ":{"ha":833,"x_min":81,"x_max":747,"o":"m 306 -17 q 185 13 235 -17 q 108 89 135 42 q 81 194 81 136 q 183 372 81 310 q 526 447 285 433 q 506 494 522 475 q 459 523 489 513 q 386 533 429 533 q 323 526 356 533 q 256 504 290 518 q 182 471 222 490 l 103 617 q 207 665 154 644 q 315 697 260 686 q 429 708 371 708 q 599 674 528 708 q 708 570 669 640 q 747 390 747 500 l 747 0 l 567 0 l 551 75 l 546 75 q 433 10 494 36 q 306 -17 372 -17 m 376 154 q 458 172 421 154 q 526 214 494 189 l 526 314 q 382 297 433 311 q 311 260 331 282 q 292 213 292 239 q 302 180 292 193 q 331 160 313 167 q 376 154 350 154 z "},"ả":{"ha":833,"x_min":81,"x_max":747,"o":"m 306 -17 q 185 13 235 -17 q 108 89 135 42 q 81 194 81 136 q 183 372 81 310 q 526 447 285 433 q 506 494 522 475 q 459 523 489 513 q 386 533 429 533 q 323 526 356 533 q 256 504 290 518 q 182 471 222 490 l 103 617 q 207 665 154 644 q 315 697 260 686 q 429 708 371 708 q 599 674 528 708 q 708 570 669 640 q 747 390 747 500 l 747 0 l 567 0 l 551 75 l 546 75 q 433 10 494 36 q 306 -17 372 -17 m 376 154 q 458 172 421 154 q 526 214 494 189 l 526 314 q 382 297 433 311 q 311 260 331 282 q 292 213 292 239 q 302 180 292 193 q 331 160 313 167 q 376 154 350 154 m 381 788 l 365 874 q 407 888 390 878 q 424 919 424 897 q 399 958 424 943 q 314 976 375 972 l 328 1111 q 480 1085 424 1108 q 560 1024 536 1063 q 585 935 585 985 q 556 855 585 886 q 482 807 528 824 q 381 788 436 790 z "},"ấ":{"ha":833,"x_min":81,"x_max":842,"o":"m 306 -17 q 185 13 235 -17 q 108 89 135 42 q 81 194 81 136 q 183 372 81 310 q 526 447 285 433 q 506 494 522 475 q 459 523 489 513 q 386 533 429 533 q 323 526 356 533 q 256 504 290 518 q 182 471 222 490 l 103 617 q 207 665 154 644 q 315 697 260 686 q 429 708 371 708 q 599 674 528 708 q 708 570 669 640 q 747 390 747 500 l 747 0 l 567 0 l 551 75 l 546 75 q 433 10 494 36 q 306 -17 372 -17 m 376 154 q 458 172 421 154 q 526 214 494 189 l 526 314 q 382 297 433 311 q 311 260 331 282 q 292 213 292 239 q 302 180 292 193 q 331 160 313 167 q 376 154 350 154 m 300 785 l 229 863 l 357 990 l 532 990 l 660 863 l 589 785 l 447 872 l 442 872 l 300 785 m 700 886 l 617 951 l 725 1129 l 842 1054 l 700 886 z "},"ầ":{"ha":833,"x_min":46,"x_max":747,"o":"m 306 -17 q 185 13 235 -17 q 108 89 135 42 q 81 194 81 136 q 183 372 81 310 q 526 447 285 433 q 506 494 522 475 q 459 523 489 513 q 386 533 429 533 q 323 526 356 533 q 256 504 290 518 q 182 471 222 490 l 103 617 q 207 665 154 644 q 315 697 260 686 q 429 708 371 708 q 599 674 528 708 q 708 570 669 640 q 747 390 747 500 l 747 0 l 567 0 l 551 75 l 546 75 q 433 10 494 36 q 306 -17 372 -17 m 376 154 q 458 172 421 154 q 526 214 494 189 l 526 314 q 382 297 433 311 q 311 260 331 282 q 292 213 292 239 q 302 180 292 193 q 331 160 313 167 q 376 154 350 154 m 300 785 l 229 863 l 357 990 l 532 990 l 660 863 l 589 785 l 447 872 l 442 872 l 300 785 m 189 886 l 46 1053 l 163 1129 l 272 951 l 189 886 z "},"ẩ":{"ha":833,"x_min":81,"x_max":810,"o":"m 306 -17 q 185 13 235 -17 q 108 89 135 42 q 81 194 81 136 q 183 372 81 310 q 526 447 285 433 q 506 494 522 475 q 459 523 489 513 q 386 533 429 533 q 323 526 356 533 q 256 504 290 518 q 182 471 222 490 l 103 617 q 207 665 154 644 q 315 697 260 686 q 429 708 371 708 q 599 674 528 708 q 708 570 669 640 q 747 390 747 500 l 747 0 l 567 0 l 551 75 l 546 75 q 433 10 494 36 q 306 -17 372 -17 m 376 154 q 458 172 421 154 q 526 214 494 189 l 526 314 q 382 297 433 311 q 311 260 331 282 q 292 213 292 239 q 302 180 292 193 q 331 160 313 167 q 376 154 350 154 m 300 785 l 229 863 l 357 990 l 532 990 l 660 863 l 589 785 l 447 872 l 442 872 l 300 785 m 642 897 l 628 971 q 656 983 646 975 q 667 1007 667 990 q 648 1036 667 1025 q 578 1051 629 1047 l 597 1143 q 765 1109 719 1139 q 810 1031 810 1079 q 787 956 810 983 q 726 916 764 929 q 642 897 688 903 z "},"ẫ":{"ha":833,"x_min":81,"x_max":747,"o":"m 306 -17 q 185 13 235 -17 q 108 89 135 42 q 81 194 81 136 q 183 372 81 310 q 526 447 285 433 q 506 494 522 475 q 459 523 489 513 q 386 533 429 533 q 323 526 356 533 q 256 504 290 518 q 182 471 222 490 l 103 617 q 207 665 154 644 q 315 697 260 686 q 429 708 371 708 q 599 674 528 708 q 708 570 669 640 q 747 390 747 500 l 747 0 l 567 0 l 551 75 l 546 75 q 433 10 494 36 q 306 -17 372 -17 m 376 154 q 458 172 421 154 q 526 214 494 189 l 526 314 q 382 297 433 311 q 311 260 331 282 q 292 213 292 239 q 302 180 292 193 q 331 160 313 167 q 376 154 350 154 m 300 785 l 229 863 l 357 978 l 532 978 l 660 863 l 589 785 l 447 860 l 442 860 l 300 785 m 524 996 q 460 1010 486 996 q 416 1040 435 1025 q 378 1054 397 1054 q 352 1042 363 1054 q 336 1003 342 1031 l 236 1014 q 278 1136 246 1099 q 365 1174 311 1174 q 428 1159 403 1174 q 473 1130 454 1144 q 511 1115 492 1115 q 538 1128 528 1115 q 553 1167 549 1140 l 653 1157 q 610 1034 643 1072 q 524 996 578 996 z "},"ậ":{"ha":833,"x_min":81,"x_max":747,"o":"m 306 -17 q 185 13 235 -17 q 108 89 135 42 q 81 194 81 136 q 183 372 81 310 q 526 447 285 433 q 506 494 522 475 q 459 523 489 513 q 386 533 429 533 q 323 526 356 533 q 256 504 290 518 q 182 471 222 490 l 103 617 q 207 665 154 644 q 315 697 260 686 q 429 708 371 708 q 599 674 528 708 q 708 570 669 640 q 747 390 747 500 l 747 0 l 567 0 l 551 75 l 546 75 q 433 10 494 36 q 306 -17 372 -17 m 376 154 q 458 172 421 154 q 526 214 494 189 l 526 314 q 382 297 433 311 q 311 260 331 282 q 292 213 292 239 q 302 180 292 193 q 331 160 313 167 q 376 154 350 154 m 265 776 l 182 856 l 332 1035 l 557 1035 l 707 856 l 624 776 l 447 899 l 442 899 l 265 776 z "},"ắ":{"ha":833,"x_min":81,"x_max":747,"o":"m 306 -17 q 185 13 235 -17 q 108 89 135 42 q 81 194 81 136 q 183 372 81 310 q 526 447 285 433 q 506 494 522 475 q 459 523 489 513 q 386 533 429 533 q 323 526 356 533 q 256 504 290 518 q 182 471 222 490 l 103 617 q 207 665 154 644 q 315 697 260 686 q 429 708 371 708 q 599 674 528 708 q 708 570 669 640 q 747 390 747 500 l 747 0 l 567 0 l 551 75 l 546 75 q 433 10 494 36 q 306 -17 372 -17 m 376 154 q 458 172 421 154 q 526 214 494 189 l 526 314 q 382 297 433 311 q 311 260 331 282 q 292 213 292 239 q 302 180 292 193 q 331 160 313 167 q 376 154 350 154 m 444 794 q 313 823 365 794 q 234 901 260 851 q 206 1015 208 951 l 318 1036 q 338 976 324 1003 q 379 935 353 950 q 444 919 406 919 q 510 935 483 919 q 551 976 536 950 q 571 1036 567 1003 l 683 1015 q 655 901 681 951 q 577 823 629 851 q 444 794 525 794 m 460 975 l 364 1040 l 496 1242 l 625 1146 l 460 975 z "},"ằ":{"ha":833,"x_min":81,"x_max":747,"o":"m 306 -17 q 185 13 235 -17 q 108 89 135 42 q 81 194 81 136 q 183 372 81 310 q 526 447 285 433 q 506 494 522 475 q 459 523 489 513 q 386 533 429 533 q 323 526 356 533 q 256 504 290 518 q 182 471 222 490 l 103 617 q 207 665 154 644 q 315 697 260 686 q 429 708 371 708 q 599 674 528 708 q 708 570 669 640 q 747 390 747 500 l 747 0 l 567 0 l 551 75 l 546 75 q 433 10 494 36 q 306 -17 372 -17 m 376 154 q 458 172 421 154 q 526 214 494 189 l 526 314 q 382 297 433 311 q 311 260 331 282 q 292 213 292 239 q 302 180 292 193 q 331 160 313 167 q 376 154 350 154 m 444 794 q 313 823 365 794 q 234 901 260 851 q 206 1015 208 951 l 318 1036 q 338 976 324 1003 q 379 935 353 950 q 444 919 406 919 q 510 935 483 919 q 551 976 536 950 q 571 1036 567 1003 l 683 1015 q 655 901 681 951 q 577 823 629 851 q 444 794 525 794 m 429 975 l 264 1146 l 393 1242 l 525 1040 l 429 975 z "},"ẳ":{"ha":833,"x_min":81,"x_max":747,"o":"m 306 -17 q 185 13 235 -17 q 108 89 135 42 q 81 194 81 136 q 183 372 81 310 q 526 447 285 433 q 506 494 522 475 q 459 523 489 513 q 386 533 429 533 q 323 526 356 533 q 256 504 290 518 q 182 471 222 490 l 103 617 q 207 665 154 644 q 315 697 260 686 q 429 708 371 708 q 599 674 528 708 q 708 570 669 640 q 747 390 747 500 l 747 0 l 567 0 l 551 75 l 546 75 q 433 10 494 36 q 306 -17 372 -17 m 376 154 q 458 172 421 154 q 526 214 494 189 l 526 314 q 382 297 433 311 q 311 260 331 282 q 292 213 292 239 q 302 180 292 193 q 331 160 313 167 q 376 154 350 154 m 444 794 q 313 823 365 794 q 234 901 260 851 q 206 1015 208 951 l 318 1036 q 338 976 324 1003 q 379 935 353 950 q 444 919 406 919 q 510 935 483 919 q 551 976 536 950 q 571 1036 567 1003 l 683 1015 q 655 901 681 951 q 577 823 629 851 q 444 794 525 794 m 394 972 l 381 1046 q 410 1058 399 1050 q 421 1082 421 1065 q 402 1111 421 1100 q 329 1126 383 1122 l 350 1244 q 518 1203 472 1240 q 564 1106 564 1167 q 541 1031 564 1058 q 479 991 518 1004 q 394 972 440 978 z "},"ẵ":{"ha":833,"x_min":81,"x_max":747,"o":"m 306 -17 q 185 13 235 -17 q 108 89 135 42 q 81 194 81 136 q 183 372 81 310 q 526 447 285 433 q 506 494 522 475 q 459 523 489 513 q 386 533 429 533 q 323 526 356 533 q 256 504 290 518 q 182 471 222 490 l 103 617 q 207 665 154 644 q 315 697 260 686 q 429 708 371 708 q 599 674 528 708 q 708 570 669 640 q 747 390 747 500 l 747 0 l 567 0 l 551 75 l 546 75 q 433 10 494 36 q 306 -17 372 -17 m 376 154 q 458 172 421 154 q 526 214 494 189 l 526 314 q 382 297 433 311 q 311 260 331 282 q 292 213 292 239 q 302 180 292 193 q 331 160 313 167 q 376 154 350 154 m 444 794 q 325 816 372 794 q 255 874 278 838 q 228 954 232 910 l 335 972 q 367 925 342 946 q 444 904 392 904 q 523 925 499 904 q 554 972 547 946 l 661 954 q 634 874 657 910 q 564 816 611 838 q 444 794 517 794 m 524 993 q 460 1008 486 993 q 416 1037 435 1022 q 378 1051 397 1051 q 352 1040 363 1051 q 336 1000 342 1029 l 224 1011 q 270 1133 233 1096 q 365 1171 307 1171 q 428 1156 403 1171 q 473 1127 454 1142 q 511 1113 492 1113 q 538 1125 528 1113 q 553 1164 549 1138 l 665 1154 q 619 1031 657 1069 q 524 993 582 993 z "},"ặ":{"ha":833,"x_min":81,"x_max":747,"o":"m 306 -17 q 185 13 235 -17 q 108 89 135 42 q 81 194 81 136 q 183 372 81 310 q 526 447 285 433 q 506 494 522 475 q 459 523 489 513 q 386 533 429 533 q 323 526 356 533 q 256 504 290 518 q 182 471 222 490 l 103 617 q 207 665 154 644 q 315 697 260 686 q 429 708 371 708 q 599 674 528 708 q 708 570 669 640 q 747 390 747 500 l 747 0 l 567 0 l 551 75 l 546 75 q 433 10 494 36 q 306 -17 372 -17 m 376 154 q 458 172 421 154 q 526 214 494 189 l 526 314 q 382 297 433 311 q 311 260 331 282 q 292 213 292 239 q 302 180 292 193 q 331 160 313 167 q 376 154 350 154 m 444 794 q 313 823 365 794 q 234 901 260 851 q 206 1015 208 951 l 331 1036 q 349 983 335 1007 q 386 946 363 960 q 444 932 410 932 q 503 946 479 932 q 541 983 528 960 q 558 1036 554 1007 l 683 1015 q 655 901 681 951 q 577 823 629 851 q 444 794 525 794 z "},"æ":{"ha":833,"x_min":22,"x_max":822,"o":"m 207 -17 q 74 40 125 -17 q 22 183 22 96 q 60 313 22 260 q 175 399 99 367 q 365 443 251 431 l 365 314 q 278 293 310 308 q 233 256 246 278 q 219 211 219 235 q 235 169 219 183 q 276 154 251 154 q 318 166 296 154 q 375 218 340 178 l 435 119 q 319 13 374 43 q 207 -17 264 -17 m 617 -17 q 463 28 526 -17 q 365 147 399 74 q 331 303 331 219 l 331 406 q 308 508 331 483 q 251 533 285 533 q 185 521 217 533 q 118 486 154 508 l 40 632 q 156 688 100 668 q 268 708 211 708 q 372 679 328 708 q 450 575 415 650 l 407 575 q 497 679 449 650 q 603 708 546 708 q 724 663 675 708 q 797 540 772 617 q 822 371 822 463 q 819 318 822 343 q 813 279 815 293 l 461 279 l 461 415 l 686 415 l 650 388 q 635 506 650 472 q 583 540 619 540 q 542 522 563 540 q 508 460 521 503 q 494 346 494 418 q 513 239 494 281 q 560 177 531 197 q 624 157 589 157 q 675 165 650 157 q 726 192 700 174 l 801 49 q 710 0 761 17 q 617 -17 658 -17 z "},"ǽ":{"ha":833,"x_min":22,"x_max":822,"o":"m 207 -17 q 74 40 125 -17 q 22 183 22 96 q 60 313 22 260 q 175 399 99 367 q 365 443 251 431 l 365 314 q 278 293 310 308 q 233 256 246 278 q 219 211 219 235 q 235 169 219 183 q 276 154 251 154 q 318 166 296 154 q 375 218 340 178 l 435 119 q 319 13 374 43 q 207 -17 264 -17 m 617 -17 q 463 28 526 -17 q 365 147 399 74 q 331 303 331 219 l 331 406 q 308 508 331 483 q 251 533 285 533 q 185 521 217 533 q 118 486 154 508 l 40 632 q 156 688 100 668 q 268 708 211 708 q 372 679 328 708 q 450 575 415 650 l 407 575 q 497 679 449 650 q 603 708 546 708 q 724 663 675 708 q 797 540 772 617 q 822 371 822 463 q 819 318 822 343 q 813 279 815 293 l 461 279 l 461 415 l 686 415 l 650 388 q 635 506 650 472 q 583 540 619 540 q 542 522 563 540 q 508 460 521 503 q 494 346 494 418 q 513 239 494 281 q 560 177 531 197 q 624 157 589 157 q 675 165 650 157 q 726 192 700 174 l 801 49 q 710 0 761 17 q 617 -17 658 -17 m 425 776 l 317 885 l 533 1143 l 682 996 l 425 776 z "},"ǣ":{"ha":833,"x_min":22,"x_max":822,"o":"m 207 -17 q 74 40 125 -17 q 22 183 22 96 q 60 313 22 260 q 175 399 99 367 q 365 443 251 431 l 365 314 q 278 293 310 308 q 233 256 246 278 q 219 211 219 235 q 235 169 219 183 q 276 154 251 154 q 318 166 296 154 q 375 218 340 178 l 435 119 q 319 13 374 43 q 207 -17 264 -17 m 617 -17 q 463 28 526 -17 q 365 147 399 74 q 331 303 331 219 l 331 406 q 308 508 331 483 q 251 533 285 533 q 185 521 217 533 q 118 486 154 508 l 40 632 q 156 688 100 668 q 268 708 211 708 q 372 679 328 708 q 450 575 415 650 l 407 575 q 497 679 449 650 q 603 708 546 708 q 724 663 675 708 q 797 540 772 617 q 822 371 822 463 q 819 318 822 343 q 813 279 815 293 l 461 279 l 461 415 l 686 415 l 650 388 q 635 506 650 472 q 583 540 619 540 q 542 522 563 540 q 508 460 521 503 q 494 346 494 418 q 513 239 494 281 q 560 177 531 197 q 624 157 589 157 q 675 165 650 157 q 726 192 700 174 l 801 49 q 710 0 761 17 q 617 -17 658 -17 m 219 819 l 219 960 l 639 960 l 639 819 l 219 819 z "},"ƀ":{"ha":833,"x_min":4,"x_max":771,"o":"m 475 -17 q 379 6 426 -17 q 290 75 332 29 l 286 75 l 268 0 l 94 0 l 94 969 l 317 969 l 311 703 l 308 607 l 314 607 q 399 661 351 642 q 494 681 447 681 q 642 639 581 681 q 738 522 704 597 q 771 344 771 447 q 728 149 771 229 q 619 26 686 68 q 475 -17 551 -17 m 422 164 q 483 181 456 164 q 528 238 511 199 q 544 340 544 276 q 532 431 544 396 q 494 483 519 465 q 429 500 469 500 q 372 487 400 500 q 317 443 344 474 l 317 204 q 369 173 342 182 q 422 164 397 164 m 4 767 l 4 867 l 110 874 l 560 874 l 560 767 l 4 767 z "},"ḇ":{"ha":833,"x_min":94,"x_max":772,"o":"m 475 -17 q 379 6 426 -17 q 290 75 332 29 l 286 75 l 268 0 l 94 0 l 94 969 l 317 969 l 317 739 l 308 635 l 314 635 q 399 689 351 669 q 494 708 446 708 q 642 665 581 708 q 738 543 704 621 q 772 358 772 465 q 729 155 772 239 q 619 27 686 71 q 475 -17 551 -17 m 422 164 q 483 183 456 164 q 528 243 511 201 q 544 354 544 285 q 532 452 544 414 q 494 509 519 490 q 429 528 469 528 q 372 515 400 528 q 317 471 344 501 l 317 204 q 369 173 342 182 q 422 164 397 164 z "},"ç":{"ha":833,"x_min":89,"x_max":761,"o":"m 476 -17 q 279 26 367 -17 q 140 150 192 69 q 89 346 89 231 q 145 542 89 461 q 294 665 201 622 q 492 708 386 708 q 642 683 575 708 q 753 615 710 657 l 651 479 q 577 519 613 507 q 506 531 542 531 q 407 508 450 531 q 340 443 364 485 q 317 346 317 401 q 340 248 317 289 q 403 184 363 207 q 497 161 444 161 q 594 181 550 161 q 674 224 638 200 l 761 85 q 622 8 699 32 q 476 -17 546 -17 m 328 -336 l 313 -249 q 422 -231 392 -244 q 453 -189 453 -218 q 432 -154 453 -168 q 347 -132 411 -140 l 419 15 l 546 15 l 503 -85 q 584 -120 557 -96 q 611 -189 611 -144 q 536 -296 611 -261 q 328 -336 461 -331 z "},"ć":{"ha":833,"x_min":89,"x_max":761,"o":"m 476 -17 q 279 26 367 -17 q 140 150 192 69 q 89 346 89 231 q 145 542 89 461 q 294 665 201 622 q 492 708 386 708 q 642 683 575 708 q 753 615 710 657 l 651 479 q 577 519 613 507 q 506 531 542 531 q 407 508 450 531 q 340 443 364 485 q 317 346 317 401 q 340 248 317 289 q 403 184 363 207 q 497 161 444 161 q 594 181 550 161 q 674 224 638 200 l 761 85 q 622 8 699 32 q 476 -17 546 -17 m 469 776 l 361 885 l 578 1143 l 726 996 l 469 776 z "},"ĉ":{"ha":833,"x_min":89,"x_max":761,"o":"m 476 -17 q 279 26 367 -17 q 140 150 192 69 q 89 346 89 231 q 145 542 89 461 q 294 665 201 622 q 492 708 386 708 q 642 683 575 708 q 753 615 710 657 l 651 479 q 577 519 613 507 q 506 531 542 531 q 407 508 450 531 q 340 443 364 485 q 317 346 317 401 q 340 248 317 289 q 403 184 363 207 q 497 161 444 161 q 594 181 550 161 q 674 224 638 200 l 761 85 q 622 8 699 32 q 476 -17 546 -17 m 294 776 l 211 856 l 361 1035 l 586 1035 l 736 856 l 653 776 l 476 899 l 471 899 l 294 776 z "},"č":{"ha":833,"x_min":89,"x_max":761,"o":"m 476 -17 q 279 26 367 -17 q 140 150 192 69 q 89 346 89 231 q 145 542 89 461 q 294 665 201 622 q 492 708 386 708 q 642 683 575 708 q 753 615 710 657 l 651 479 q 577 519 613 507 q 506 531 542 531 q 407 508 450 531 q 340 443 364 485 q 317 346 317 401 q 340 248 317 289 q 403 184 363 207 q 497 161 444 161 q 594 181 550 161 q 674 224 638 200 l 761 85 q 622 8 699 32 q 476 -17 546 -17 m 361 801 l 211 982 l 294 1060 l 471 938 l 476 938 l 653 1060 l 736 982 l 586 801 l 361 801 z "},"ċ":{"ha":833,"x_min":89,"x_max":761,"o":"m 476 -17 q 279 26 367 -17 q 140 150 192 69 q 89 346 89 231 q 145 542 89 461 q 294 665 201 622 q 492 708 386 708 q 642 683 575 708 q 753 615 710 657 l 651 479 q 577 519 613 507 q 506 531 542 531 q 407 508 450 531 q 340 443 364 485 q 317 346 317 401 q 340 248 317 289 q 403 184 363 207 q 497 161 444 161 q 594 181 550 161 q 674 224 638 200 l 761 85 q 622 8 699 32 q 476 -17 546 -17 m 474 793 q 370 829 411 793 q 329 925 329 865 q 370 1022 329 985 q 474 1058 411 1058 q 577 1022 536 1058 q 618 925 618 985 q 577 829 618 865 q 474 793 536 793 z "},"ď":{"ha":833,"x_min":42,"x_max":885,"o":"m 294 -17 q 110 81 179 -17 q 42 346 42 178 q 78 540 42 460 q 174 665 115 621 q 296 708 232 708 q 375 689 343 708 q 439 636 407 669 l 444 636 l 433 740 l 433 969 l 643 969 l 643 0 l 475 0 l 458 67 l 454 67 q 378 8 419 33 q 294 -17 338 -17 m 351 164 q 394 178 376 164 q 433 221 413 192 l 433 488 q 394 517 413 507 q 356 528 376 528 q 306 510 329 528 q 269 451 283 492 q 256 349 256 411 q 281 208 256 251 q 351 164 307 164 m 697 761 l 689 1143 l 885 1143 l 882 1003 l 846 761 l 697 761 z "},"ḍ":{"ha":833,"x_min":61,"x_max":739,"o":"m 353 -17 q 141 81 221 -17 q 61 346 61 178 q 104 540 61 460 q 214 665 147 621 q 354 708 281 708 q 451 690 411 708 q 522 636 490 671 l 528 636 l 517 740 l 517 969 l 739 969 l 739 0 l 558 0 l 543 67 l 538 67 q 451 8 500 32 q 353 -17 401 -17 m 410 164 q 468 176 442 164 q 517 221 494 189 l 517 488 q 467 519 493 511 q 414 528 442 528 q 351 510 381 528 q 306 451 322 492 q 289 349 289 411 q 321 208 289 251 q 410 164 353 164 z "},"ḏ":{"ha":833,"x_min":61,"x_max":739,"o":"m 353 -17 q 141 81 221 -17 q 61 346 61 178 q 104 540 61 460 q 214 665 147 621 q 354 708 281 708 q 451 690 411 708 q 522 636 490 671 l 528 636 l 517 740 l 517 969 l 739 969 l 739 0 l 558 0 l 543 67 l 538 67 q 451 8 500 32 q 353 -17 401 -17 m 410 164 q 468 176 442 164 q 517 221 494 189 l 517 488 q 467 519 493 511 q 414 528 442 528 q 351 510 381 528 q 306 451 322 492 q 289 349 289 411 q 321 208 289 251 q 410 164 353 164 z "},"ḑ":{"ha":833,"x_min":61,"x_max":739,"o":"m 353 -17 q 141 81 221 -17 q 61 346 61 178 q 104 540 61 460 q 214 665 147 621 q 354 708 281 708 q 451 690 411 708 q 522 636 490 671 l 528 636 l 517 740 l 517 969 l 739 969 l 739 0 l 558 0 l 543 67 l 538 67 q 451 8 500 32 q 353 -17 401 -17 m 410 164 q 468 176 442 164 q 517 221 494 189 l 517 488 q 467 519 493 511 q 414 528 442 528 q 351 510 381 528 q 306 451 322 492 q 289 349 289 411 q 321 208 289 251 q 410 164 353 164 m 235 -336 l 219 -249 q 329 -231 299 -244 q 360 -189 360 -218 q 339 -154 360 -168 q 254 -132 318 -140 l 326 15 l 453 15 l 410 -85 q 491 -120 464 -96 q 518 -189 518 -144 q 443 -296 518 -261 q 235 -336 368 -331 z "},"đ":{"ha":833,"x_min":63,"x_max":829,"o":"m 353 -17 q 142 76 221 -17 q 63 332 63 169 q 105 519 63 440 q 214 639 147 597 q 354 681 281 681 q 452 661 413 681 q 522 608 492 642 l 528 608 l 517 713 l 517 969 l 739 969 l 739 0 l 558 0 l 543 68 l 538 68 q 451 8 500 32 q 353 -17 401 -17 m 410 164 q 468 176 442 164 q 517 221 494 189 l 517 460 q 468 491 493 482 q 418 500 443 500 q 353 483 383 500 q 306 430 324 467 q 289 335 289 393 q 321 204 289 244 q 410 164 353 164 m 307 767 l 307 874 l 829 874 l 829 775 l 726 767 l 307 767 z "},"è":{"ha":833,"x_min":74,"x_max":761,"o":"m 458 -17 q 263 26 350 -17 q 124 150 175 69 q 74 346 74 231 q 125 540 74 460 q 259 665 176 621 q 435 708 342 708 q 615 664 542 708 q 724 544 688 619 q 761 375 761 468 q 758 319 761 346 q 753 279 756 292 l 239 279 l 239 425 l 600 425 l 568 385 q 536 501 568 461 q 442 540 504 540 q 359 519 393 540 q 306 455 325 499 q 288 346 288 411 q 310 235 288 278 q 378 172 333 192 q 489 151 424 151 q 574 163 533 151 q 661 196 615 174 l 733 64 q 600 5 674 26 q 458 -17 526 -17 m 436 776 l 179 996 l 328 1143 l 544 885 l 436 776 z "},"é":{"ha":833,"x_min":74,"x_max":761,"o":"m 458 -17 q 263 26 350 -17 q 124 150 175 69 q 74 346 74 231 q 125 540 74 460 q 259 665 176 621 q 435 708 342 708 q 615 664 542 708 q 724 544 688 619 q 761 375 761 468 q 758 319 761 346 q 753 279 756 292 l 239 279 l 239 425 l 600 425 l 568 385 q 536 501 568 461 q 442 540 504 540 q 359 519 393 540 q 306 455 325 499 q 288 346 288 411 q 310 235 288 278 q 378 172 333 192 q 489 151 424 151 q 574 163 533 151 q 661 196 615 174 l 733 64 q 600 5 674 26 q 458 -17 526 -17 m 428 776 l 319 885 l 536 1143 l 685 996 l 428 776 z "},"ê":{"ha":833,"x_min":74,"x_max":761,"o":"m 458 -17 q 263 26 350 -17 q 124 150 175 69 q 74 346 74 231 q 125 540 74 460 q 259 665 176 621 q 435 708 342 708 q 615 664 542 708 q 724 544 688 619 q 761 375 761 468 q 758 319 761 346 q 753 279 756 292 l 239 279 l 239 425 l 600 425 l 568 385 q 536 501 568 461 q 442 540 504 540 q 359 519 393 540 q 306 455 325 499 q 288 346 288 411 q 310 235 288 278 q 378 172 333 192 q 489 151 424 151 q 574 163 533 151 q 661 196 615 174 l 733 64 q 600 5 674 26 q 458 -17 526 -17 m 253 776 l 169 856 l 319 1035 l 544 1035 l 694 856 l 611 776 l 435 899 l 429 899 l 253 776 z "},"ě":{"ha":833,"x_min":74,"x_max":761,"o":"m 458 -17 q 263 26 350 -17 q 124 150 175 69 q 74 346 74 231 q 125 540 74 460 q 259 665 176 621 q 435 708 342 708 q 615 664 542 708 q 724 544 688 619 q 761 375 761 468 q 758 319 761 346 q 753 279 756 292 l 239 279 l 239 425 l 600 425 l 568 385 q 536 501 568 461 q 442 540 504 540 q 359 519 393 540 q 306 455 325 499 q 288 346 288 411 q 310 235 288 278 q 378 172 333 192 q 489 151 424 151 q 574 163 533 151 q 661 196 615 174 l 733 64 q 600 5 674 26 q 458 -17 526 -17 m 319 801 l 169 982 l 253 1060 l 429 938 l 435 938 l 611 1060 l 694 982 l 544 801 l 319 801 z "},"ë":{"ha":833,"x_min":74,"x_max":761,"o":"m 458 -17 q 263 26 350 -17 q 124 150 175 69 q 74 346 74 231 q 125 540 74 460 q 259 665 176 621 q 435 708 342 708 q 615 664 542 708 q 724 544 688 619 q 761 375 761 468 q 758 319 761 346 q 753 279 756 292 l 239 279 l 239 425 l 600 425 l 568 385 q 536 501 568 461 q 442 540 504 540 q 359 519 393 540 q 306 455 325 499 q 288 346 288 411 q 310 235 288 278 q 378 172 333 192 q 489 151 424 151 q 574 163 533 151 q 661 196 615 174 l 733 64 q 600 5 674 26 q 458 -17 526 -17 m 274 788 q 190 822 222 788 q 157 907 157 857 q 190 990 157 956 q 275 1025 222 1025 q 360 990 326 1025 q 393 907 393 956 q 360 822 393 857 q 274 788 326 788 m 589 788 q 504 822 538 788 q 471 907 471 857 q 504 990 471 956 q 590 1025 538 1025 q 674 990 642 1025 q 707 907 707 956 q 674 822 707 857 q 589 788 642 788 z "},"ē":{"ha":833,"x_min":74,"x_max":761,"o":"m 458 -17 q 263 26 350 -17 q 124 150 175 69 q 74 346 74 231 q 125 540 74 460 q 259 665 176 621 q 435 708 342 708 q 615 664 542 708 q 724 544 688 619 q 761 375 761 468 q 758 319 761 346 q 753 279 756 292 l 239 279 l 239 425 l 600 425 l 568 385 q 536 501 568 461 q 442 540 504 540 q 359 519 393 540 q 306 455 325 499 q 288 346 288 411 q 310 235 288 278 q 378 172 333 192 q 489 151 424 151 q 574 163 533 151 q 661 196 615 174 l 733 64 q 600 5 674 26 q 458 -17 526 -17 m 222 819 l 222 960 l 642 960 l 642 819 l 222 819 z "},"ĕ":{"ha":833,"x_min":74,"x_max":761,"o":"m 458 -17 q 263 26 350 -17 q 124 150 175 69 q 74 346 74 231 q 125 540 74 460 q 259 665 176 621 q 435 708 342 708 q 615 664 542 708 q 724 544 688 619 q 761 375 761 468 q 758 319 761 346 q 753 279 756 292 l 239 279 l 239 425 l 600 425 l 568 385 q 536 501 568 461 q 442 540 504 540 q 359 519 393 540 q 306 455 325 499 q 288 346 288 411 q 310 235 288 278 q 378 172 333 192 q 489 151 424 151 q 574 163 533 151 q 661 196 615 174 l 733 64 q 600 5 674 26 q 458 -17 526 -17 m 432 794 q 300 823 353 794 q 222 901 247 851 q 193 1015 196 951 l 318 1036 q 336 983 322 1007 q 374 946 350 960 q 432 932 397 932 q 491 946 467 932 q 528 983 515 960 q 546 1036 542 1007 l 671 1015 q 642 901 668 951 q 565 823 617 851 q 432 794 513 794 z "},"ę":{"ha":833,"x_min":74,"x_max":761,"o":"m 574 -317 q 456 -281 503 -317 q 408 -176 408 -244 q 441 -77 408 -121 q 533 13 474 -33 l 543 -6 q 492 -15 514 -12 q 458 -17 471 -17 q 263 26 350 -17 q 124 150 175 69 q 74 346 74 231 q 125 540 74 460 q 259 665 176 621 q 435 708 342 708 q 615 664 542 708 q 724 544 688 619 q 761 375 761 468 q 758 319 761 346 q 753 279 756 292 l 239 279 l 239 425 l 600 425 l 568 385 q 536 501 568 461 q 442 540 504 540 q 359 519 393 540 q 306 455 325 499 q 288 346 288 411 q 310 235 288 278 q 378 172 333 192 q 489 151 424 151 q 574 163 533 151 q 661 196 615 174 l 733 64 q 624 -14 663 18 q 572 -71 586 -46 q 557 -125 557 -96 q 578 -171 557 -156 q 628 -186 599 -186 q 662 -181 646 -186 q 690 -168 678 -175 l 736 -267 q 660 -303 706 -289 q 574 -317 614 -317 z "},"ė":{"ha":833,"x_min":74,"x_max":761,"o":"m 458 -17 q 263 26 350 -17 q 124 150 175 69 q 74 346 74 231 q 125 540 74 460 q 259 665 176 621 q 435 708 342 708 q 615 664 542 708 q 724 544 688 619 q 761 375 761 468 q 758 319 761 346 q 753 279 756 292 l 239 279 l 239 425 l 600 425 l 568 385 q 536 501 568 461 q 442 540 504 540 q 359 519 393 540 q 306 455 325 499 q 288 346 288 411 q 310 235 288 278 q 378 172 333 192 q 489 151 424 151 q 574 163 533 151 q 661 196 615 174 l 733 64 q 600 5 674 26 q 458 -17 526 -17 m 432 793 q 328 829 369 793 q 288 925 288 865 q 328 1022 288 985 q 432 1058 369 1058 q 535 1022 494 1058 q 576 925 576 985 q 535 829 576 865 q 432 793 494 793 z "},"ẹ":{"ha":833,"x_min":74,"x_max":761,"o":"m 458 -17 q 263 26 350 -17 q 124 150 175 69 q 74 346 74 231 q 125 540 74 460 q 259 665 176 621 q 435 708 342 708 q 615 664 542 708 q 724 544 688 619 q 761 375 761 468 q 758 319 761 346 q 753 279 756 292 l 239 279 l 239 425 l 600 425 l 568 385 q 536 501 568 461 q 442 540 504 540 q 359 519 393 540 q 306 455 325 499 q 288 346 288 411 q 310 235 288 278 q 378 172 333 192 q 489 151 424 151 q 574 163 533 151 q 661 196 615 174 l 733 64 q 600 5 674 26 q 458 -17 526 -17 z "},"ẻ":{"ha":833,"x_min":74,"x_max":761,"o":"m 458 -17 q 263 26 350 -17 q 124 150 175 69 q 74 346 74 231 q 125 540 74 460 q 259 665 176 621 q 435 708 342 708 q 615 664 542 708 q 724 544 688 619 q 761 375 761 468 q 758 319 761 346 q 753 279 756 292 l 239 279 l 239 425 l 600 425 l 568 385 q 536 501 568 461 q 442 540 504 540 q 359 519 393 540 q 306 455 325 499 q 288 346 288 411 q 310 235 288 278 q 378 172 333 192 q 489 151 424 151 q 574 163 533 151 q 661 196 615 174 l 733 64 q 600 5 674 26 q 458 -17 526 -17 m 368 788 l 353 874 q 394 888 378 878 q 411 919 411 897 q 387 958 411 943 q 301 976 363 972 l 315 1111 q 467 1085 411 1108 q 548 1024 524 1063 q 572 935 572 985 q 544 855 572 886 q 469 807 515 824 q 368 788 424 790 z "},"ẽ":{"ha":833,"x_min":74,"x_max":761,"o":"m 458 -17 q 263 26 350 -17 q 124 150 175 69 q 74 346 74 231 q 125 540 74 460 q 259 665 176 621 q 435 708 342 708 q 615 664 542 708 q 724 544 688 619 q 761 375 761 468 q 758 319 761 346 q 753 279 756 292 l 239 279 l 239 425 l 600 425 l 568 385 q 536 501 568 461 q 442 540 504 540 q 359 519 393 540 q 306 455 325 499 q 288 346 288 411 q 310 235 288 278 q 378 172 333 192 q 489 151 424 151 q 574 163 533 151 q 661 196 615 174 l 733 64 q 600 5 674 26 q 458 -17 526 -17 m 522 796 q 465 808 492 796 q 417 837 438 821 q 378 866 396 853 q 346 879 361 879 q 317 863 328 879 q 301 808 306 847 l 164 817 q 188 939 165 892 q 249 1008 210 986 q 342 1031 288 1031 q 400 1018 374 1031 q 447 990 426 1006 q 485 961 468 974 q 518 949 503 949 q 547 964 536 949 q 563 1018 558 979 l 700 1011 q 676 888 699 936 q 615 818 654 840 q 522 796 576 796 z "},"ế":{"ha":833,"x_min":74,"x_max":829,"o":"m 458 -17 q 263 26 350 -17 q 124 150 175 69 q 74 346 74 231 q 125 540 74 460 q 259 665 176 621 q 435 708 342 708 q 615 664 542 708 q 724 544 688 619 q 761 375 761 468 q 758 319 761 346 q 753 279 756 292 l 239 279 l 239 425 l 600 425 l 568 385 q 536 501 568 461 q 442 540 504 540 q 359 519 393 540 q 306 455 325 499 q 288 346 288 411 q 310 235 288 278 q 378 172 333 192 q 489 151 424 151 q 574 163 533 151 q 661 196 615 174 l 733 64 q 600 5 674 26 q 458 -17 526 -17 m 288 785 l 217 863 l 344 990 l 519 990 l 647 863 l 576 785 l 435 872 l 429 872 l 288 785 m 688 886 l 604 951 l 713 1129 l 829 1054 l 688 886 z "},"ề":{"ha":833,"x_min":32,"x_max":761,"o":"m 458 -17 q 263 26 350 -17 q 124 150 175 69 q 74 346 74 231 q 125 540 74 460 q 259 665 176 621 q 435 708 342 708 q 615 664 542 708 q 724 544 688 619 q 761 375 761 468 q 758 319 761 346 q 753 279 756 292 l 239 279 l 239 425 l 600 425 l 568 385 q 536 501 568 461 q 442 540 504 540 q 359 519 393 540 q 306 455 325 499 q 288 346 288 411 q 310 235 288 278 q 378 172 333 192 q 489 151 424 151 q 574 163 533 151 q 661 196 615 174 l 733 64 q 600 5 674 26 q 458 -17 526 -17 m 288 785 l 217 863 l 344 990 l 519 990 l 647 863 l 576 785 l 435 872 l 429 872 l 288 785 m 176 886 l 33 1053 l 150 1129 l 260 951 l 176 886 z "},"ể":{"ha":833,"x_min":74,"x_max":797,"o":"m 458 -17 q 263 26 350 -17 q 124 150 175 69 q 74 346 74 231 q 125 540 74 460 q 259 665 176 621 q 435 708 342 708 q 615 664 542 708 q 724 544 688 619 q 761 375 761 468 q 758 319 761 346 q 753 279 756 292 l 239 279 l 239 425 l 600 425 l 568 385 q 536 501 568 461 q 442 540 504 540 q 359 519 393 540 q 306 455 325 499 q 288 346 288 411 q 310 235 288 278 q 378 172 333 192 q 489 151 424 151 q 574 163 533 151 q 661 196 615 174 l 733 64 q 600 5 674 26 q 458 -17 526 -17 m 288 785 l 217 863 l 344 990 l 519 990 l 647 863 l 576 785 l 435 872 l 429 872 l 288 785 m 629 897 l 615 971 q 644 983 633 975 q 654 1007 654 990 q 635 1036 654 1025 q 565 1051 617 1047 l 585 1143 q 752 1109 707 1139 q 797 1031 797 1079 q 774 956 797 983 q 713 916 751 929 q 629 897 675 903 z "},"ễ":{"ha":833,"x_min":74,"x_max":761,"o":"m 458 -17 q 263 26 350 -17 q 124 150 175 69 q 74 346 74 231 q 125 540 74 460 q 259 665 176 621 q 435 708 342 708 q 615 664 542 708 q 724 544 688 619 q 761 375 761 468 q 758 319 761 346 q 753 279 756 292 l 239 279 l 239 425 l 600 425 l 568 385 q 536 501 568 461 q 442 540 504 540 q 359 519 393 540 q 306 455 325 499 q 288 346 288 411 q 310 235 288 278 q 378 172 333 192 q 489 151 424 151 q 574 163 533 151 q 661 196 615 174 l 733 64 q 600 5 674 26 q 458 -17 526 -17 m 288 785 l 217 863 l 344 978 l 519 978 l 647 863 l 576 785 l 435 860 l 429 860 l 288 785 m 511 996 q 448 1010 474 996 q 403 1040 422 1025 q 365 1054 385 1054 q 340 1042 350 1054 q 324 1003 329 1031 l 224 1014 q 266 1136 233 1099 q 353 1174 299 1174 q 416 1159 390 1174 q 460 1130 442 1144 q 499 1115 479 1115 q 526 1128 515 1115 q 540 1167 536 1140 l 640 1157 q 598 1034 631 1072 q 511 996 565 996 z "},"ệ":{"ha":833,"x_min":74,"x_max":761,"o":"m 458 -17 q 263 26 350 -17 q 124 150 175 69 q 74 346 74 231 q 125 540 74 460 q 259 665 176 621 q 435 708 342 708 q 615 664 542 708 q 724 544 688 619 q 761 375 761 468 q 758 319 761 346 q 753 279 756 292 l 239 279 l 239 425 l 600 425 l 568 385 q 536 501 568 461 q 442 540 504 540 q 359 519 393 540 q 306 455 325 499 q 288 346 288 411 q 310 235 288 278 q 378 172 333 192 q 489 151 424 151 q 574 163 533 151 q 661 196 615 174 l 733 64 q 600 5 674 26 q 458 -17 526 -17 m 253 776 l 169 856 l 319 1035 l 544 1035 l 694 856 l 611 776 l 435 899 l 429 899 l 253 776 z "},"ḗ":{"ha":833,"x_min":74,"x_max":761,"o":"m 458 -17 q 263 26 350 -17 q 124 150 175 69 q 74 346 74 231 q 125 540 74 460 q 259 665 176 621 q 435 708 342 708 q 615 664 542 708 q 724 544 688 619 q 761 375 761 468 q 758 319 761 346 q 753 279 756 292 l 239 279 l 239 425 l 600 425 l 568 385 q 536 501 568 461 q 442 540 504 540 q 359 519 393 540 q 306 455 325 499 q 288 346 288 411 q 310 235 288 278 q 378 172 333 192 q 489 151 424 151 q 574 163 533 151 q 661 196 615 174 l 733 64 q 600 5 674 26 q 458 -17 526 -17 m 222 819 l 222 960 l 642 960 l 642 819 l 222 819 m 394 992 l 321 1081 l 524 1229 l 613 1119 l 394 992 z "},"ǵ":{"ha":833,"x_min":67,"x_max":797,"o":"m 379 -290 q 221 -272 292 -290 q 108 -216 150 -254 q 67 -115 67 -178 q 94 -39 67 -72 q 172 21 121 -6 l 172 26 q 124 73 144 44 q 103 144 103 101 q 126 214 103 179 q 186 274 150 249 l 186 279 q 121 351 149 306 q 93 457 93 397 q 135 597 93 542 q 247 681 178 653 q 394 708 315 708 q 510 692 460 708 l 790 692 l 790 531 l 658 531 q 676 495 668 517 q 683 450 683 474 q 645 318 683 369 q 542 242 607 267 q 394 218 476 218 q 352 221 375 218 q 303 231 329 224 q 283 210 289 219 q 276 185 276 201 q 303 150 276 161 q 390 139 331 139 l 513 139 q 723 97 649 139 q 797 -39 797 56 q 746 -169 797 -112 q 601 -258 694 -225 q 379 -290 507 -290 m 394 351 q 442 363 421 351 q 476 399 463 375 q 489 457 489 422 q 476 515 489 492 q 442 549 463 538 q 394 561 421 561 q 348 549 369 561 q 314 515 326 538 q 301 457 301 492 q 314 399 301 422 q 348 363 326 375 q 394 351 369 351 m 413 -151 q 503 -142 464 -151 q 564 -116 542 -133 q 586 -78 586 -99 q 557 -39 586 -47 q 472 -31 528 -31 l 393 -31 q 331 -28 354 -31 q 289 -21 307 -26 q 256 -49 267 -36 q 246 -81 246 -62 q 292 -134 246 -117 q 413 -151 338 -151 m 418 776 l 310 885 l 526 1143 l 675 996 l 418 776 z "},"ĝ":{"ha":833,"x_min":67,"x_max":797,"o":"m 379 -290 q 221 -272 292 -290 q 108 -216 150 -254 q 67 -115 67 -178 q 94 -39 67 -72 q 172 21 121 -6 l 172 26 q 124 73 144 44 q 103 144 103 101 q 126 214 103 179 q 186 274 150 249 l 186 279 q 121 351 149 306 q 93 457 93 397 q 135 597 93 542 q 247 681 178 653 q 394 708 315 708 q 510 692 460 708 l 790 692 l 790 531 l 658 531 q 676 495 668 517 q 683 450 683 474 q 645 318 683 369 q 542 242 607 267 q 394 218 476 218 q 352 221 375 218 q 303 231 329 224 q 283 210 289 219 q 276 185 276 201 q 303 150 276 161 q 390 139 331 139 l 513 139 q 723 97 649 139 q 797 -39 797 56 q 746 -169 797 -112 q 601 -258 694 -225 q 379 -290 507 -290 m 394 351 q 442 363 421 351 q 476 399 463 375 q 489 457 489 422 q 476 515 489 492 q 442 549 463 538 q 394 561 421 561 q 348 549 369 561 q 314 515 326 538 q 301 457 301 492 q 314 399 301 422 q 348 363 326 375 q 394 351 369 351 m 413 -151 q 503 -142 464 -151 q 564 -116 542 -133 q 586 -78 586 -99 q 557 -39 586 -47 q 472 -31 528 -31 l 393 -31 q 331 -28 354 -31 q 289 -21 307 -26 q 256 -49 267 -36 q 246 -81 246 -62 q 292 -134 246 -117 q 413 -151 338 -151 m 243 776 l 160 856 l 310 1035 l 535 1035 l 685 856 l 601 776 l 425 899 l 419 899 l 243 776 z "},"ğ":{"ha":833,"x_min":67,"x_max":797,"o":"m 379 -290 q 221 -272 292 -290 q 108 -216 150 -254 q 67 -115 67 -178 q 94 -39 67 -72 q 172 21 121 -6 l 172 26 q 124 73 144 44 q 103 144 103 101 q 126 214 103 179 q 186 274 150 249 l 186 279 q 121 351 149 306 q 93 457 93 397 q 135 597 93 542 q 247 681 178 653 q 394 708 315 708 q 510 692 460 708 l 790 692 l 790 531 l 658 531 q 676 495 668 517 q 683 450 683 474 q 645 318 683 369 q 542 242 607 267 q 394 218 476 218 q 352 221 375 218 q 303 231 329 224 q 283 210 289 219 q 276 185 276 201 q 303 150 276 161 q 390 139 331 139 l 513 139 q 723 97 649 139 q 797 -39 797 56 q 746 -169 797 -112 q 601 -258 694 -225 q 379 -290 507 -290 m 394 351 q 442 363 421 351 q 476 399 463 375 q 489 457 489 422 q 476 515 489 492 q 442 549 463 538 q 394 561 421 561 q 348 549 369 561 q 314 515 326 538 q 301 457 301 492 q 314 399 301 422 q 348 363 326 375 q 394 351 369 351 m 413 -151 q 503 -142 464 -151 q 564 -116 542 -133 q 586 -78 586 -99 q 557 -39 586 -47 q 472 -31 528 -31 l 393 -31 q 331 -28 354 -31 q 289 -21 307 -26 q 256 -49 267 -36 q 246 -81 246 -62 q 292 -134 246 -117 q 413 -151 338 -151 m 422 794 q 290 823 343 794 q 212 901 238 851 q 183 1015 186 951 l 308 1036 q 326 983 313 1007 q 364 946 340 960 q 422 932 388 932 q 481 946 457 932 q 519 983 506 960 q 536 1036 532 1007 l 661 1015 q 633 901 658 951 q 555 823 607 851 q 422 794 503 794 z "},"ġ":{"ha":833,"x_min":67,"x_max":797,"o":"m 379 -290 q 221 -272 292 -290 q 108 -216 150 -254 q 67 -115 67 -178 q 94 -39 67 -72 q 172 21 121 -6 l 172 26 q 124 73 144 44 q 103 144 103 101 q 126 214 103 179 q 186 274 150 249 l 186 279 q 121 351 149 306 q 93 457 93 397 q 135 597 93 542 q 247 681 178 653 q 394 708 315 708 q 510 692 460 708 l 790 692 l 790 531 l 658 531 q 676 495 668 517 q 683 450 683 474 q 645 318 683 369 q 542 242 607 267 q 394 218 476 218 q 352 221 375 218 q 303 231 329 224 q 283 210 289 219 q 276 185 276 201 q 303 150 276 161 q 390 139 331 139 l 513 139 q 723 97 649 139 q 797 -39 797 56 q 746 -169 797 -112 q 601 -258 694 -225 q 379 -290 507 -290 m 394 351 q 442 363 421 351 q 476 399 463 375 q 489 457 489 422 q 476 515 489 492 q 442 549 463 538 q 394 561 421 561 q 348 549 369 561 q 314 515 326 538 q 301 457 301 492 q 314 399 301 422 q 348 363 326 375 q 394 351 369 351 m 413 -151 q 503 -142 464 -151 q 564 -116 542 -133 q 586 -78 586 -99 q 557 -39 586 -47 q 472 -31 528 -31 l 393 -31 q 331 -28 354 -31 q 289 -21 307 -26 q 256 -49 267 -36 q 246 -81 246 -62 q 292 -134 246 -117 q 413 -151 338 -151 m 422 793 q 319 829 360 793 q 278 925 278 865 q 319 1022 278 985 q 422 1058 360 1058 q 526 1022 485 1058 q 567 925 567 985 q 526 829 567 865 q 422 793 485 793 z "},"ģ":{"ha":833,"x_min":67,"x_max":797,"o":"m 379 -290 q 221 -272 292 -290 q 108 -216 150 -254 q 67 -115 67 -178 q 94 -39 67 -72 q 172 21 121 -6 l 172 26 q 124 73 144 44 q 103 144 103 101 q 126 214 103 179 q 186 274 150 249 l 186 279 q 121 351 149 306 q 93 457 93 397 q 135 597 93 542 q 247 681 178 653 q 394 708 315 708 q 510 692 460 708 l 790 692 l 790 531 l 658 531 q 676 495 668 517 q 683 450 683 474 q 645 318 683 369 q 542 242 607 267 q 394 218 476 218 q 352 221 375 218 q 303 231 329 224 q 283 210 289 219 q 276 185 276 201 q 303 150 276 161 q 390 139 331 139 l 513 139 q 723 97 649 139 q 797 -39 797 56 q 746 -169 797 -112 q 601 -258 694 -225 q 379 -290 507 -290 m 394 351 q 442 363 421 351 q 476 399 463 375 q 489 457 489 422 q 476 515 489 492 q 442 549 463 538 q 394 561 421 561 q 348 549 369 561 q 314 515 326 538 q 301 457 301 492 q 314 399 301 422 q 348 363 326 375 q 394 351 369 351 m 413 -151 q 503 -142 464 -151 q 564 -116 542 -133 q 586 -78 586 -99 q 557 -39 586 -47 q 472 -31 528 -31 l 393 -31 q 331 -28 354 -31 q 289 -21 307 -26 q 256 -49 267 -36 q 246 -81 246 -62 q 292 -134 246 -117 q 413 -151 338 -151 m 488 788 q 328 826 372 796 q 285 906 285 856 q 360 1014 285 979 q 568 1053 435 1049 l 583 965 q 474 949 504 961 q 443 914 443 938 q 463 883 443 896 q 529 867 483 871 l 488 788 z "},"ǧ":{"ha":833,"x_min":67,"x_max":797,"o":"m 379 -290 q 221 -272 292 -290 q 108 -216 150 -254 q 67 -115 67 -178 q 94 -39 67 -72 q 172 21 121 -6 l 172 26 q 124 73 144 44 q 103 144 103 101 q 126 214 103 179 q 186 274 150 249 l 186 279 q 121 351 149 306 q 93 457 93 397 q 135 597 93 542 q 247 681 178 653 q 394 708 315 708 q 510 692 460 708 l 790 692 l 790 531 l 658 531 q 676 495 668 517 q 683 450 683 474 q 645 318 683 369 q 542 242 607 267 q 394 218 476 218 q 352 221 375 218 q 303 231 329 224 q 283 210 289 219 q 276 185 276 201 q 303 150 276 161 q 390 139 331 139 l 513 139 q 723 97 649 139 q 797 -39 797 56 q 746 -169 797 -112 q 601 -258 694 -225 q 379 -290 507 -290 m 394 351 q 442 363 421 351 q 476 399 463 375 q 489 457 489 422 q 476 515 489 492 q 442 549 463 538 q 394 561 421 561 q 348 549 369 561 q 314 515 326 538 q 301 457 301 492 q 314 399 301 422 q 348 363 326 375 q 394 351 369 351 m 413 -151 q 503 -142 464 -151 q 564 -116 542 -133 q 586 -78 586 -99 q 557 -39 586 -47 q 472 -31 528 -31 l 393 -31 q 331 -28 354 -31 q 289 -21 307 -26 q 256 -49 267 -36 q 246 -81 246 -62 q 292 -134 246 -117 q 413 -151 338 -151 m 310 801 l 160 982 l 243 1060 l 419 938 l 425 938 l 601 1060 l 685 982 l 535 801 l 310 801 z "},"ḡ":{"ha":833,"x_min":67,"x_max":797,"o":"m 379 -290 q 221 -272 292 -290 q 108 -216 150 -254 q 67 -115 67 -178 q 94 -39 67 -72 q 172 21 121 -6 l 172 26 q 124 73 144 44 q 103 144 103 101 q 126 214 103 179 q 186 274 150 249 l 186 279 q 121 351 149 306 q 93 457 93 397 q 135 597 93 542 q 247 681 178 653 q 394 708 315 708 q 510 692 460 708 l 790 692 l 790 531 l 658 531 q 676 495 668 517 q 683 450 683 474 q 645 318 683 369 q 542 242 607 267 q 394 218 476 218 q 352 221 375 218 q 303 231 329 224 q 283 210 289 219 q 276 185 276 201 q 303 150 276 161 q 390 139 331 139 l 513 139 q 723 97 649 139 q 797 -39 797 56 q 746 -169 797 -112 q 601 -258 694 -225 q 379 -290 507 -290 m 394 351 q 442 363 421 351 q 476 399 463 375 q 489 457 489 422 q 476 515 489 492 q 442 549 463 538 q 394 561 421 561 q 348 549 369 561 q 314 515 326 538 q 301 457 301 492 q 314 399 301 422 q 348 363 326 375 q 394 351 369 351 m 413 -151 q 503 -142 464 -151 q 564 -116 542 -133 q 586 -78 586 -99 q 557 -39 586 -47 q 472 -31 528 -31 l 393 -31 q 331 -28 354 -31 q 289 -21 307 -26 q 256 -49 267 -36 q 246 -81 246 -62 q 292 -134 246 -117 q 413 -151 338 -151 m 213 819 l 213 960 l 632 960 l 632 819 l 213 819 z "},"ĥ":{"ha":833,"x_min":-36,"x_max":754,"o":"m 94 0 l 94 969 l 317 969 l 317 739 l 303 611 l 308 611 q 400 678 344 647 q 532 708 456 708 q 701 633 649 708 q 754 426 754 557 l 754 0 l 532 0 l 532 399 q 513 490 532 461 q 442 519 493 519 q 376 503 404 519 q 317 458 349 488 l 317 0 l 94 0 m 58 1032 l -37 1089 l 83 1243 l 325 1243 l 446 1089 l 350 1032 l 207 1144 l 201 1144 l 58 1032 z "},"ḧ":{"ha":833,"x_min":-62,"x_max":754,"o":"m 94 0 l 94 969 l 317 969 l 317 739 l 303 611 l 308 611 q 400 678 344 647 q 532 708 456 708 q 701 633 649 708 q 754 426 754 557 l 754 0 l 532 0 l 532 399 q 513 490 532 461 q 442 519 493 519 q 376 503 404 519 q 317 458 349 488 l 317 0 l 94 0 m 46 1051 q -32 1083 -1 1051 q -62 1160 -62 1114 q -32 1236 -62 1206 q 46 1267 -1 1267 q 123 1236 93 1267 q 153 1160 153 1206 q 123 1083 153 1114 q 46 1051 93 1051 m 363 1051 q 285 1083 315 1051 q 256 1160 256 1114 q 285 1236 256 1206 q 363 1267 315 1267 q 440 1236 410 1267 q 471 1160 471 1206 q 440 1083 471 1114 q 363 1051 410 1051 z "},"ḥ":{"ha":833,"x_min":94,"x_max":754,"o":"m 94 0 l 94 969 l 317 969 l 317 739 l 303 611 l 308 611 q 400 678 344 647 q 532 708 456 708 q 701 633 649 708 q 754 426 754 557 l 754 0 l 532 0 l 532 399 q 513 490 532 461 q 442 519 493 519 q 376 503 404 519 q 317 458 349 488 l 317 0 l 94 0 z "},"ẖ":{"ha":833,"x_min":94,"x_max":754,"o":"m 94 0 l 94 969 l 317 969 l 317 739 l 303 611 l 308 611 q 400 678 344 647 q 532 708 456 708 q 701 633 649 708 q 754 426 754 557 l 754 0 l 532 0 l 532 399 q 513 490 532 461 q 442 519 493 519 q 376 503 404 519 q 317 458 349 488 l 317 0 l 94 0 z "},"ḩ":{"ha":833,"x_min":43,"x_max":754,"o":"m 94 0 l 94 969 l 317 969 l 317 739 l 303 611 l 308 611 q 400 678 344 647 q 532 708 456 708 q 701 633 649 708 q 754 426 754 557 l 754 0 l 532 0 l 532 399 q 513 490 532 461 q 442 519 493 519 q 376 503 404 519 q 317 458 349 488 l 317 0 l 94 0 m 60 -336 l 44 -249 q 154 -231 124 -244 q 185 -189 185 -218 q 164 -154 185 -168 q 79 -132 143 -140 l 151 15 l 278 15 l 235 -85 q 316 -120 289 -96 q 343 -189 343 -144 q 268 -296 343 -261 q 60 -336 193 -331 z "},"ḫ":{"ha":833,"x_min":94,"x_max":754,"o":"m 94 0 l 94 969 l 317 969 l 317 739 l 303 611 l 308 611 q 400 678 344 647 q 532 708 456 708 q 701 633 649 708 q 754 426 754 557 l 754 0 l 532 0 l 532 399 q 513 490 532 461 q 442 519 493 519 q 376 503 404 519 q 317 458 349 488 l 317 0 l 94 0 z "},"ħ":{"ha":833,"x_min":4,"x_max":754,"o":"m 94 0 l 94 969 l 317 969 l 317 711 l 303 583 l 308 583 q 400 650 344 619 q 532 681 456 681 q 701 605 649 681 q 754 399 754 529 l 754 0 l 532 0 l 532 371 q 513 463 532 433 q 442 492 493 492 q 376 476 404 492 q 317 431 349 460 l 317 0 l 94 0 m 4 767 l 4 865 l 110 874 l 560 874 l 560 767 l 4 767 z "},"ì":{"ha":833,"x_min":106,"x_max":599,"o":"m 376 0 l 376 518 l 106 518 l 106 692 l 599 692 l 599 0 l 376 0 m 483 776 l 226 996 l 375 1143 l 592 885 l 483 776 z "},"í":{"ha":833,"x_min":106,"x_max":732,"o":"m 376 0 l 376 518 l 106 518 l 106 692 l 599 692 l 599 0 l 376 0 m 475 776 l 367 885 l 583 1143 l 732 996 l 475 776 z "},"î":{"ha":833,"x_min":106,"x_max":740,"o":"m 376 0 l 376 518 l 106 518 l 106 692 l 599 692 l 599 0 l 376 0 m 300 776 l 217 856 l 367 1035 l 592 1035 l 742 856 l 658 776 l 482 899 l 476 899 l 300 776 z "},"ĩ":{"ha":833,"x_min":106,"x_max":746,"o":"m 376 0 l 376 518 l 106 518 l 106 692 l 599 692 l 599 0 l 376 0 m 569 796 q 512 808 539 796 q 464 837 485 821 q 426 866 443 853 q 393 879 408 879 q 364 863 375 879 q 349 808 353 847 l 211 817 q 235 939 213 892 q 296 1008 257 986 q 389 1031 335 1031 q 447 1018 421 1031 q 494 990 474 1006 q 533 961 515 974 q 565 949 550 949 q 594 964 583 949 q 610 1018 606 979 l 747 1011 q 724 888 746 936 q 663 818 701 840 q 569 796 624 796 z "},"ï":{"ha":833,"x_min":106,"x_max":754,"o":"m 376 0 l 376 518 l 106 518 l 106 692 l 599 692 l 599 0 l 376 0 m 321 788 q 237 822 269 788 q 204 907 204 857 q 237 990 204 956 q 322 1025 269 1025 q 407 990 374 1025 q 440 907 440 956 q 407 822 440 857 q 321 788 374 788 m 636 788 q 551 822 585 788 q 518 907 518 857 q 551 990 518 956 q 638 1025 585 1025 q 722 990 689 1025 q 754 907 754 956 q 722 822 754 857 q 636 788 689 788 z "},"ī":{"ha":833,"x_min":106,"x_max":689,"o":"m 376 0 l 376 518 l 106 518 l 106 692 l 599 692 l 599 0 l 376 0 m 269 819 l 269 960 l 689 960 l 689 819 l 269 819 z "},"ǐ":{"ha":833,"x_min":106,"x_max":740,"o":"m 376 0 l 376 518 l 106 518 l 106 692 l 599 692 l 599 0 l 376 0 m 367 801 l 217 982 l 300 1060 l 476 938 l 482 938 l 658 1060 l 742 982 l 592 801 l 367 801 z "},"į":{"ha":833,"x_min":106,"x_max":649,"o":"m 486 -317 q 369 -281 418 -317 q 321 -176 321 -244 q 358 -68 321 -112 q 440 0 396 -24 l 376 0 l 376 518 l 106 518 l 106 692 l 599 692 l 599 -1 q 498 -58 526 -24 q 469 -125 469 -92 q 490 -171 469 -156 q 542 -186 511 -186 q 574 -181 558 -186 q 603 -168 589 -175 l 649 -267 q 572 -303 618 -289 q 486 -317 525 -317 m 479 793 q 376 829 417 793 q 335 925 335 865 q 376 1022 335 985 q 479 1058 417 1058 q 583 1022 542 1058 q 624 925 624 985 q 583 829 624 865 q 479 793 542 793 z "},"ỉ":{"ha":833,"x_min":106,"x_max":618,"o":"m 376 0 l 376 518 l 106 518 l 106 692 l 599 692 l 599 0 l 376 0 m 415 788 l 400 874 q 442 888 425 878 q 458 919 458 897 q 434 958 458 943 q 349 976 410 972 l 363 1111 q 515 1085 458 1108 q 595 1024 571 1063 q 619 935 619 985 q 591 855 619 886 q 517 807 563 824 q 415 788 471 790 z "},"ị":{"ha":833,"x_min":106,"x_max":622,"o":"m 376 0 l 376 518 l 106 518 l 106 692 l 599 692 l 599 0 l 376 0 m 479 793 q 376 829 417 793 q 335 925 335 865 q 376 1022 335 985 q 479 1058 417 1058 q 583 1022 542 1058 q 624 925 624 985 q 583 829 624 865 q 479 793 542 793 z "},"ĭ":{"ha":833,"x_min":106,"x_max":717,"o":"m 376 0 l 376 518 l 106 518 l 106 692 l 599 692 l 599 0 l 376 0 m 479 794 q 347 823 400 794 q 269 901 294 851 q 240 1015 243 951 l 365 1036 q 383 983 369 1007 q 421 946 397 960 q 479 932 444 932 q 538 946 514 932 q 576 983 563 960 q 593 1036 589 1007 l 718 1015 q 690 901 715 951 q 612 823 664 851 q 479 794 560 794 z "},"ı":{"ha":833,"x_min":106,"x_max":599,"o":"m 376 0 l 376 518 l 106 518 l 106 692 l 599 692 l 599 0 l 376 0 z "},"ĵ":{"ha":833,"x_min":56,"x_max":740,"o":"m 271 -267 q 152 -253 204 -267 q 56 -219 100 -240 l 118 -62 q 195 -87 163 -81 q 256 -93 228 -93 q 328 -79 303 -93 q 365 -35 354 -65 q 376 44 376 -4 l 376 518 l 106 518 l 106 692 l 599 692 l 599 53 q 583 -69 599 -11 q 530 -171 567 -126 q 430 -241 493 -215 q 271 -267 367 -267 m 300 776 l 217 856 l 367 1035 l 592 1035 l 742 856 l 658 776 l 482 899 l 476 899 l 300 776 z "},"ķ":{"ha":833,"x_min":97,"x_max":817,"o":"m 97 0 l 97 969 l 318 969 l 318 429 l 324 429 l 557 692 l 797 692 l 318 171 l 318 0 l 97 0 m 576 0 l 389 304 l 515 440 l 817 0 l 576 0 m 301 -336 l 286 -249 q 396 -232 365 -244 q 426 -196 426 -219 q 406 -166 426 -178 q 340 -150 386 -154 l 382 -71 q 541 -108 497 -79 q 585 -189 585 -136 q 510 -296 585 -261 q 301 -336 435 -331 z "},"ḳ":{"ha":833,"x_min":97,"x_max":817,"o":"m 97 0 l 97 969 l 318 969 l 318 429 l 324 429 l 557 692 l 797 692 l 318 171 l 318 0 l 97 0 m 576 0 l 389 304 l 515 440 l 817 0 l 576 0 z "},"ḵ":{"ha":833,"x_min":97,"x_max":817,"o":"m 97 0 l 97 969 l 318 969 l 318 429 l 324 429 l 557 692 l 797 692 l 318 171 l 318 0 l 97 0 m 576 0 l 389 304 l 515 440 l 817 0 l 576 0 z "},"ĸ":{"ha":833,"x_min":97,"x_max":817,"o":"m 97 0 l 97 692 l 318 692 l 318 435 l 324 435 l 557 692 l 797 692 l 539 406 l 817 0 l 576 0 l 411 260 l 318 168 l 318 0 l 97 0 z "},"ĺ":{"ha":833,"x_min":64,"x_max":757,"o":"m 546 -17 q 343 65 411 -17 q 275 278 275 146 l 275 797 l 64 797 l 64 969 l 496 969 l 496 269 q 531 185 496 208 q 604 161 565 161 q 652 167 628 161 q 708 183 676 172 l 757 19 q 658 -7 703 3 q 546 -17 613 -17 m 325 1024 l 226 1135 l 471 1332 l 588 1189 l 325 1024 z "},"ľ":{"ha":833,"x_min":64,"x_max":767,"o":"m 546 -17 q 343 65 411 -17 q 275 278 275 146 l 275 797 l 64 797 l 64 969 l 496 969 l 496 269 q 531 185 496 208 q 604 161 565 161 q 652 167 628 161 q 708 183 676 172 l 757 19 q 658 -7 703 3 q 546 -17 613 -17 m 578 761 l 571 1143 l 767 1143 l 764 1003 l 728 761 l 578 761 z "},"ļ":{"ha":833,"x_min":64,"x_max":757,"o":"m 546 -17 q 343 65 411 -17 q 275 278 275 146 l 275 797 l 64 797 l 64 969 l 496 969 l 496 269 q 531 185 496 208 q 604 161 565 161 q 652 167 628 161 q 708 183 676 172 l 757 19 q 658 -7 703 3 q 546 -17 613 -17 m 360 -336 l 344 -249 q 454 -232 424 -244 q 485 -196 485 -219 q 465 -166 485 -178 q 399 -150 444 -154 l 440 -71 q 599 -108 556 -79 q 643 -189 643 -136 q 568 -296 643 -261 q 360 -336 493 -331 z "},"ḷ":{"ha":833,"x_min":64,"x_max":757,"o":"m 546 -17 q 343 65 411 -17 q 275 278 275 146 l 275 797 l 64 797 l 64 969 l 496 969 l 496 269 q 531 185 496 208 q 604 161 565 161 q 652 167 628 161 q 708 183 676 172 l 757 19 q 658 -7 703 3 q 546 -17 613 -17 z "},"ḹ":{"ha":833,"x_min":64,"x_max":757,"o":"m 546 -17 q 343 65 411 -17 q 275 278 275 146 l 275 797 l 64 797 l 64 969 l 496 969 l 496 269 q 531 185 496 208 q 604 161 565 161 q 652 167 628 161 q 708 183 676 172 l 757 19 q 658 -7 703 3 q 546 -17 613 -17 m 163 1082 l 163 1222 l 593 1222 l 593 1082 l 163 1082 z "},"ḻ":{"ha":833,"x_min":64,"x_max":757,"o":"m 546 -17 q 343 65 411 -17 q 275 278 275 146 l 275 797 l 64 797 l 64 969 l 496 969 l 496 269 q 531 185 496 208 q 604 161 565 161 q 652 167 628 161 q 708 183 676 172 l 757 19 q 658 -7 703 3 q 546 -17 613 -17 z "},"ł":{"ha":833,"x_min":63,"x_max":757,"o":"m 164 308 l 89 446 l 285 554 l 454 629 l 658 743 l 733 606 l 454 453 l 285 378 l 164 308 m 546 -17 q 343 65 411 -17 q 275 278 275 146 l 275 797 l 63 797 l 63 969 l 496 969 l 496 269 q 531 185 496 208 q 604 161 565 161 q 653 167 628 161 q 708 182 678 172 l 757 19 q 658 -7 703 3 q 546 -17 613 -17 z "},"ŀ":{"ha":833,"x_min":-8,"x_max":911,"o":"m 474 -17 q 271 65 339 -17 q 203 278 203 146 l 203 797 l -8 797 l -8 969 l 424 969 l 424 269 q 458 185 424 208 q 532 161 493 161 q 580 167 556 161 q 636 183 604 172 l 685 19 q 585 -7 631 3 q 474 -17 540 -17 m 768 367 q 665 403 706 367 q 624 499 624 439 q 665 595 624 558 q 768 632 706 632 q 872 595 831 632 q 913 499 913 558 q 872 403 913 439 q 768 367 831 367 z "},"ḿ":{"ha":833,"x_min":42,"x_max":801,"o":"m 42 0 l 42 692 l 208 692 l 224 607 l 229 607 q 283 678 247 649 q 378 708 318 708 q 452 680 421 708 q 496 596 483 651 q 550 675 513 642 q 646 708 588 708 q 761 648 721 708 q 801 483 801 588 l 801 0 l 592 0 l 592 468 q 561 519 592 519 q 532 506 544 519 q 507 460 519 492 l 507 0 l 336 0 l 336 468 q 328 507 336 494 q 303 519 321 519 q 276 506 288 519 q 251 460 264 492 l 251 0 l 42 0 m 444 781 l 336 889 l 553 1147 l 701 1000 l 444 781 z "},"ṁ":{"ha":833,"x_min":42,"x_max":801,"o":"m 42 0 l 42 692 l 208 692 l 224 607 l 229 607 q 283 678 247 649 q 378 708 318 708 q 452 680 421 708 q 496 596 483 651 q 550 675 513 642 q 646 708 588 708 q 761 648 721 708 q 801 483 801 588 l 801 0 l 592 0 l 592 468 q 561 519 592 519 q 532 506 544 519 q 507 460 519 492 l 507 0 l 336 0 l 336 468 q 328 507 336 494 q 303 519 321 519 q 276 506 288 519 q 251 460 264 492 l 251 0 l 42 0 m 449 797 q 345 833 386 797 q 304 929 304 869 q 345 1026 304 989 q 449 1063 386 1063 q 552 1026 511 1063 q 593 929 593 989 q 552 833 593 869 q 449 797 511 797 z "},"ṃ":{"ha":833,"x_min":42,"x_max":801,"o":"m 42 0 l 42 692 l 208 692 l 224 607 l 229 607 q 283 678 247 649 q 378 708 318 708 q 452 680 421 708 q 496 596 483 651 q 550 675 513 642 q 646 708 588 708 q 761 648 721 708 q 801 483 801 588 l 801 0 l 592 0 l 592 468 q 561 519 592 519 q 532 506 544 519 q 507 460 519 492 l 507 0 l 336 0 l 336 468 q 328 507 336 494 q 303 519 321 519 q 276 506 288 519 q 251 460 264 492 l 251 0 l 42 0 z "},"ń":{"ha":833,"x_min":94,"x_max":754,"o":"m 94 0 l 94 692 l 275 692 l 290 604 l 296 604 q 397 677 339 646 q 532 708 454 708 q 701 633 647 708 q 754 426 754 557 l 754 0 l 532 0 l 532 399 q 513 490 532 461 q 442 519 493 519 q 376 503 404 519 q 317 458 349 488 l 317 0 l 94 0 m 433 776 l 325 885 l 542 1143 l 690 996 l 433 776 z "},"ǹ":{"ha":833,"x_min":94,"x_max":754,"o":"m 94 0 l 94 692 l 275 692 l 290 604 l 296 604 q 397 677 339 646 q 532 708 454 708 q 701 633 647 708 q 754 426 754 557 l 754 0 l 532 0 l 532 399 q 513 490 532 461 q 442 519 493 519 q 376 503 404 519 q 317 458 349 488 l 317 0 l 94 0 m 442 776 l 185 996 l 333 1143 l 550 885 l 442 776 z "},"ň":{"ha":833,"x_min":94,"x_max":754,"o":"m 94 0 l 94 692 l 275 692 l 290 604 l 296 604 q 397 677 339 646 q 532 708 454 708 q 701 633 647 708 q 754 426 754 557 l 754 0 l 532 0 l 532 399 q 513 490 532 461 q 442 519 493 519 q 376 503 404 519 q 317 458 349 488 l 317 0 l 94 0 m 325 801 l 175 982 l 258 1060 l 435 938 l 440 938 l 617 1060 l 700 982 l 550 801 l 325 801 z "},"ñ":{"ha":833,"x_min":94,"x_max":754,"o":"m 94 0 l 94 692 l 275 692 l 290 604 l 296 604 q 397 677 339 646 q 532 708 454 708 q 701 633 647 708 q 754 426 754 557 l 754 0 l 532 0 l 532 399 q 513 490 532 461 q 442 519 493 519 q 376 503 404 519 q 317 458 349 488 l 317 0 l 94 0 m 528 796 q 470 808 497 796 q 422 837 443 821 q 384 866 401 853 q 351 879 367 879 q 322 863 333 879 q 307 808 311 847 l 169 817 q 193 939 171 892 q 254 1008 215 986 q 347 1031 293 1031 q 406 1018 379 1031 q 453 990 432 1006 q 491 961 474 974 q 524 949 508 949 q 553 964 542 949 q 568 1018 564 979 l 706 1011 q 682 888 704 936 q 621 818 660 840 q 528 796 582 796 z "},"ņ":{"ha":833,"x_min":94,"x_max":754,"o":"m 94 0 l 94 692 l 275 692 l 290 604 l 296 604 q 397 677 339 646 q 532 708 454 708 q 701 633 647 708 q 754 426 754 557 l 754 0 l 532 0 l 532 399 q 513 490 532 461 q 442 519 493 519 q 376 503 404 519 q 317 458 349 488 l 317 0 l 94 0 m 278 -336 l 263 -249 q 372 -232 342 -244 q 403 -196 403 -219 q 383 -166 403 -178 q 317 -150 363 -154 l 358 -71 q 517 -108 474 -79 q 561 -189 561 -136 q 486 -296 561 -261 q 278 -336 411 -331 z "},"ṅ":{"ha":833,"x_min":94,"x_max":754,"o":"m 94 0 l 94 692 l 275 692 l 290 604 l 296 604 q 397 677 339 646 q 532 708 454 708 q 701 633 647 708 q 754 426 754 557 l 754 0 l 532 0 l 532 399 q 513 490 532 461 q 442 519 493 519 q 376 503 404 519 q 317 458 349 488 l 317 0 l 94 0 m 438 793 q 334 829 375 793 q 293 925 293 865 q 334 1022 293 985 q 438 1058 375 1058 q 541 1022 500 1058 q 582 925 582 985 q 541 829 582 865 q 438 793 500 793 z "},"ṇ":{"ha":833,"x_min":94,"x_max":754,"o":"m 94 0 l 94 692 l 275 692 l 290 604 l 296 604 q 397 677 339 646 q 532 708 454 708 q 701 633 647 708 q 754 426 754 557 l 754 0 l 532 0 l 532 399 q 513 490 532 461 q 442 519 493 519 q 376 503 404 519 q 317 458 349 488 l 317 0 l 94 0 z "},"ṉ":{"ha":833,"x_min":94,"x_max":754,"o":"m 94 0 l 94 692 l 275 692 l 290 604 l 296 604 q 397 677 339 646 q 532 708 454 708 q 701 633 647 708 q 754 426 754 557 l 754 0 l 532 0 l 532 399 q 513 490 532 461 q 442 519 493 519 q 376 503 404 519 q 317 458 349 488 l 317 0 l 94 0 z "},"ŉ":{"ha":833,"x_min":-72,"x_max":907,"o":"m 306 0 l 306 692 l 486 692 l 501 606 l 507 606 q 595 678 547 647 q 711 708 643 708 q 860 633 814 708 q 907 428 907 557 l 907 0 l 686 0 l 686 400 q 671 491 686 463 q 621 519 656 519 q 572 504 592 519 q 528 458 553 489 l 528 0 l 306 0 m -14 388 l -71 503 q 47 588 8 538 q 86 708 86 638 l 82 846 l 165 728 q 117 701 146 713 q 60 689 88 689 q -35 725 3 689 q -72 821 -72 761 q -33 927 -72 888 q 67 967 7 967 q 192 906 149 967 q 236 735 236 844 q 174 531 236 619 q -14 388 113 443 z "},"ò":{"ha":833,"x_min":61,"x_max":772,"o":"m 417 -17 q 244 26 325 -17 q 112 150 163 69 q 61 346 61 231 q 112 542 61 461 q 244 665 163 622 q 417 708 325 708 q 590 665 508 708 q 722 542 671 622 q 772 346 772 461 q 722 150 772 231 q 590 26 671 69 q 417 -17 508 -17 m 417 161 q 488 184 460 161 q 531 248 517 207 q 544 346 544 289 q 531 443 544 401 q 488 508 517 485 q 417 531 460 531 q 345 508 374 531 q 303 443 317 485 q 289 346 289 401 q 303 248 289 289 q 345 184 317 207 q 417 161 374 161 m 421 776 l 164 996 l 313 1143 l 529 885 l 421 776 z "},"ó":{"ha":833,"x_min":61,"x_max":772,"o":"m 417 -17 q 244 26 325 -17 q 112 150 163 69 q 61 346 61 231 q 112 542 61 461 q 244 665 163 622 q 417 708 325 708 q 590 665 508 708 q 722 542 671 622 q 772 346 772 461 q 722 150 772 231 q 590 26 671 69 q 417 -17 508 -17 m 417 161 q 488 184 460 161 q 531 248 517 207 q 544 346 544 289 q 531 443 544 401 q 488 508 517 485 q 417 531 460 531 q 345 508 374 531 q 303 443 317 485 q 289 346 289 401 q 303 248 289 289 q 345 184 317 207 q 417 161 374 161 m 413 776 l 304 885 l 521 1143 l 669 996 l 413 776 z "},"ô":{"ha":833,"x_min":61,"x_max":772,"o":"m 417 -17 q 244 26 325 -17 q 112 150 163 69 q 61 346 61 231 q 112 542 61 461 q 244 665 163 622 q 417 708 325 708 q 590 665 508 708 q 722 542 671 622 q 772 346 772 461 q 722 150 772 231 q 590 26 671 69 q 417 -17 508 -17 m 417 161 q 488 184 460 161 q 531 248 517 207 q 544 346 544 289 q 531 443 544 401 q 488 508 517 485 q 417 531 460 531 q 345 508 374 531 q 303 443 317 485 q 289 346 289 401 q 303 248 289 289 q 345 184 317 207 q 417 161 374 161 m 238 776 l 154 856 l 304 1035 l 529 1035 l 679 856 l 596 776 l 419 899 l 414 899 l 238 776 z "},"õ":{"ha":833,"x_min":61,"x_max":772,"o":"m 417 -17 q 244 26 325 -17 q 112 150 163 69 q 61 346 61 231 q 112 542 61 461 q 244 665 163 622 q 417 708 325 708 q 590 665 508 708 q 722 542 671 622 q 772 346 772 461 q 722 150 772 231 q 590 26 671 69 q 417 -17 508 -17 m 417 161 q 488 184 460 161 q 531 248 517 207 q 544 346 544 289 q 531 443 544 401 q 488 508 517 485 q 417 531 460 531 q 345 508 374 531 q 303 443 317 485 q 289 346 289 401 q 303 248 289 289 q 345 184 317 207 q 417 161 374 161 m 507 796 q 449 808 476 796 q 401 837 422 821 q 363 866 381 853 q 331 879 346 879 q 301 863 313 879 q 286 808 290 847 l 149 817 q 172 939 150 892 q 233 1008 194 986 q 326 1031 272 1031 q 385 1018 358 1031 q 432 990 411 1006 q 470 961 453 974 q 503 949 488 949 q 532 964 521 949 q 547 1018 543 979 l 685 1011 q 661 888 683 936 q 600 818 639 840 q 507 796 561 796 z "},"ö":{"ha":833,"x_min":61,"x_max":772,"o":"m 417 -17 q 244 26 325 -17 q 112 150 163 69 q 61 346 61 231 q 112 542 61 461 q 244 665 163 622 q 417 708 325 708 q 590 665 508 708 q 722 542 671 622 q 772 346 772 461 q 722 150 772 231 q 590 26 671 69 q 417 -17 508 -17 m 417 161 q 488 184 460 161 q 531 248 517 207 q 544 346 544 289 q 531 443 544 401 q 488 508 517 485 q 417 531 460 531 q 345 508 374 531 q 303 443 317 485 q 289 346 289 401 q 303 248 289 289 q 345 184 317 207 q 417 161 374 161 m 258 788 q 174 822 207 788 q 142 907 142 857 q 174 990 142 956 q 260 1025 207 1025 q 344 990 311 1025 q 378 907 378 956 q 344 822 378 857 q 258 788 311 788 m 574 788 q 489 822 522 788 q 456 907 456 857 q 489 990 456 956 q 575 1025 522 1025 q 659 990 626 1025 q 692 907 692 956 q 659 822 692 857 q 574 788 626 788 z "},"ō":{"ha":833,"x_min":61,"x_max":772,"o":"m 417 -17 q 244 26 325 -17 q 112 150 163 69 q 61 346 61 231 q 112 542 61 461 q 244 665 163 622 q 417 708 325 708 q 590 665 508 708 q 722 542 671 622 q 772 346 772 461 q 722 150 772 231 q 590 26 671 69 q 417 -17 508 -17 m 417 161 q 488 184 460 161 q 531 248 517 207 q 544 346 544 289 q 531 443 544 401 q 488 508 517 485 q 417 531 460 531 q 345 508 374 531 q 303 443 317 485 q 289 346 289 401 q 303 248 289 289 q 345 184 317 207 q 417 161 374 161 m 207 819 l 207 960 l 626 960 l 626 819 l 207 819 z "},"ő":{"ha":833,"x_min":61,"x_max":772,"o":"m 417 -17 q 244 26 325 -17 q 112 150 163 69 q 61 346 61 231 q 112 542 61 461 q 244 665 163 622 q 417 708 325 708 q 590 665 508 708 q 722 542 671 622 q 772 346 772 461 q 722 150 772 231 q 590 26 671 69 q 417 -17 508 -17 m 417 161 q 488 184 460 161 q 531 248 517 207 q 544 346 544 289 q 531 443 544 401 q 488 508 517 485 q 417 531 460 531 q 345 508 374 531 q 303 443 317 485 q 289 346 289 401 q 303 248 289 289 q 345 184 317 207 q 417 161 374 161 m 343 785 l 226 836 l 349 1089 l 497 1024 l 343 785 m 600 785 l 483 836 l 606 1089 l 753 1024 l 600 785 z "},"ǒ":{"ha":833,"x_min":61,"x_max":772,"o":"m 417 -17 q 244 26 325 -17 q 112 150 163 69 q 61 346 61 231 q 112 542 61 461 q 244 665 163 622 q 417 708 325 708 q 590 665 508 708 q 722 542 671 622 q 772 346 772 461 q 722 150 772 231 q 590 26 671 69 q 417 -17 508 -17 m 417 161 q 488 184 460 161 q 531 248 517 207 q 544 346 544 289 q 531 443 544 401 q 488 508 517 485 q 417 531 460 531 q 345 508 374 531 q 303 443 317 485 q 289 346 289 401 q 303 248 289 289 q 345 184 317 207 q 417 161 374 161 m 304 801 l 154 982 l 238 1060 l 414 938 l 419 938 l 596 1060 l 679 982 l 529 801 l 304 801 z "},"ǫ":{"ha":833,"x_min":61,"x_max":772,"o":"m 443 -317 q 329 -281 376 -317 q 282 -176 282 -246 q 311 -78 282 -119 q 368 -12 340 -36 q 216 44 286 -1 q 103 167 146 90 q 61 346 61 243 q 112 542 61 461 q 244 665 163 622 q 417 708 325 708 q 590 665 510 708 q 722 542 671 622 q 772 346 772 461 q 742 190 772 256 q 657 79 711 125 q 531 1 603 33 q 454 -58 478 -22 q 431 -125 431 -93 q 452 -172 431 -157 q 496 -186 474 -186 q 538 -180 521 -186 q 564 -168 554 -174 l 610 -267 q 535 -303 581 -289 q 443 -317 489 -317 m 417 157 q 488 180 460 157 q 531 245 517 203 q 544 346 544 288 q 531 443 544 401 q 488 508 517 485 q 417 531 460 531 q 345 508 374 531 q 303 443 317 485 q 289 346 289 401 q 303 245 289 288 q 345 180 317 203 q 417 157 374 157 z "},"ọ":{"ha":833,"x_min":61,"x_max":772,"o":"m 417 -17 q 244 26 325 -17 q 112 150 163 69 q 61 346 61 231 q 112 542 61 461 q 244 665 163 622 q 417 708 325 708 q 590 665 508 708 q 722 542 671 622 q 772 346 772 461 q 722 150 772 231 q 590 26 671 69 q 417 -17 508 -17 m 417 161 q 488 184 460 161 q 531 248 517 207 q 544 346 544 289 q 531 443 544 401 q 488 508 517 485 q 417 531 460 531 q 345 508 374 531 q 303 443 317 485 q 289 346 289 401 q 303 248 289 289 q 345 184 317 207 q 417 161 374 161 z "},"ỏ":{"ha":833,"x_min":61,"x_max":772,"o":"m 417 -17 q 244 26 325 -17 q 112 150 163 69 q 61 346 61 231 q 112 542 61 461 q 244 665 163 622 q 417 708 325 708 q 590 665 508 708 q 722 542 671 622 q 772 346 772 461 q 722 150 772 231 q 590 26 671 69 q 417 -17 508 -17 m 417 161 q 488 184 460 161 q 531 248 517 207 q 544 346 544 289 q 531 443 544 401 q 488 508 517 485 q 417 531 460 531 q 345 508 374 531 q 303 443 317 485 q 289 346 289 401 q 303 248 289 289 q 345 184 317 207 q 417 161 374 161 m 353 788 l 338 874 q 379 888 363 878 q 396 919 396 897 q 372 958 396 943 q 286 976 347 972 l 300 1111 q 452 1085 396 1108 q 533 1024 508 1063 q 557 935 557 985 q 528 855 557 886 q 454 807 500 824 q 353 788 408 790 z "},"ố":{"ha":833,"x_min":61,"x_max":814,"o":"m 417 -17 q 244 26 325 -17 q 112 150 163 69 q 61 346 61 231 q 112 542 61 461 q 244 665 163 622 q 417 708 325 708 q 590 665 508 708 q 722 542 671 622 q 772 346 772 461 q 722 150 772 231 q 590 26 671 69 q 417 -17 508 -17 m 417 161 q 488 184 460 161 q 531 248 517 207 q 544 346 544 289 q 531 443 544 401 q 488 508 517 485 q 417 531 460 531 q 345 508 374 531 q 303 443 317 485 q 289 346 289 401 q 303 248 289 289 q 345 184 317 207 q 417 161 374 161 m 272 785 l 201 863 l 329 990 l 504 990 l 632 863 l 561 785 l 419 872 l 414 872 l 272 785 m 672 886 l 589 951 l 697 1129 l 814 1054 l 672 886 z "},"ồ":{"ha":833,"x_min":18,"x_max":772,"o":"m 417 -17 q 244 26 325 -17 q 112 150 163 69 q 61 346 61 231 q 112 542 61 461 q 244 665 163 622 q 417 708 325 708 q 590 665 508 708 q 722 542 671 622 q 772 346 772 461 q 722 150 772 231 q 590 26 671 69 q 417 -17 508 -17 m 417 161 q 488 184 460 161 q 531 248 517 207 q 544 346 544 289 q 531 443 544 401 q 488 508 517 485 q 417 531 460 531 q 345 508 374 531 q 303 443 317 485 q 289 346 289 401 q 303 248 289 289 q 345 184 317 207 q 417 161 374 161 m 272 785 l 201 863 l 329 990 l 504 990 l 632 863 l 561 785 l 419 872 l 414 872 l 272 785 m 161 886 l 18 1053 l 135 1129 l 244 951 l 161 886 z "},"ổ":{"ha":833,"x_min":61,"x_max":782,"o":"m 417 -17 q 244 26 325 -17 q 112 150 163 69 q 61 346 61 231 q 112 542 61 461 q 244 665 163 622 q 417 708 325 708 q 590 665 508 708 q 722 542 671 622 q 772 346 772 461 q 722 150 772 231 q 590 26 671 69 q 417 -17 508 -17 m 417 161 q 488 184 460 161 q 531 248 517 207 q 544 346 544 289 q 531 443 544 401 q 488 508 517 485 q 417 531 460 531 q 345 508 374 531 q 303 443 317 485 q 289 346 289 401 q 303 248 289 289 q 345 184 317 207 q 417 161 374 161 m 272 785 l 201 863 l 329 990 l 504 990 l 632 863 l 561 785 l 419 872 l 414 872 l 272 785 m 614 897 l 600 971 q 628 983 618 975 q 639 1007 639 990 q 620 1036 639 1025 q 550 1051 601 1047 l 569 1143 q 737 1109 692 1139 q 782 1031 782 1079 q 759 956 782 983 q 698 916 736 929 q 614 897 660 903 z "},"ỗ":{"ha":833,"x_min":61,"x_max":772,"o":"m 417 -17 q 244 26 325 -17 q 112 150 163 69 q 61 346 61 231 q 112 542 61 461 q 244 665 163 622 q 417 708 325 708 q 590 665 508 708 q 722 542 671 622 q 772 346 772 461 q 722 150 772 231 q 590 26 671 69 q 417 -17 508 -17 m 417 161 q 488 184 460 161 q 531 248 517 207 q 544 346 544 289 q 531 443 544 401 q 488 508 517 485 q 417 531 460 531 q 345 508 374 531 q 303 443 317 485 q 289 346 289 401 q 303 248 289 289 q 345 184 317 207 q 417 161 374 161 m 272 785 l 201 863 l 329 978 l 504 978 l 632 863 l 561 785 l 419 860 l 414 860 l 272 785 m 496 996 q 433 1010 458 996 q 388 1040 407 1025 q 350 1054 369 1054 q 324 1042 335 1054 q 308 1003 314 1031 l 208 1014 q 251 1136 218 1099 q 338 1174 283 1174 q 401 1159 375 1174 q 445 1130 426 1144 q 483 1115 464 1115 q 510 1128 500 1115 q 525 1167 521 1140 l 625 1157 q 583 1034 615 1072 q 496 996 550 996 z "},"ộ":{"ha":833,"x_min":61,"x_max":772,"o":"m 417 -17 q 244 26 325 -17 q 112 150 163 69 q 61 346 61 231 q 112 542 61 461 q 244 665 163 622 q 417 708 325 708 q 590 665 508 708 q 722 542 671 622 q 772 346 772 461 q 722 150 772 231 q 590 26 671 69 q 417 -17 508 -17 m 417 161 q 488 184 460 161 q 531 248 517 207 q 544 346 544 289 q 531 443 544 401 q 488 508 517 485 q 417 531 460 531 q 345 508 374 531 q 303 443 317 485 q 289 346 289 401 q 303 248 289 289 q 345 184 317 207 q 417 161 374 161 m 238 776 l 154 856 l 304 1035 l 529 1035 l 679 856 l 596 776 l 419 899 l 414 899 l 238 776 z "},"ŏ":{"ha":833,"x_min":61,"x_max":772,"o":"m 417 -17 q 244 26 325 -17 q 112 150 163 69 q 61 346 61 231 q 112 542 61 461 q 244 665 163 622 q 417 708 325 708 q 590 665 508 708 q 722 542 671 622 q 772 346 772 461 q 722 150 772 231 q 590 26 671 69 q 417 -17 508 -17 m 417 161 q 488 184 460 161 q 531 248 517 207 q 544 346 544 289 q 531 443 544 401 q 488 508 517 485 q 417 531 460 531 q 345 508 374 531 q 303 443 317 485 q 289 346 289 401 q 303 248 289 289 q 345 184 317 207 q 417 161 374 161 m 417 794 q 285 823 338 794 q 206 901 232 851 q 178 1015 181 951 l 303 1036 q 321 983 307 1007 q 358 946 335 960 q 417 932 382 932 q 476 946 451 932 q 513 983 500 960 q 531 1036 526 1007 l 656 1015 q 627 901 653 951 q 549 823 601 851 q 417 794 497 794 z "},"ṓ":{"ha":833,"x_min":61,"x_max":772,"o":"m 417 -17 q 244 26 325 -17 q 112 150 163 69 q 61 346 61 231 q 112 542 61 461 q 244 665 163 622 q 417 708 325 708 q 590 665 508 708 q 722 542 671 622 q 772 346 772 461 q 722 150 772 231 q 590 26 671 69 q 417 -17 508 -17 m 417 161 q 488 184 460 161 q 531 248 517 207 q 544 346 544 289 q 531 443 544 401 q 488 508 517 485 q 417 531 460 531 q 345 508 374 531 q 303 443 317 485 q 289 346 289 401 q 303 248 289 289 q 345 184 317 207 q 417 161 374 161 m 207 819 l 207 960 l 626 960 l 626 819 l 207 819 m 379 992 l 306 1081 l 508 1229 l 597 1119 l 379 992 z "},"ơ":{"ha":833,"x_min":61,"x_max":832,"o":"m 650 604 l 547 675 q 620 719 592 688 q 649 817 649 751 q 643 869 649 844 q 626 910 638 894 l 790 979 q 820 915 808 954 q 832 832 832 876 q 809 726 832 772 q 744 651 786 681 q 650 604 703 621 m 417 -17 q 244 26 325 -17 q 112 150 163 69 q 61 346 61 231 q 112 542 61 461 q 244 665 163 622 q 417 708 325 708 q 590 665 508 708 q 722 542 671 622 q 772 346 772 461 q 722 150 772 231 q 590 26 671 69 q 417 -17 508 -17 m 417 161 q 488 184 460 161 q 531 248 517 207 q 544 346 544 289 q 531 443 544 401 q 488 508 517 485 q 417 531 460 531 q 345 508 374 531 q 303 443 317 485 q 289 346 289 401 q 303 248 289 289 q 345 184 317 207 q 417 161 374 161 z "},"ớ":{"ha":833,"x_min":61,"x_max":832,"o":"m 650 604 l 547 675 q 620 719 592 688 q 649 817 649 751 q 643 869 649 844 q 626 910 638 894 l 790 979 q 820 915 808 954 q 832 832 832 876 q 809 726 832 772 q 744 651 786 681 q 650 604 703 621 m 417 -17 q 244 26 325 -17 q 112 150 163 69 q 61 346 61 231 q 112 542 61 461 q 244 665 163 622 q 417 708 325 708 q 590 665 508 708 q 722 542 671 622 q 772 346 772 461 q 722 150 772 231 q 590 26 671 69 q 417 -17 508 -17 m 417 161 q 488 184 460 161 q 531 248 517 207 q 544 346 544 289 q 531 443 544 401 q 488 508 517 485 q 417 531 460 531 q 345 508 374 531 q 303 443 317 485 q 289 346 289 401 q 303 248 289 289 q 345 184 317 207 q 417 161 374 161 m 413 776 l 304 885 l 521 1143 l 669 996 l 413 776 z "},"ờ":{"ha":833,"x_min":61,"x_max":832,"o":"m 650 604 l 547 675 q 620 719 592 688 q 649 817 649 751 q 643 869 649 844 q 626 910 638 894 l 790 979 q 820 915 808 954 q 832 832 832 876 q 809 726 832 772 q 744 651 786 681 q 650 604 703 621 m 417 -17 q 244 26 325 -17 q 112 150 163 69 q 61 346 61 231 q 112 542 61 461 q 244 665 163 622 q 417 708 325 708 q 590 665 508 708 q 722 542 671 622 q 772 346 772 461 q 722 150 772 231 q 590 26 671 69 q 417 -17 508 -17 m 417 161 q 488 184 460 161 q 531 248 517 207 q 544 346 544 289 q 531 443 544 401 q 488 508 517 485 q 417 531 460 531 q 345 508 374 531 q 303 443 317 485 q 289 346 289 401 q 303 248 289 289 q 345 184 317 207 q 417 161 374 161 m 421 776 l 164 996 l 313 1143 l 529 885 l 421 776 z "},"ở":{"ha":833,"x_min":61,"x_max":832,"o":"m 650 604 l 547 675 q 620 719 592 688 q 649 817 649 751 q 643 869 649 844 q 626 910 638 894 l 790 979 q 820 915 808 954 q 832 832 832 876 q 809 726 832 772 q 744 651 786 681 q 650 604 703 621 m 417 -17 q 244 26 325 -17 q 112 150 163 69 q 61 346 61 231 q 112 542 61 461 q 244 665 163 622 q 417 708 325 708 q 590 665 508 708 q 722 542 671 622 q 772 346 772 461 q 722 150 772 231 q 590 26 671 69 q 417 -17 508 -17 m 417 161 q 488 184 460 161 q 531 248 517 207 q 544 346 544 289 q 531 443 544 401 q 488 508 517 485 q 417 531 460 531 q 345 508 374 531 q 303 443 317 485 q 289 346 289 401 q 303 248 289 289 q 345 184 317 207 q 417 161 374 161 m 353 788 l 338 874 q 379 888 363 878 q 396 919 396 897 q 372 958 396 943 q 286 976 347 972 l 300 1111 q 452 1085 396 1108 q 533 1024 508 1063 q 557 935 557 985 q 528 855 557 886 q 454 807 500 824 q 353 788 408 790 z "},"ỡ":{"ha":833,"x_min":61,"x_max":832,"o":"m 650 604 l 547 675 q 620 719 592 688 q 649 817 649 751 q 643 869 649 844 q 626 910 638 894 l 790 979 q 820 915 808 954 q 832 832 832 876 q 809 726 832 772 q 744 651 786 681 q 650 604 703 621 m 417 -17 q 244 26 325 -17 q 112 150 163 69 q 61 346 61 231 q 112 542 61 461 q 244 665 163 622 q 417 708 325 708 q 590 665 508 708 q 722 542 671 622 q 772 346 772 461 q 722 150 772 231 q 590 26 671 69 q 417 -17 508 -17 m 417 161 q 488 184 460 161 q 531 248 517 207 q 544 346 544 289 q 531 443 544 401 q 488 508 517 485 q 417 531 460 531 q 345 508 374 531 q 303 443 317 485 q 289 346 289 401 q 303 248 289 289 q 345 184 317 207 q 417 161 374 161 m 479 796 q 422 808 449 796 q 374 837 394 821 q 335 866 353 853 q 303 879 318 879 q 274 863 285 879 q 258 808 263 847 l 121 817 q 144 939 122 892 q 206 1008 167 986 q 299 1031 244 1031 q 357 1018 331 1031 q 404 990 383 1006 q 442 961 425 974 q 475 949 460 949 q 504 964 493 949 q 519 1018 515 979 l 657 1011 q 633 888 656 936 q 572 818 611 840 q 479 796 533 796 z "}}}
